<svg width="16" height="16" viewBox="0 0 16 16" fill="none" xmlns="http://www.w3.org/2000/svg">
<path d="M2.54559 0.363647C1.96693 0.363647 1.41198 0.593517 1.00281 1.00269C0.593639 1.41186 0.36377 1.96681 0.36377 2.54547V4.72728C0.36377 5.30594 0.593639 5.86089 1.00281 6.27006C1.41198 6.67923 1.96693 6.9091 2.54559 6.9091H4.72741C5.30606 6.9091 5.86101 6.67923 6.27018 6.27006C6.67935 5.86089 6.90922 5.30594 6.90922 4.72728V2.54547C6.90922 1.96681 6.67935 1.41186 6.27018 1.00269C5.86101 0.593517 5.30606 0.363647 4.72741 0.363647H2.54559ZM2.54559 9.09092C1.96693 9.09092 1.41198 9.32079 1.00281 9.72996C0.593639 10.1391 0.36377 10.6941 0.36377 11.2727V13.4546C0.36377 14.0332 0.593639 14.5882 1.00281 14.9973C1.41198 15.4065 1.96693 15.6364 2.54559 15.6364H4.72741C5.30606 15.6364 5.86101 15.4065 6.27018 14.9973C6.67935 14.5882 6.90922 14.0332 6.90922 13.4546V11.2727C6.90922 10.6941 6.67935 10.1391 6.27018 9.72996C5.86101 9.32079 5.30606 9.09092 4.72741 9.09092H2.54559ZM9.09104 2.54547C9.09104 1.96681 9.32091 1.41186 9.73008 1.00269C10.1393 0.593517 10.6942 0.363647 11.2729 0.363647H13.4547C14.0333 0.363647 14.5883 0.593517 14.9975 1.00269C15.4066 1.41186 15.6365 1.96681 15.6365 2.54547V4.72728C15.6365 5.30594 15.4066 5.86089 14.9975 6.27006C14.5883 6.67923 14.0333 6.9091 13.4547 6.9091H11.2729C10.6942 6.9091 10.1393 6.67923 9.73008 6.27006C9.32091 5.86089 9.09104 5.30594 9.09104 4.72728V2.54547ZM9.09104 11.2727C9.09104 10.6941 9.32091 10.1391 9.73008 9.72996C10.1393 9.32079 10.6942 9.09092 11.2729 9.09092H13.4547C14.0333 9.09092 14.5883 9.32079 14.9975 9.72996C15.4066 10.1391 15.6365 10.6941 15.6365 11.2727V13.4546C15.6365 14.0332 15.4066 14.5882 14.9975 14.9973C14.5883 15.4065 14.0333 15.6364 13.4547 15.6364H11.2729C10.6942 15.6364 10.1393 15.4065 9.73008 14.9973C9.32091 14.5882 9.09104 14.0332 9.09104 13.4546V11.2727Z" fill="#231F20"/>
</svg>