<?xml version="1.0" encoding="UTF-8"?>
<svg xmlns="http://www.w3.org/2000/svg" xmlns:xlink="http://www.w3.org/1999/xlink" width="16px" height="16px" viewBox="0 0 16 16" version="1.1">
<g id="surface1">
<path style=" stroke:none;fill-rule:evenodd;fill:rgb(0%,0%,0%);fill-opacity:1;" d="M 6.472656 0.875 C 6.382812 0.886719 6.203125 0.90625 6.070312 0.917969 C 5.941406 0.933594 5.808594 0.949219 5.78125 0.960938 C 5.753906 0.96875 5.660156 0.992188 5.574219 1.007812 C 4.664062 1.171875 3.625 1.730469 2.875 2.460938 C -0.183594 5.4375 0.945312 10.585938 4.960938 11.988281 C 5.214844 12.074219 5.402344 12.121094 5.871094 12.214844 C 5.929688 12.226562 6.058594 12.246094 6.160156 12.253906 C 6.261719 12.261719 6.414062 12.28125 6.503906 12.292969 C 6.703125 12.316406 7.019531 12.316406 7.207031 12.292969 C 7.289062 12.28125 7.433594 12.265625 7.535156 12.253906 C 7.636719 12.246094 7.769531 12.226562 7.832031 12.214844 C 8.140625 12.15625 8.210938 12.140625 8.34375 12.101562 C 9.054688 11.902344 9.6875 11.597656 10.199219 11.203125 C 10.3125 11.113281 10.386719 11.085938 10.453125 11.105469 C 10.488281 11.117188 11.035156 11.652344 12.34375 12.957031 C 14.230469 14.84375 14.257812 14.867188 14.441406 14.933594 C 14.910156 15.113281 15.367188 14.558594 15.136719 14.085938 C 15.085938 13.980469 14.980469 13.875 13.214844 12.105469 L 11.34375 10.230469 L 11.34375 10.164062 C 11.34375 10.113281 11.359375 10.078125 11.414062 9.996094 C 12.035156 9.125 12.324219 8.4375 12.472656 7.472656 C 12.550781 6.957031 12.558594 6.167969 12.488281 5.828125 C 12.476562 5.769531 12.457031 5.660156 12.449219 5.585938 C 12.359375 4.957031 12.066406 4.175781 11.679688 3.550781 C 10.886719 2.273438 9.449219 1.253906 8.097656 1.007812 C 8.011719 0.992188 7.90625 0.96875 7.855469 0.953125 C 7.808594 0.941406 7.742188 0.929688 7.703125 0.929688 C 7.667969 0.929688 7.492188 0.910156 7.320312 0.886719 C 6.964844 0.84375 6.722656 0.839844 6.472656 0.875 M 7.59375 2.140625 C 7.667969 2.160156 7.773438 2.183594 7.835938 2.191406 C 8.347656 2.273438 9.117188 2.636719 9.625 3.042969 C 12.070312 4.984375 11.859375 8.765625 9.214844 10.40625 C 8.894531 10.605469 8.402344 10.828125 8.171875 10.878906 C 8.128906 10.886719 8.070312 10.90625 8.035156 10.917969 C 8.003906 10.933594 7.898438 10.960938 7.800781 10.976562 C 7.703125 10.996094 7.570312 11.023438 7.503906 11.035156 C 7.304688 11.074219 6.175781 11.054688 6.015625 11.011719 C 5.949219 10.992188 5.863281 10.972656 5.824219 10.96875 C 5.515625 10.925781 4.9375 10.695312 4.542969 10.460938 C 1.996094 8.957031 1.5625 5.445312 3.664062 3.378906 C 4.277344 2.773438 5.082031 2.332031 5.832031 2.195312 C 5.921875 2.175781 6.023438 2.15625 6.0625 2.144531 C 6.277344 2.085938 7.367188 2.082031 7.59375 2.140625 M 6.671875 3.558594 C 6.253906 3.707031 6.222656 3.800781 6.222656 5.0625 C 6.222656 5.585938 6.21875 5.886719 6.207031 5.90625 C 6.167969 5.976562 6.164062 5.976562 5.167969 5.984375 L 4.214844 5.992188 L 4.125 6.039062 C 3.679688 6.265625 3.691406 6.910156 4.144531 7.132812 L 4.230469 7.175781 L 6.144531 7.191406 L 6.179688 7.226562 L 6.214844 7.265625 L 6.226562 8.1875 C 6.234375 9.207031 6.234375 9.179688 6.339844 9.359375 C 6.550781 9.710938 7.113281 9.710938 7.324219 9.359375 C 7.433594 9.179688 7.429688 9.207031 7.441406 8.199219 C 7.449219 7.203125 7.449219 7.214844 7.539062 7.191406 C 7.558594 7.1875 7.992188 7.183594 8.503906 7.179688 L 9.433594 7.175781 L 9.527344 7.128906 C 9.984375 6.90625 9.980469 6.253906 9.523438 6.027344 L 9.449219 5.992188 L 8.496094 5.984375 C 7.769531 5.976562 7.535156 5.972656 7.507812 5.957031 C 7.445312 5.917969 7.441406 5.851562 7.441406 4.96875 C 7.441406 4.039062 7.433594 3.984375 7.335938 3.816406 C 7.203125 3.589844 6.910156 3.476562 6.671875 3.558594 "/>
<path style=" stroke:none;fill-rule:evenodd;fill:rgb(98.431373%,98.431373%,98.431373%);fill-opacity:1;" d="M 0 8 L 0 16 L 16 16 L 16 0 L 0 0 L 0 8 M 7.195312 0.753906 C 7.324219 0.761719 7.507812 0.78125 7.609375 0.800781 C 7.714844 0.816406 7.8125 0.832031 7.835938 0.832031 C 8.09375 0.832031 8.96875 1.117188 9.441406 1.351562 C 12.660156 2.964844 13.683594 7.132812 11.5625 10.015625 C 11.519531 10.074219 11.488281 10.132812 11.488281 10.15625 C 11.488281 10.191406 11.828125 10.539062 13.339844 12.054688 C 15.335938 14.054688 15.253906 13.964844 15.320312 14.199219 C 15.441406 14.621094 15.070312 15.082031 14.609375 15.078125 L 14.441406 15.078125 L 14.136719 14.921875 L 12.289062 13.078125 C 11.023438 11.816406 10.429688 11.230469 10.40625 11.230469 C 10.386719 11.230469 10.292969 11.289062 10.199219 11.355469 C 9.613281 11.773438 8.894531 12.109375 8.324219 12.234375 C 8.253906 12.246094 8.148438 12.273438 8.089844 12.289062 C 8.027344 12.304688 7.933594 12.320312 7.878906 12.328125 C 7.828125 12.332031 7.703125 12.351562 7.601562 12.371094 C 7.328125 12.425781 6.394531 12.425781 6.105469 12.375 C 6 12.355469 5.875 12.335938 5.832031 12.328125 C 5.265625 12.257812 4.417969 11.949219 3.835938 11.597656 C 0.0585938 9.308594 0.046875 3.882812 3.816406 1.574219 C 4.410156 1.210938 5.222656 0.914062 5.847656 0.832031 C 5.917969 0.820312 6.035156 0.804688 6.109375 0.789062 C 6.367188 0.742188 6.828125 0.726562 7.195312 0.753906 M 6.105469 2.265625 C 4.578125 2.539062 3.367188 3.496094 2.792969 4.886719 C 1.78125 7.316406 3.132812 10.109375 5.648438 10.800781 C 6.164062 10.945312 7.007812 11.003906 7.40625 10.925781 C 7.484375 10.910156 7.601562 10.890625 7.671875 10.878906 C 8.011719 10.832031 8.601562 10.617188 8.96875 10.410156 C 11.828125 8.796875 11.972656 4.746094 9.238281 2.917969 C 8.347656 2.320312 7.15625 2.074219 6.105469 2.265625 M 6.996094 3.433594 C 7.21875 3.488281 7.378906 3.609375 7.464844 3.78125 C 7.5625 3.984375 7.566406 4.023438 7.566406 4.953125 C 7.566406 5.644531 7.570312 5.792969 7.589844 5.816406 C 7.613281 5.847656 7.644531 5.847656 8.515625 5.855469 C 9.394531 5.863281 9.417969 5.867188 9.519531 5.902344 C 10.097656 6.097656 10.175781 6.898438 9.644531 7.203125 C 9.503906 7.285156 9.503906 7.285156 8.542969 7.296875 C 7.679688 7.304688 7.632812 7.304688 7.601562 7.335938 C 7.566406 7.363281 7.566406 7.371094 7.566406 8.207031 C 7.566406 9.113281 7.5625 9.175781 7.480469 9.351562 C 7.25 9.863281 6.4375 9.871094 6.195312 9.367188 C 6.101562 9.175781 6.097656 9.132812 6.097656 8.207031 C 6.097656 7.507812 6.09375 7.359375 6.074219 7.335938 C 6.050781 7.304688 6.019531 7.304688 5.132812 7.296875 C 4.125 7.285156 4.148438 7.289062 3.984375 7.183594 C 3.539062 6.898438 3.570312 6.183594 4.035156 5.945312 C 4.203125 5.863281 4.269531 5.855469 5.191406 5.855469 C 5.957031 5.855469 6.039062 5.851562 6.066406 5.828125 C 6.09375 5.804688 6.097656 5.757812 6.097656 4.960938 C 6.097656 4.039062 6.101562 3.992188 6.191406 3.796875 C 6.324219 3.515625 6.6875 3.351562 6.996094 3.433594 "/>
<path style=" stroke:none;fill-rule:evenodd;fill:rgb(54.901961%,58.039216%,64.313725%);fill-opacity:1;" d="M 6.601562 0.808594 C 6.566406 0.8125 6.449219 0.828125 6.34375 0.839844 C 6.238281 0.855469 6.085938 0.871094 6.007812 0.882812 C 5.402344 0.945312 4.589844 1.21875 4.007812 1.550781 C 0.316406 3.660156 0.0664062 8.851562 3.535156 11.308594 C 3.953125 11.605469 4.425781 11.847656 4.929688 12.023438 C 5.089844 12.078125 5.394531 12.167969 5.488281 12.183594 C 5.519531 12.1875 5.625 12.210938 5.71875 12.230469 C 5.886719 12.269531 6.125 12.300781 6.511719 12.339844 C 6.703125 12.359375 7.257812 12.347656 7.390625 12.320312 C 7.441406 12.3125 7.574219 12.292969 7.6875 12.28125 C 8.175781 12.222656 8.78125 12.046875 9.289062 11.808594 C 9.601562 11.660156 9.792969 11.546875 10.28125 11.203125 C 10.4375 11.09375 10.234375 10.914062 12.335938 13.015625 C 14.386719 15.0625 14.257812 14.945312 14.515625 15.007812 C 14.886719 15.101562 15.320312 14.660156 15.25 14.261719 C 15.207031 14.023438 15.3125 14.140625 13.269531 12.097656 C 12.035156 10.855469 11.40625 10.21875 11.398438 10.1875 C 11.386719 10.128906 11.398438 10.09375 11.488281 9.980469 C 12.855469 8.1875 12.957031 5.515625 11.730469 3.542969 C 11.164062 2.632812 10.277344 1.832031 9.320312 1.375 C 8.851562 1.152344 8.1875 0.945312 7.753906 0.894531 C 7.679688 0.886719 7.515625 0.863281 7.382812 0.847656 C 7.152344 0.816406 6.730469 0.796875 6.601562 0.808594 M 7.320312 0.886719 C 7.492188 0.910156 7.667969 0.929688 7.703125 0.929688 C 7.742188 0.929688 7.808594 0.941406 7.855469 0.953125 C 7.90625 0.96875 8.011719 0.992188 8.097656 1.007812 C 9.449219 1.253906 10.886719 2.273438 11.679688 3.550781 C 12.066406 4.175781 12.359375 4.957031 12.449219 5.585938 C 12.457031 5.660156 12.476562 5.769531 12.488281 5.828125 C 12.558594 6.167969 12.550781 6.957031 12.472656 7.472656 C 12.324219 8.4375 12.035156 9.125 11.414062 9.996094 C 11.359375 10.078125 11.34375 10.113281 11.34375 10.164062 L 11.34375 10.230469 L 13.214844 12.105469 C 14.980469 13.875 15.085938 13.980469 15.136719 14.085938 C 15.367188 14.558594 14.910156 15.113281 14.441406 14.933594 C 14.257812 14.867188 14.230469 14.84375 12.34375 12.957031 C 11.035156 11.652344 10.488281 11.117188 10.453125 11.105469 C 10.386719 11.085938 10.3125 11.113281 10.199219 11.203125 C 9.6875 11.597656 9.054688 11.902344 8.34375 12.101562 C 8.210938 12.140625 8.140625 12.15625 7.832031 12.214844 C 7.769531 12.226562 7.636719 12.246094 7.535156 12.253906 C 7.433594 12.265625 7.289062 12.28125 7.207031 12.292969 C 7.019531 12.316406 6.703125 12.316406 6.503906 12.292969 C 6.414062 12.28125 6.261719 12.261719 6.160156 12.253906 C 6.058594 12.246094 5.929688 12.226562 5.871094 12.214844 C 5.402344 12.121094 5.214844 12.074219 4.960938 11.988281 C 1.78125 10.878906 0.242188 7.246094 1.648438 4.175781 C 2.375 2.589844 3.976562 1.296875 5.574219 1.007812 C 5.660156 0.992188 5.753906 0.96875 5.78125 0.960938 C 5.808594 0.949219 5.941406 0.933594 6.070312 0.917969 C 6.203125 0.90625 6.382812 0.886719 6.472656 0.875 C 6.722656 0.839844 6.964844 0.84375 7.320312 0.886719 M 6.257812 2.109375 C 6.191406 2.117188 6.105469 2.132812 6.0625 2.144531 C 6.023438 2.15625 5.921875 2.175781 5.832031 2.195312 C 5.082031 2.332031 4.277344 2.773438 3.664062 3.378906 C 1.5625 5.445312 1.996094 8.957031 4.542969 10.460938 C 4.9375 10.695312 5.515625 10.925781 5.824219 10.96875 C 5.863281 10.972656 5.949219 10.992188 6.015625 11.011719 C 6.175781 11.054688 7.304688 11.074219 7.503906 11.035156 C 7.570312 11.023438 7.703125 10.996094 7.800781 10.976562 C 7.898438 10.960938 8.003906 10.933594 8.035156 10.917969 C 8.070312 10.90625 8.128906 10.886719 8.171875 10.878906 C 8.402344 10.828125 8.894531 10.605469 9.214844 10.40625 C 11.859375 8.765625 12.070312 4.984375 9.625 3.042969 C 9.117188 2.636719 8.347656 2.273438 7.835938 2.191406 C 7.773438 2.183594 7.667969 2.160156 7.59375 2.140625 C 7.449219 2.105469 6.515625 2.082031 6.257812 2.109375 M 7.671875 2.203125 C 10.445312 2.785156 11.96875 5.519531 10.996094 8.179688 C 10.578125 9.328125 9.492188 10.394531 8.351562 10.773438 C 8.109375 10.855469 7.855469 10.929688 7.820312 10.929688 C 7.804688 10.929688 7.699219 10.949219 7.585938 10.972656 C 7.007812 11.097656 5.972656 11.011719 5.351562 10.789062 C 2.414062 9.726562 1.414062 6.09375 3.410156 3.726562 C 4.152344 2.847656 5.074219 2.335938 6.265625 2.15625 C 6.289062 2.152344 6.5625 2.148438 6.871094 2.152344 L 7.433594 2.152344 L 7.671875 2.203125 M 6.734375 3.488281 C 6.460938 3.558594 6.308594 3.6875 6.222656 3.9375 C 6.183594 4.039062 6.183594 4.050781 6.175781 4.957031 C 6.167969 5.804688 6.164062 5.871094 6.140625 5.898438 C 6.113281 5.925781 6.042969 5.929688 5.171875 5.9375 C 4.144531 5.945312 4.175781 5.941406 4.019531 6.046875 C 3.621094 6.3125 3.667969 6.933594 4.097656 7.164062 L 4.183594 7.207031 L 6.097656 7.222656 L 6.136719 7.269531 L 6.175781 7.3125 L 6.175781 8.15625 C 6.175781 9.074219 6.179688 9.148438 6.257812 9.316406 C 6.46875 9.773438 7.167969 9.792969 7.390625 9.34375 C 7.480469 9.171875 7.476562 9.191406 7.488281 8.210938 L 7.496094 7.296875 L 7.570312 7.222656 L 8.523438 7.214844 L 9.480469 7.207031 L 9.566406 7.164062 C 10 6.933594 10.042969 6.3125 9.644531 6.046875 C 9.488281 5.941406 9.523438 5.945312 8.492188 5.9375 C 7.621094 5.929688 7.550781 5.925781 7.523438 5.898438 C 7.496094 5.871094 7.496094 5.804688 7.488281 4.957031 C 7.476562 3.929688 7.480469 3.9375 7.351562 3.75 C 7.234375 3.574219 6.921875 3.441406 6.734375 3.488281 M 6.984375 3.558594 C 7.410156 3.703125 7.441406 3.792969 7.441406 4.96875 C 7.441406 5.851562 7.445312 5.917969 7.507812 5.957031 C 7.535156 5.972656 7.769531 5.976562 8.496094 5.984375 L 9.449219 5.992188 L 9.523438 6.027344 C 9.980469 6.253906 9.984375 6.90625 9.527344 7.128906 L 9.433594 7.175781 L 8.503906 7.179688 C 7.992188 7.183594 7.558594 7.1875 7.539062 7.191406 C 7.449219 7.214844 7.449219 7.203125 7.441406 8.199219 C 7.429688 9.207031 7.433594 9.179688 7.324219 9.359375 C 7.113281 9.710938 6.550781 9.710938 6.339844 9.359375 C 6.234375 9.179688 6.234375 9.207031 6.226562 8.1875 L 6.214844 7.265625 L 6.179688 7.226562 L 6.144531 7.191406 L 4.230469 7.175781 L 4.144531 7.132812 C 3.691406 6.910156 3.679688 6.265625 4.125 6.039062 L 4.214844 5.992188 L 5.167969 5.984375 C 6.164062 5.976562 6.167969 5.976562 6.207031 5.90625 C 6.21875 5.886719 6.222656 5.585938 6.222656 5.0625 C 6.222656 4.1875 6.234375 4.019531 6.292969 3.882812 C 6.414062 3.613281 6.722656 3.46875 6.984375 3.558594 "/>
<path style=" stroke:none;fill-rule:evenodd;fill:rgb(67.45098%,69.803922%,75.294118%);fill-opacity:1;" d="M 6.527344 0.785156 C 5.402344 0.867188 4.347656 1.226562 3.507812 1.824219 C 0.0625 4.273438 0.261719 9.417969 3.882812 11.574219 C 4.46875 11.925781 5.304688 12.226562 5.871094 12.296875 C 5.910156 12.300781 6.050781 12.320312 6.183594 12.339844 C 6.523438 12.390625 7.21875 12.390625 7.519531 12.339844 C 7.628906 12.320312 7.761719 12.300781 7.816406 12.296875 C 8.484375 12.222656 9.484375 11.820312 10.089844 11.382812 C 10.316406 11.214844 10.371094 11.183594 10.414062 11.183594 C 10.449219 11.183594 10.792969 11.519531 12.320312 13.046875 C 14.386719 15.109375 14.253906 14.988281 14.519531 15.042969 C 14.960938 15.132812 15.402344 14.621094 15.265625 14.179688 C 15.207031 13.984375 15.207031 13.988281 13.292969 12.070312 C 11.175781 9.953125 11.375 10.183594 11.515625 10 C 12.347656 8.898438 12.761719 7.371094 12.597656 6.007812 C 12.308594 3.574219 10.726562 1.667969 8.464844 1.015625 C 8.320312 0.976562 8.203125 0.949219 7.921875 0.890625 C 7.464844 0.796875 6.925781 0.757812 6.527344 0.785156 M 7.296875 0.824219 C 7.398438 0.835938 7.566406 0.855469 7.671875 0.871094 C 7.78125 0.882812 7.910156 0.90625 7.960938 0.917969 C 8.011719 0.929688 8.101562 0.949219 8.160156 0.960938 C 8.886719 1.085938 9.859375 1.574219 10.558594 2.164062 C 12.851562 4.105469 13.289062 7.660156 11.511719 9.96875 C 11.421875 10.085938 11.402344 10.132812 11.414062 10.1875 C 11.421875 10.21875 11.988281 10.796875 13.289062 12.097656 C 15.335938 14.148438 15.21875 14.019531 15.261719 14.261719 C 15.335938 14.664062 14.914062 15.097656 14.527344 15.023438 C 14.273438 14.976562 14.394531 15.089844 12.34375 13.039062 C 11.324219 12.019531 10.46875 11.179688 10.449219 11.171875 C 10.390625 11.148438 10.34375 11.171875 10.132812 11.324219 C 9.691406 11.640625 9.253906 11.863281 8.695312 12.0625 C 8.453125 12.144531 7.953125 12.261719 7.726562 12.289062 C 7.644531 12.296875 7.507812 12.316406 7.425781 12.332031 C 6.996094 12.40625 6.214844 12.351562 5.535156 12.207031 C 3.652344 11.804688 2.019531 10.34375 1.382812 8.488281 C 0.417969 5.671875 1.714844 2.582031 4.382812 1.34375 C 4.589844 1.25 4.691406 1.207031 4.984375 1.101562 C 5.171875 1.035156 5.476562 0.960938 5.808594 0.898438 C 5.917969 0.878906 6.390625 0.820312 6.59375 0.800781 C 6.769531 0.785156 7.039062 0.792969 7.296875 0.824219 M 6.367188 2.160156 C 4.863281 2.300781 3.433594 3.3125 2.808594 4.683594 C 1.582031 7.371094 3.144531 10.402344 6.039062 10.953125 C 6.371094 11.015625 7.289062 11.023438 7.558594 10.964844 C 7.648438 10.945312 7.753906 10.925781 7.792969 10.917969 C 8.082031 10.875 8.707031 10.636719 9.035156 10.445312 C 10.316406 9.691406 11.117188 8.449219 11.253906 7.007812 C 11.519531 4.199219 9.195312 1.894531 6.367188 2.160156 M 7.574219 2.222656 C 10.320312 2.730469 11.90625 5.441406 10.996094 8.070312 C 10.496094 9.515625 9.148438 10.671875 7.679688 10.921875 C 7.269531 10.988281 7.238281 10.992188 6.832031 10.992188 C 6.421875 10.992188 6.359375 10.988281 5.953125 10.914062 C 3.792969 10.53125 2.214844 8.40625 2.429688 6.167969 C 2.617188 4.21875 4.109375 2.5625 5.960938 2.246094 C 6.039062 2.234375 6.136719 2.214844 6.175781 2.207031 C 6.441406 2.144531 7.199219 2.152344 7.574219 2.222656 M 6.722656 3.457031 C 6.546875 3.492188 6.363281 3.605469 6.28125 3.734375 C 6.152344 3.929688 6.152344 3.898438 6.144531 4.921875 C 6.136719 5.773438 6.132812 5.839844 6.109375 5.867188 C 6.082031 5.894531 6.011719 5.898438 5.148438 5.90625 C 4.308594 5.910156 4.207031 5.914062 4.144531 5.941406 C 3.5 6.191406 3.597656 7.148438 4.28125 7.246094 C 4.34375 7.257812 4.757812 7.261719 5.230469 7.265625 C 5.695312 7.265625 6.078125 7.269531 6.089844 7.277344 C 6.140625 7.3125 6.144531 7.359375 6.144531 8.210938 C 6.144531 8.90625 6.148438 9.082031 6.167969 9.164062 C 6.332031 9.867188 7.261719 9.894531 7.488281 9.207031 C 7.503906 9.160156 7.511719 8.921875 7.519531 8.238281 C 7.527344 7.375 7.53125 7.328125 7.558594 7.296875 C 7.589844 7.265625 7.59375 7.265625 8.429688 7.265625 C 9.324219 7.261719 9.445312 7.253906 9.578125 7.191406 C 10.097656 6.9375 10.074219 6.164062 9.535156 5.949219 C 9.449219 5.914062 9.433594 5.914062 8.515625 5.902344 C 7.648438 5.898438 7.582031 5.894531 7.554688 5.867188 C 7.53125 5.839844 7.527344 5.773438 7.519531 4.921875 C 7.511719 4.027344 7.511719 4.007812 7.476562 3.914062 C 7.398438 3.703125 7.316406 3.613281 7.128906 3.527344 C 6.964844 3.449219 6.859375 3.429688 6.722656 3.457031 M 7.121094 3.546875 C 7.476562 3.71875 7.503906 3.824219 7.503906 5 C 7.503906 5.800781 7.503906 5.839844 7.535156 5.875 L 7.566406 5.910156 L 8.492188 5.921875 C 9.523438 5.929688 9.5 5.929688 9.664062 6.042969 C 10.066406 6.324219 10.003906 6.972656 9.554688 7.179688 L 9.464844 7.222656 L 8.527344 7.230469 C 8.011719 7.238281 7.578125 7.246094 7.5625 7.253906 C 7.507812 7.28125 7.503906 7.316406 7.503906 8.167969 C 7.503906 9.085938 7.496094 9.167969 7.414062 9.335938 C 7.21875 9.71875 6.710938 9.808594 6.390625 9.515625 C 6.175781 9.320312 6.171875 9.289062 6.160156 8.203125 C 6.152344 7.363281 6.148438 7.296875 6.125 7.269531 C 6.097656 7.242188 6.027344 7.238281 5.148438 7.230469 L 4.199219 7.222656 L 4.109375 7.179688 C 3.660156 6.972656 3.601562 6.324219 4 6.042969 C 4.167969 5.925781 4.140625 5.929688 5.167969 5.921875 C 6.078125 5.917969 6.089844 5.917969 6.125 5.882812 L 6.160156 5.851562 L 6.160156 5.007812 C 6.160156 4.097656 6.167969 4.003906 6.246094 3.839844 C 6.402344 3.511719 6.785156 3.382812 7.121094 3.546875 "/>
<path style=" stroke:none;fill-rule:evenodd;fill:rgb(58.039216%,61.568627%,67.45098%);fill-opacity:1;" d="M 6.78125 0.796875 C 6.808594 0.800781 6.859375 0.800781 6.890625 0.796875 C 6.925781 0.792969 6.902344 0.789062 6.839844 0.789062 C 6.777344 0.789062 6.75 0.792969 6.78125 0.796875 M 6.554688 0.8125 C 6.574219 0.816406 6.609375 0.816406 6.628906 0.8125 C 6.648438 0.808594 6.632812 0.804688 6.59375 0.804688 C 6.550781 0.804688 6.535156 0.808594 6.554688 0.8125 M 7.050781 0.8125 C 7.070312 0.816406 7.105469 0.816406 7.125 0.8125 C 7.144531 0.808594 7.128906 0.804688 7.089844 0.804688 C 7.046875 0.804688 7.03125 0.808594 7.050781 0.8125 M 6.378906 0.828125 C 6.398438 0.832031 6.433594 0.832031 6.453125 0.828125 C 6.472656 0.824219 6.457031 0.820312 6.414062 0.820312 C 6.375 0.820312 6.359375 0.824219 6.378906 0.828125 M 7.226562 0.828125 C 7.25 0.832031 7.277344 0.832031 7.292969 0.828125 C 7.308594 0.824219 7.292969 0.820312 7.257812 0.820312 C 7.222656 0.820312 7.207031 0.824219 7.226562 0.828125 M 6.261719 0.84375 C 6.277344 0.847656 6.300781 0.847656 6.316406 0.84375 C 6.332031 0.839844 6.320312 0.835938 6.289062 0.835938 C 6.257812 0.835938 6.246094 0.839844 6.261719 0.84375 M 7.390625 0.847656 C 7.488281 0.867188 7.5625 0.863281 7.480469 0.847656 C 7.445312 0.839844 7.394531 0.835938 7.367188 0.835938 C 7.332031 0.835938 7.339844 0.839844 7.390625 0.847656 M 6.148438 0.859375 C 6.164062 0.863281 6.1875 0.863281 6.203125 0.859375 C 6.21875 0.855469 6.207031 0.851562 6.175781 0.851562 C 6.144531 0.851562 6.132812 0.855469 6.148438 0.859375 M 6.027344 0.875 C 6.046875 0.878906 6.078125 0.878906 6.09375 0.875 C 6.109375 0.871094 6.089844 0.867188 6.054688 0.867188 C 6.019531 0.867188 6.007812 0.871094 6.027344 0.875 M 7.578125 0.875 C 7.601562 0.878906 7.632812 0.878906 7.652344 0.875 C 7.671875 0.871094 7.65625 0.867188 7.617188 0.867188 C 7.578125 0.867188 7.558594 0.871094 7.578125 0.875 M 5.867188 0.890625 C 5.886719 0.894531 5.917969 0.894531 5.933594 0.890625 C 5.949219 0.886719 5.929688 0.882812 5.894531 0.882812 C 5.859375 0.882812 5.847656 0.886719 5.867188 0.890625 M 7.746094 0.890625 C 7.761719 0.894531 7.789062 0.894531 7.804688 0.890625 C 7.820312 0.886719 7.808594 0.882812 7.777344 0.882812 C 7.746094 0.882812 7.734375 0.886719 7.746094 0.890625 M 5.273438 1.015625 C 5.210938 1.039062 5.171875 1.054688 5.183594 1.054688 C 5.195312 1.054688 5.261719 1.039062 5.328125 1.015625 C 5.394531 0.996094 5.433594 0.976562 5.414062 0.976562 C 5.398438 0.980469 5.332031 0.996094 5.273438 1.015625 M 8.335938 1.015625 C 8.402344 1.039062 8.46875 1.054688 8.480469 1.054688 C 8.492188 1.054688 8.449219 1.035156 8.382812 1.015625 C 8.316406 0.992188 8.253906 0.976562 8.238281 0.976562 C 8.226562 0.976562 8.269531 0.996094 8.335938 1.015625 M 4.984375 1.105469 C 4.949219 1.121094 4.9375 1.132812 4.957031 1.125 C 5.015625 1.109375 5.097656 1.074219 5.070312 1.074219 C 5.058594 1.074219 5.019531 1.089844 4.984375 1.105469 M 8.578125 1.078125 C 8.582031 1.082031 8.925781 1.207031 8.988281 1.226562 C 9.011719 1.234375 9.011719 1.230469 8.992188 1.21875 C 8.945312 1.1875 8.554688 1.054688 8.578125 1.078125 M 4.761719 1.179688 C 4.703125 1.203125 4.65625 1.222656 4.660156 1.226562 C 4.664062 1.230469 4.722656 1.210938 4.792969 1.183594 C 4.863281 1.160156 4.910156 1.136719 4.894531 1.136719 C 4.882812 1.136719 4.824219 1.15625 4.761719 1.179688 M 9.167969 1.304688 C 9.207031 1.324219 9.246094 1.34375 9.257812 1.34375 C 9.265625 1.34375 9.238281 1.324219 9.199219 1.304688 C 9.160156 1.28125 9.121094 1.265625 9.113281 1.265625 C 9.101562 1.265625 9.128906 1.28125 9.167969 1.304688 M 4.433594 1.320312 C 4.410156 1.332031 4.398438 1.34375 4.40625 1.34375 C 4.417969 1.34375 4.441406 1.332031 4.464844 1.320312 C 4.484375 1.308594 4.496094 1.296875 4.488281 1.296875 C 4.480469 1.296875 4.453125 1.308594 4.433594 1.320312 M 9.28125 1.351562 C 9.296875 1.363281 9.550781 1.488281 9.550781 1.480469 C 9.550781 1.472656 9.304688 1.34375 9.285156 1.34375 C 9.28125 1.34375 9.277344 1.347656 9.28125 1.351562 M 4.03125 1.519531 C 3.164062 2.015625 2.414062 2.734375 1.898438 3.570312 C 1.792969 3.738281 1.65625 4 1.671875 4 C 1.675781 4 1.710938 3.941406 1.746094 3.871094 C 2.207031 2.949219 3.097656 2.054688 4.113281 1.492188 C 4.195312 1.445312 4.257812 1.410156 4.246094 1.40625 C 4.238281 1.40625 4.140625 1.460938 4.03125 1.519531 M 9.601562 1.507812 C 9.601562 1.511719 9.652344 1.546875 9.714844 1.585938 C 9.78125 1.621094 9.847656 1.664062 9.867188 1.675781 C 9.886719 1.6875 9.902344 1.695312 9.902344 1.691406 C 9.902344 1.6875 9.839844 1.644531 9.765625 1.597656 C 9.59375 1.496094 9.601562 1.5 9.601562 1.507812 M 9.921875 1.699219 C 9.925781 1.707031 10.003906 1.761719 10.097656 1.828125 C 10.855469 2.359375 11.519531 3.105469 11.9375 3.898438 C 11.984375 3.988281 12.023438 4.058594 12.027344 4.058594 C 12.035156 4.050781 11.84375 3.699219 11.738281 3.527344 C 11.34375 2.886719 10.746094 2.261719 10.105469 1.816406 C 9.964844 1.71875 9.902344 1.683594 9.921875 1.699219 M 6.347656 2.15625 C 6.375 2.160156 6.421875 2.160156 6.453125 2.15625 C 6.480469 2.152344 6.457031 2.148438 6.398438 2.148438 C 6.34375 2.148438 6.320312 2.152344 6.347656 2.15625 M 7.210938 2.15625 C 7.242188 2.160156 7.289062 2.160156 7.316406 2.15625 C 7.34375 2.152344 7.320312 2.148438 7.265625 2.148438 C 7.207031 2.148438 7.183594 2.152344 7.210938 2.15625 M 6.144531 2.175781 C 6.117188 2.1875 6.128906 2.1875 6.183594 2.179688 C 6.226562 2.175781 6.265625 2.167969 6.269531 2.164062 C 6.285156 2.15625 6.183594 2.164062 6.144531 2.175781 M 7.394531 2.164062 C 7.398438 2.167969 7.4375 2.175781 7.480469 2.179688 C 7.535156 2.1875 7.546875 2.1875 7.519531 2.175781 C 7.480469 2.164062 7.378906 2.15625 7.394531 2.164062 M 5.992188 2.207031 C 5.949219 2.21875 5.949219 2.21875 5.984375 2.21875 C 6.007812 2.21875 6.042969 2.214844 6.0625 2.207031 C 6.117188 2.191406 6.058594 2.191406 5.992188 2.207031 M 5.6875 2.273438 C 5.667969 2.28125 5.664062 2.285156 5.679688 2.285156 C 5.691406 2.285156 5.71875 2.28125 5.734375 2.273438 C 5.757812 2.261719 5.757812 2.257812 5.742188 2.257812 C 5.730469 2.257812 5.707031 2.265625 5.6875 2.273438 M 7.929688 2.273438 C 7.945312 2.28125 7.972656 2.285156 7.984375 2.285156 C 8 2.285156 7.996094 2.28125 7.976562 2.273438 C 7.957031 2.265625 7.933594 2.257812 7.921875 2.257812 C 7.90625 2.257812 7.90625 2.261719 7.929688 2.273438 M 5.433594 2.34375 C 5.371094 2.371094 5.398438 2.371094 5.472656 2.34375 C 5.503906 2.332031 5.515625 2.320312 5.503906 2.320312 C 5.492188 2.320312 5.457031 2.332031 5.433594 2.34375 M 8.191406 2.34375 C 8.265625 2.371094 8.292969 2.371094 8.230469 2.34375 C 8.207031 2.332031 8.171875 2.320312 8.160156 2.320312 C 8.148438 2.320312 8.160156 2.332031 8.191406 2.34375 M 5.328125 2.378906 C 5.316406 2.382812 5.265625 2.402344 5.21875 2.417969 C 5.171875 2.4375 5.136719 2.453125 5.140625 2.457031 C 5.144531 2.460938 5.363281 2.386719 5.375 2.375 C 5.382812 2.367188 5.359375 2.367188 5.328125 2.378906 M 8.289062 2.371094 C 8.289062 2.382812 8.484375 2.449219 8.492188 2.441406 C 8.496094 2.4375 8.460938 2.421875 8.414062 2.40625 C 8.367188 2.390625 8.320312 2.375 8.308594 2.371094 C 8.296875 2.367188 8.289062 2.367188 8.289062 2.371094 M 8.742188 2.566406 C 9.59375 2.980469 10.34375 3.691406 10.761719 4.484375 C 10.808594 4.574219 10.847656 4.640625 10.847656 4.632812 C 10.851562 4.480469 10.246094 3.660156 9.871094 3.316406 C 9.496094 2.972656 8.671875 2.441406 8.519531 2.449219 C 8.511719 2.449219 8.613281 2.5 8.742188 2.566406 M 4.953125 2.535156 C 4.871094 2.574219 4.8125 2.605469 4.816406 2.605469 C 4.824219 2.605469 4.894531 2.574219 4.976562 2.535156 C 5.058594 2.496094 5.121094 2.464844 5.113281 2.464844 C 5.101562 2.464844 5.03125 2.496094 4.953125 2.535156 M 4.644531 2.691406 C 4.566406 2.738281 4.484375 2.789062 4.460938 2.804688 C 4.441406 2.820312 4.457031 2.816406 4.496094 2.792969 C 4.535156 2.769531 4.621094 2.722656 4.683594 2.6875 C 4.785156 2.628906 4.816406 2.609375 4.796875 2.609375 C 4.792969 2.609375 4.726562 2.644531 4.644531 2.691406 M 4.246094 2.945312 C 3.664062 3.367188 3.136719 3.980469 2.847656 4.566406 C 2.734375 4.800781 2.648438 5.007812 2.660156 5.015625 C 2.664062 5.019531 2.6875 4.972656 2.710938 4.90625 C 2.992188 4.179688 3.578125 3.4375 4.246094 2.960938 C 4.402344 2.851562 4.425781 2.832031 4.414062 2.832031 C 4.40625 2.832031 4.332031 2.882812 4.246094 2.945312 M 6.953125 3.496094 C 6.996094 3.507812 7.035156 3.515625 7.035156 3.511719 C 7.046875 3.503906 6.941406 3.472656 6.90625 3.472656 C 6.886719 3.472656 6.90625 3.484375 6.953125 3.496094 M 7.089844 3.542969 C 7.109375 3.554688 7.136719 3.566406 7.144531 3.566406 C 7.152344 3.566406 7.140625 3.554688 7.121094 3.542969 C 7.097656 3.53125 7.074219 3.519531 7.0625 3.519531 C 7.054688 3.519531 7.066406 3.53125 7.089844 3.542969 M 6.417969 3.613281 C 6.320312 3.6875 6.191406 3.902344 6.191406 3.996094 C 6.191406 4.011719 6.210938 3.976562 6.230469 3.917969 C 6.277344 3.785156 6.351562 3.675781 6.433594 3.621094 C 6.488281 3.582031 6.507812 3.566406 6.492188 3.566406 C 6.488281 3.566406 6.457031 3.589844 6.417969 3.613281 M 7.167969 3.574219 C 7.167969 3.578125 7.195312 3.597656 7.230469 3.621094 C 7.308594 3.675781 7.398438 3.804688 7.441406 3.929688 C 7.460938 3.992188 7.46875 4.003906 7.464844 3.96875 C 7.445312 3.839844 7.320312 3.65625 7.21875 3.59375 C 7.191406 3.578125 7.167969 3.570312 7.167969 3.574219 M 6.179688 4.078125 C 6.179688 4.109375 6.183594 4.125 6.1875 4.109375 C 6.191406 4.09375 6.191406 4.066406 6.1875 4.050781 C 6.183594 4.035156 6.179688 4.050781 6.179688 4.078125 M 1.578125 4.179688 C 1.5 4.34375 1.402344 4.59375 1.414062 4.601562 C 1.414062 4.605469 1.441406 4.542969 1.472656 4.46875 C 1.5 4.390625 1.550781 4.265625 1.585938 4.195312 C 1.621094 4.121094 1.644531 4.054688 1.640625 4.054688 C 1.640625 4.050781 1.609375 4.105469 1.578125 4.179688 M 12.035156 4.089844 C 12.035156 4.097656 12.050781 4.136719 12.070312 4.175781 C 12.09375 4.214844 12.109375 4.242188 12.109375 4.230469 C 12.109375 4.222656 12.09375 4.183594 12.070312 4.144531 C 12.050781 4.105469 12.035156 4.078125 12.035156 4.089844 M 7.496094 4.996094 C 7.496094 5.8125 7.496094 5.871094 7.523438 5.898438 C 7.550781 5.925781 7.609375 5.929688 8.445312 5.929688 L 9.335938 5.929688 L 8.453125 5.921875 C 7.632812 5.914062 7.566406 5.910156 7.539062 5.882812 C 7.515625 5.855469 7.511719 5.792969 7.503906 4.988281 L 7.496094 4.121094 L 7.496094 4.996094 M 6.160156 4.996094 L 6.160156 5.851562 L 6.125 5.886719 C 6.085938 5.917969 6.082031 5.917969 5.207031 5.925781 L 4.328125 5.929688 L 5.210938 5.933594 L 6.097656 5.9375 L 6.175781 5.859375 L 6.175781 5 C 6.175781 4.53125 6.171875 4.144531 6.167969 4.144531 C 6.164062 4.144531 6.160156 4.527344 6.160156 4.996094 M 12.117188 4.273438 C 12.132812 4.324219 12.179688 4.433594 12.1875 4.425781 C 12.191406 4.421875 12.175781 4.382812 12.152344 4.335938 C 12.128906 4.285156 12.113281 4.257812 12.117188 4.273438 M 12.191406 4.449219 C 12.195312 4.46875 12.382812 5.015625 12.382812 4.996094 C 12.382812 4.972656 12.230469 4.5 12.207031 4.464844 C 12.199219 4.453125 12.191406 4.445312 12.191406 4.449219 M 1.355469 4.746094 C 1.332031 4.816406 1.3125 4.878906 1.3125 4.886719 C 1.3125 4.898438 1.335938 4.84375 1.359375 4.769531 C 1.386719 4.695312 1.40625 4.632812 1.402344 4.628906 C 1.398438 4.625 1.375 4.679688 1.355469 4.746094 M 10.847656 4.664062 C 10.847656 4.671875 10.867188 4.710938 10.886719 4.753906 C 10.910156 4.792969 10.925781 4.816406 10.925781 4.808594 C 10.925781 4.800781 10.910156 4.757812 10.886719 4.71875 C 10.867188 4.679688 10.847656 4.65625 10.847656 4.664062 M 10.929688 4.839844 C 10.929688 4.847656 10.945312 4.886719 10.960938 4.921875 C 10.976562 4.957031 10.988281 4.964844 10.980469 4.945312 C 10.96875 4.898438 10.929688 4.816406 10.929688 4.839844 M 1.273438 5.015625 C 1.257812 5.074219 1.25 5.128906 1.253906 5.128906 C 1.257812 5.132812 1.273438 5.089844 1.285156 5.03125 C 1.300781 4.972656 1.308594 4.921875 1.308594 4.917969 C 1.304688 4.914062 1.289062 4.957031 1.273438 5.015625 M 11 5.019531 C 11.03125 5.125 11.101562 5.316406 11.101562 5.304688 C 11.105469 5.28125 11.011719 5.007812 11 4.992188 C 10.992188 4.988281 10.992188 5 11 5.019531 M 12.386719 5.039062 C 12.386719 5.082031 12.414062 5.148438 12.414062 5.113281 C 12.414062 5.09375 12.40625 5.066406 12.398438 5.046875 C 12.390625 5.027344 12.386719 5.023438 12.386719 5.039062 M 2.601562 5.164062 C 2.578125 5.230469 2.5625 5.296875 2.5625 5.304688 C 2.5625 5.3125 2.582031 5.257812 2.609375 5.183594 C 2.632812 5.109375 2.652344 5.046875 2.648438 5.042969 C 2.644531 5.039062 2.625 5.09375 2.601562 5.164062 M 12.417969 5.175781 C 12.417969 5.195312 12.425781 5.226562 12.433594 5.246094 C 12.441406 5.28125 12.445312 5.28125 12.445312 5.257812 C 12.445312 5.238281 12.4375 5.207031 12.433594 5.183594 C 12.421875 5.152344 12.417969 5.152344 12.417969 5.175781 M 2.515625 5.460938 C 2.496094 5.535156 2.480469 5.609375 2.480469 5.621094 C 2.480469 5.628906 2.5 5.574219 2.519531 5.496094 C 2.542969 5.417969 2.558594 5.34375 2.554688 5.335938 C 2.550781 5.328125 2.535156 5.382812 2.515625 5.460938 M 11.113281 5.375 C 11.121094 5.40625 11.128906 5.445312 11.136719 5.464844 C 11.148438 5.484375 11.148438 5.476562 11.140625 5.441406 C 11.136719 5.410156 11.125 5.371094 11.117188 5.351562 C 11.109375 5.328125 11.105469 5.335938 11.113281 5.375 M 1.160156 5.527344 C 1.144531 5.621094 1.132812 5.699219 1.136719 5.703125 C 1.140625 5.707031 1.160156 5.636719 1.175781 5.542969 C 1.191406 5.449219 1.199219 5.371094 1.195312 5.367188 C 1.191406 5.363281 1.175781 5.4375 1.160156 5.527344 M 12.472656 5.425781 C 12.480469 5.464844 12.488281 5.523438 12.496094 5.550781 C 12.507812 5.597656 12.507812 5.589844 12.5 5.523438 C 12.496094 5.476562 12.488281 5.417969 12.480469 5.394531 C 12.46875 5.363281 12.46875 5.371094 12.472656 5.425781 M 11.15625 5.527344 C 11.15625 5.546875 11.160156 5.578125 11.167969 5.601562 C 11.179688 5.632812 11.179688 5.632812 11.179688 5.609375 C 11.179688 5.589844 11.175781 5.558594 11.167969 5.535156 C 11.15625 5.503906 11.15625 5.503906 11.15625 5.527344 M 12.515625 5.664062 C 12.515625 5.695312 12.519531 5.707031 12.523438 5.691406 C 12.527344 5.675781 12.527344 5.652344 12.523438 5.636719 C 12.519531 5.621094 12.515625 5.632812 12.515625 5.664062 M 2.457031 5.710938 C 2.449219 5.75 2.449219 5.78125 2.453125 5.785156 C 2.457031 5.789062 2.464844 5.761719 2.46875 5.726562 C 2.476562 5.691406 2.476562 5.65625 2.472656 5.652344 C 2.46875 5.648438 2.460938 5.675781 2.457031 5.710938 M 11.1875 5.671875 C 11.1875 5.691406 11.191406 5.722656 11.199219 5.742188 C 11.210938 5.777344 11.210938 5.777344 11.210938 5.753906 C 11.210938 5.734375 11.207031 5.703125 11.199219 5.679688 C 11.191406 5.648438 11.1875 5.648438 11.1875 5.671875 M 1.113281 5.824219 C 1.105469 5.878906 1.105469 5.925781 1.109375 5.929688 C 1.113281 5.933594 1.121094 5.894531 1.125 5.839844 C 1.132812 5.785156 1.132812 5.738281 1.128906 5.734375 C 1.125 5.730469 1.117188 5.769531 1.113281 5.824219 M 12.53125 5.761719 C 12.53125 5.78125 12.535156 5.828125 12.542969 5.863281 C 12.550781 5.90625 12.554688 5.914062 12.558594 5.886719 C 12.558594 5.867188 12.550781 5.820312 12.542969 5.785156 C 12.535156 5.742188 12.53125 5.734375 12.53125 5.761719 M 11.226562 5.886719 C 11.230469 5.945312 11.238281 5.996094 11.242188 6 C 11.253906 6.011719 11.246094 5.882812 11.230469 5.832031 C 11.222656 5.800781 11.222656 5.824219 11.226562 5.886719 M 2.417969 5.953125 C 2.417969 5.984375 2.421875 5.996094 2.425781 5.980469 C 2.429688 5.964844 2.429688 5.9375 2.425781 5.925781 C 2.421875 5.910156 2.417969 5.921875 2.417969 5.953125 M 12.566406 6.015625 C 12.566406 6.0625 12.566406 6.085938 12.570312 6.058594 C 12.574219 6.035156 12.574219 5.996094 12.570312 5.972656 C 12.566406 5.949219 12.566406 5.96875 12.566406 6.015625 M 1.09375 6.03125 C 1.09375 6.082031 1.097656 6.101562 1.097656 6.074219 C 1.101562 6.050781 1.101562 6.011719 1.097656 5.988281 C 1.097656 5.964844 1.09375 5.984375 1.09375 6.03125 M 4.015625 6.035156 C 3.839844 6.152344 3.742188 6.332031 3.734375 6.558594 L 3.730469 6.679688 L 3.742188 6.558594 C 3.773438 6.289062 3.871094 6.128906 4.085938 6.003906 C 4.121094 5.984375 4.144531 5.96875 4.132812 5.96875 C 4.125 5.96875 4.070312 6 4.015625 6.035156 M 9.578125 6.003906 C 9.695312 6.074219 9.746094 6.117188 9.808594 6.214844 C 9.84375 6.265625 9.871094 6.300781 9.871094 6.292969 C 9.871094 6.222656 9.601562 5.96875 9.53125 5.96875 C 9.519531 5.96875 9.542969 5.984375 9.578125 6.003906 M 2.40625 6.078125 C 2.40625 6.121094 2.40625 6.136719 2.410156 6.117188 C 2.414062 6.097656 2.414062 6.0625 2.410156 6.042969 C 2.40625 6.023438 2.40625 6.039062 2.40625 6.078125 M 11.253906 6.097656 C 11.253906 6.144531 11.253906 6.164062 11.257812 6.140625 C 11.261719 6.117188 11.261719 6.078125 11.257812 6.050781 C 11.253906 6.027344 11.253906 6.046875 11.253906 6.097656 M 12.582031 6.230469 C 12.582031 6.300781 12.585938 6.328125 12.585938 6.292969 C 12.589844 6.253906 12.589844 6.195312 12.585938 6.164062 C 12.585938 6.128906 12.582031 6.160156 12.582031 6.230469 M 1.078125 6.246094 C 1.078125 6.320312 1.082031 6.34375 1.082031 6.308594 C 1.085938 6.269531 1.085938 6.210938 1.082031 6.179688 C 1.082031 6.148438 1.078125 6.175781 1.078125 6.246094 M 2.390625 6.246094 C 2.390625 6.300781 2.390625 6.320312 2.394531 6.292969 C 2.398438 6.261719 2.398438 6.21875 2.394531 6.195312 C 2.390625 6.171875 2.390625 6.195312 2.390625 6.246094 M 11.269531 6.265625 C 11.269531 6.308594 11.273438 6.324219 11.277344 6.300781 C 11.277344 6.277344 11.277344 6.238281 11.273438 6.21875 C 11.269531 6.199219 11.269531 6.21875 11.269531 6.265625 M 2.375 6.574219 C 2.375 6.703125 2.375 6.753906 2.378906 6.691406 C 2.382812 6.628906 2.382812 6.523438 2.378906 6.460938 C 2.375 6.394531 2.375 6.449219 2.375 6.574219 M 11.285156 6.574219 C 11.285156 6.703125 11.289062 6.753906 11.292969 6.691406 C 11.292969 6.628906 11.292969 6.523438 11.292969 6.460938 C 11.289062 6.394531 11.285156 6.449219 11.285156 6.574219 M 12.597656 6.617188 C 12.597656 6.757812 12.601562 6.8125 12.605469 6.738281 C 12.605469 6.667969 12.605469 6.550781 12.605469 6.484375 C 12.601562 6.414062 12.597656 6.476562 12.597656 6.617188 M 1.0625 6.585938 C 1.0625 6.699219 1.066406 6.742188 1.066406 6.683594 C 1.070312 6.625 1.070312 6.53125 1.066406 6.476562 C 1.066406 6.421875 1.0625 6.46875 1.0625 6.585938 M 9.917969 6.601562 C 9.910156 6.671875 9.902344 6.746094 9.898438 6.769531 C 9.890625 6.789062 9.898438 6.777344 9.914062 6.734375 C 9.925781 6.695312 9.933594 6.625 9.933594 6.566406 L 9.929688 6.472656 L 9.917969 6.601562 M 3.75 6.734375 C 3.78125 6.914062 4.027344 7.199219 4.152344 7.199219 C 4.160156 7.199219 4.128906 7.175781 4.078125 7.152344 C 3.921875 7.066406 3.835938 6.957031 3.773438 6.769531 C 3.753906 6.714844 3.746094 6.699219 3.75 6.734375 M 1.078125 6.921875 C 1.078125 6.992188 1.082031 7.015625 1.082031 6.980469 C 1.085938 6.941406 1.085938 6.882812 1.082031 6.851562 C 1.082031 6.820312 1.078125 6.847656 1.078125 6.921875 M 2.390625 6.902344 C 2.390625 6.957031 2.390625 6.976562 2.394531 6.949219 C 2.398438 6.917969 2.398438 6.875 2.394531 6.851562 C 2.390625 6.828125 2.390625 6.851562 2.390625 6.902344 M 9.835938 6.902344 C 9.78125 7.007812 9.699219 7.089844 9.585938 7.152344 C 9.535156 7.175781 9.503906 7.199219 9.511719 7.199219 C 9.605469 7.199219 9.933594 6.871094 9.882812 6.824219 C 9.882812 6.820312 9.859375 6.855469 9.835938 6.902344 M 11.269531 6.886719 C 11.269531 6.933594 11.273438 6.949219 11.277344 6.921875 C 11.277344 6.898438 11.277344 6.863281 11.273438 6.84375 C 11.269531 6.824219 11.269531 6.84375 11.269531 6.886719 M 12.582031 6.992188 C 12.582031 7.058594 12.585938 7.085938 12.585938 7.050781 C 12.589844 7.019531 12.589844 6.964844 12.585938 6.933594 C 12.585938 6.898438 12.582031 6.925781 12.582031 6.992188 M 11.253906 7.070312 C 11.253906 7.121094 11.253906 7.140625 11.257812 7.117188 C 11.261719 7.09375 11.261719 7.050781 11.257812 7.027344 C 11.253906 7.003906 11.253906 7.023438 11.253906 7.070312 M 2.40625 7.070312 C 2.40625 7.113281 2.40625 7.128906 2.410156 7.109375 C 2.414062 7.089844 2.414062 7.054688 2.410156 7.035156 C 2.40625 7.015625 2.40625 7.03125 2.40625 7.070312 M 1.09375 7.136719 C 1.09375 7.183594 1.097656 7.203125 1.097656 7.179688 C 1.101562 7.15625 1.101562 7.117188 1.097656 7.09375 C 1.097656 7.066406 1.09375 7.085938 1.09375 7.136719 M 12.5625 7.183594 C 12.5625 7.222656 12.566406 7.238281 12.570312 7.21875 C 12.574219 7.199219 12.574219 7.167969 12.570312 7.148438 C 12.566406 7.128906 12.5625 7.144531 12.5625 7.183594 M 2.421875 7.207031 C 2.421875 7.242188 2.421875 7.253906 2.425781 7.234375 C 2.429688 7.214844 2.429688 7.1875 2.425781 7.171875 C 2.421875 7.15625 2.417969 7.171875 2.421875 7.207031 M 11.234375 7.222656 C 11.234375 7.257812 11.238281 7.273438 11.242188 7.25 C 11.246094 7.230469 11.246094 7.203125 11.242188 7.1875 C 11.238281 7.171875 11.234375 7.1875 11.234375 7.222656 M 4.691406 7.226562 C 4.9375 7.230469 5.335938 7.230469 5.578125 7.226562 C 5.824219 7.226562 5.625 7.222656 5.136719 7.222656 C 4.648438 7.222656 4.449219 7.226562 4.691406 7.226562 M 8.101562 7.226562 C 8.347656 7.230469 8.742188 7.230469 8.980469 7.226562 C 9.21875 7.226562 9.019531 7.222656 8.535156 7.222656 C 8.050781 7.222656 7.855469 7.226562 8.101562 7.226562 M 1.109375 7.28125 C 1.109375 7.3125 1.109375 7.324219 1.113281 7.308594 C 1.117188 7.292969 1.117188 7.265625 1.113281 7.253906 C 1.109375 7.238281 1.109375 7.25 1.109375 7.28125 M 6.074219 7.242188 C 6.152344 7.257812 6.152344 7.246094 6.160156 8.160156 L 6.167969 9.015625 L 6.171875 8.167969 C 6.175781 7.230469 6.175781 7.226562 6.074219 7.234375 L 6.039062 7.238281 L 6.074219 7.242188 M 7.53125 7.261719 C 7.515625 7.277344 7.503906 7.296875 7.503906 7.304688 C 7.503906 7.3125 7.511719 7.304688 7.523438 7.289062 C 7.535156 7.277344 7.566406 7.257812 7.59375 7.25 C 7.640625 7.234375 7.640625 7.234375 7.597656 7.234375 C 7.574219 7.234375 7.546875 7.246094 7.53125 7.261719 M 12.546875 7.320312 C 12.546875 7.355469 12.550781 7.367188 12.554688 7.347656 C 12.558594 7.328125 12.558594 7.300781 12.554688 7.285156 C 12.550781 7.269531 12.546875 7.285156 12.546875 7.320312 M 11.210938 7.363281 C 11.203125 7.398438 11.203125 7.429688 11.207031 7.433594 C 11.210938 7.4375 11.21875 7.414062 11.222656 7.375 C 11.230469 7.339844 11.230469 7.304688 11.226562 7.300781 C 11.222656 7.296875 11.214844 7.324219 11.210938 7.363281 M 7.496094 8.183594 C 7.496094 8.660156 7.496094 8.851562 7.5 8.609375 C 7.503906 8.371094 7.503906 7.980469 7.5 7.746094 C 7.496094 7.511719 7.496094 7.707031 7.496094 8.183594 M 1.125 7.390625 C 1.125 7.421875 1.128906 7.433594 1.132812 7.421875 C 1.136719 7.40625 1.136719 7.378906 1.132812 7.363281 C 1.128906 7.347656 1.125 7.359375 1.125 7.390625 M 12.53125 7.441406 C 12.53125 7.472656 12.535156 7.484375 12.539062 7.46875 C 12.542969 7.453125 12.542969 7.425781 12.539062 7.410156 C 12.535156 7.398438 12.53125 7.410156 12.53125 7.441406 M 2.46875 7.480469 C 2.46875 7.496094 2.472656 7.53125 2.480469 7.550781 C 2.488281 7.582031 2.492188 7.585938 2.492188 7.558594 C 2.492188 7.542969 2.488281 7.511719 2.480469 7.488281 C 2.46875 7.457031 2.46875 7.453125 2.46875 7.480469 M 12.492188 7.664062 C 12.476562 7.753906 12.464844 7.832031 12.46875 7.835938 C 12.480469 7.84375 12.53125 7.542969 12.527344 7.519531 C 12.523438 7.511719 12.507812 7.574219 12.492188 7.664062 M 11.148438 7.652344 C 11.132812 7.714844 11.121094 7.765625 11.125 7.769531 C 11.128906 7.773438 11.144531 7.726562 11.160156 7.664062 C 11.175781 7.601562 11.183594 7.546875 11.179688 7.542969 C 11.175781 7.539062 11.160156 7.589844 11.148438 7.652344 M 1.15625 7.585938 C 1.15625 7.605469 1.160156 7.644531 1.167969 7.671875 C 1.179688 7.714844 1.179688 7.714844 1.179688 7.679688 C 1.179688 7.65625 1.175781 7.617188 1.167969 7.59375 C 1.15625 7.550781 1.15625 7.546875 1.15625 7.585938 M 1.1875 7.75 C 1.183594 7.789062 1.265625 8.132812 1.273438 8.125 C 1.277344 8.121094 1.261719 8.042969 1.242188 7.949219 C 1.21875 7.859375 1.199219 7.769531 1.195312 7.753906 C 1.1875 7.722656 1.1875 7.722656 1.1875 7.75 M 2.546875 7.808594 C 2.546875 7.820312 2.550781 7.847656 2.558594 7.863281 C 2.570312 7.882812 2.574219 7.886719 2.574219 7.871094 C 2.574219 7.859375 2.566406 7.832031 2.558594 7.816406 C 2.550781 7.796875 2.546875 7.792969 2.546875 7.808594 M 11.089844 7.859375 C 11.078125 7.894531 11.074219 7.925781 11.078125 7.929688 C 11.078125 7.933594 11.089844 7.90625 11.101562 7.871094 C 11.113281 7.835938 11.121094 7.800781 11.117188 7.796875 C 11.113281 7.792969 11.101562 7.820312 11.089844 7.859375 M 12.410156 8.035156 C 12.386719 8.132812 12.371094 8.214844 12.375 8.21875 C 12.378906 8.222656 12.398438 8.144531 12.425781 8.046875 C 12.449219 7.949219 12.464844 7.867188 12.460938 7.863281 C 12.457031 7.859375 12.433594 7.9375 12.410156 8.035156 M 2.613281 8.019531 C 2.617188 8.03125 2.632812 8.078125 2.648438 8.125 C 2.664062 8.171875 2.679688 8.207031 2.679688 8.203125 C 2.691406 8.195312 2.625 8 2.613281 8 C 2.609375 8 2.609375 8.007812 2.613281 8.019531 M 10.960938 8.230469 C 10.625 9.121094 9.875 9.976562 9.015625 10.457031 C 8.957031 10.488281 8.910156 10.519531 8.910156 10.523438 C 8.910156 10.535156 9.085938 10.4375 9.273438 10.3125 C 9.910156 9.894531 10.476562 9.269531 10.800781 8.625 C 10.910156 8.402344 11.03125 8.113281 11.019531 8.101562 C 11.015625 8.097656 10.992188 8.15625 10.960938 8.230469 M 1.289062 8.191406 C 1.300781 8.253906 1.339844 8.371094 1.34375 8.34375 C 1.34375 8.335938 1.328125 8.285156 1.3125 8.230469 C 1.292969 8.179688 1.285156 8.160156 1.289062 8.191406 M 2.6875 8.230469 C 2.6875 8.25 2.753906 8.402344 2.761719 8.394531 C 2.765625 8.390625 2.75 8.351562 2.730469 8.300781 C 2.707031 8.253906 2.6875 8.222656 2.6875 8.230469 M 12.277344 8.476562 C 12.234375 8.605469 12.191406 8.726562 12.183594 8.742188 C 12.179688 8.761719 12.183594 8.761719 12.195312 8.734375 C 12.226562 8.683594 12.371094 8.269531 12.363281 8.253906 C 12.363281 8.246094 12.324219 8.347656 12.277344 8.476562 M 2.769531 8.421875 C 2.769531 8.425781 2.8125 8.523438 2.871094 8.636719 C 3.230469 9.351562 3.929688 10.074219 4.660156 10.480469 C 4.816406 10.566406 4.761719 10.523438 4.570312 10.410156 C 3.855469 9.980469 3.25 9.347656 2.882812 8.632812 C 2.820312 8.507812 2.769531 8.414062 2.769531 8.421875 M 1.375 8.46875 C 1.375 8.488281 1.476562 8.753906 1.480469 8.746094 C 1.484375 8.746094 1.464844 8.679688 1.4375 8.605469 C 1.394531 8.480469 1.375 8.445312 1.375 8.46875 M 1.488281 8.769531 C 1.488281 8.789062 1.570312 8.976562 1.578125 8.972656 C 1.582031 8.96875 1.5625 8.917969 1.539062 8.863281 C 1.511719 8.804688 1.488281 8.765625 1.488281 8.769531 M 12.128906 8.867188 C 12.109375 8.910156 12.097656 8.953125 12.101562 8.953125 C 12.105469 8.957031 12.121094 8.921875 12.140625 8.878906 C 12.160156 8.832031 12.171875 8.792969 12.171875 8.789062 C 12.167969 8.785156 12.148438 8.820312 12.128906 8.867188 M 12.015625 9.117188 C 11.875 9.402344 11.664062 9.746094 11.484375 9.980469 C 11.402344 10.089844 11.382812 10.136719 11.398438 10.195312 C 11.40625 10.214844 12.246094 11.066406 13.265625 12.089844 C 14.664062 13.492188 15.128906 13.964844 15.167969 14.03125 C 15.195312 14.082031 15.214844 14.113281 15.214844 14.101562 C 15.214844 14.039062 14.945312 13.757812 13.273438 12.078125 C 11.972656 10.777344 11.421875 10.21875 11.414062 10.1875 C 11.402344 10.128906 11.421875 10.082031 11.5625 9.890625 C 11.75 9.640625 12.117188 9.007812 12.09375 8.984375 C 12.089844 8.980469 12.054688 9.039062 12.015625 9.117188 M 1.585938 8.996094 C 1.585938 9.003906 1.625 9.09375 1.679688 9.195312 C 2.082031 10 2.730469 10.746094 3.503906 11.304688 C 3.691406 11.4375 3.96875 11.613281 3.96875 11.59375 C 3.96875 11.589844 3.90625 11.550781 3.828125 11.503906 C 2.972656 10.992188 2.1875 10.144531 1.710938 9.222656 C 1.640625 9.09375 1.585938 8.988281 1.585938 8.996094 M 6.179688 9.089844 C 6.179688 9.117188 6.183594 9.132812 6.1875 9.117188 C 6.191406 9.101562 6.191406 9.074219 6.1875 9.058594 C 6.183594 9.042969 6.179688 9.058594 6.179688 9.089844 M 7.410156 9.308594 C 7.359375 9.417969 7.28125 9.507812 7.183594 9.570312 C 7.144531 9.59375 7.121094 9.617188 7.128906 9.617188 C 7.214844 9.617188 7.480469 9.304688 7.453125 9.230469 C 7.449219 9.222656 7.429688 9.257812 7.410156 9.308594 M 6.226562 9.269531 C 6.21875 9.347656 6.460938 9.617188 6.535156 9.617188 C 6.542969 9.617188 6.519531 9.59375 6.480469 9.570312 C 6.386719 9.507812 6.316406 9.433594 6.265625 9.335938 C 6.242188 9.292969 6.226562 9.261719 6.226562 9.269531 M 6.574219 9.628906 C 6.589844 9.636719 6.617188 9.648438 6.640625 9.65625 C 6.667969 9.664062 6.671875 9.660156 6.65625 9.652344 C 6.644531 9.640625 6.613281 9.632812 6.59375 9.625 C 6.5625 9.617188 6.558594 9.617188 6.574219 9.628906 M 6.960938 9.664062 C 6.925781 9.675781 6.925781 9.675781 6.953125 9.679688 C 6.96875 9.679688 6.996094 9.671875 7.007812 9.664062 C 7.035156 9.644531 7.015625 9.644531 6.960938 9.664062 M 6.710938 9.679688 C 6.742188 9.695312 6.925781 9.703125 6.910156 9.691406 C 6.90625 9.6875 6.855469 9.679688 6.792969 9.675781 C 6.726562 9.671875 6.695312 9.671875 6.710938 9.679688 M 4.984375 10.640625 C 5.070312 10.683594 5.152344 10.71875 5.160156 10.71875 C 5.167969 10.71875 5.101562 10.683594 5.007812 10.640625 C 4.917969 10.59375 4.839844 10.5625 4.832031 10.5625 C 4.828125 10.5625 4.894531 10.597656 4.984375 10.640625 M 8.648438 10.640625 C 8.558594 10.683594 8.496094 10.71875 8.503906 10.71875 C 8.511719 10.71875 8.59375 10.683594 8.679688 10.640625 C 8.769531 10.597656 8.832031 10.5625 8.824219 10.5625 C 8.816406 10.5625 8.734375 10.597656 8.648438 10.640625 M 8.265625 10.792969 C 8.222656 10.8125 8.222656 10.8125 8.257812 10.804688 C 8.300781 10.792969 8.351562 10.769531 8.328125 10.769531 C 8.320312 10.769531 8.289062 10.78125 8.265625 10.792969 M 7.960938 10.878906 C 7.914062 10.894531 7.890625 10.910156 7.902344 10.910156 C 7.917969 10.910156 7.964844 10.894531 8.007812 10.878906 C 8.050781 10.863281 8.078125 10.851562 8.0625 10.851562 C 8.050781 10.851562 8.003906 10.863281 7.960938 10.878906 M 7.566406 10.960938 C 7.535156 10.96875 7.535156 10.972656 7.558594 10.972656 C 7.578125 10.972656 7.609375 10.96875 7.632812 10.960938 C 7.664062 10.949219 7.664062 10.945312 7.640625 10.945312 C 7.621094 10.945312 7.589844 10.953125 7.566406 10.960938 M 6.097656 10.976562 C 6.117188 10.984375 6.152344 10.988281 6.175781 10.988281 C 6.210938 10.988281 6.210938 10.988281 6.167969 10.976562 C 6.101562 10.957031 6.042969 10.957031 6.097656 10.976562 M 6.253906 11.003906 C 6.273438 11.007812 6.300781 11.007812 6.316406 11.003906 C 6.332031 11 6.316406 10.996094 6.28125 10.996094 C 6.246094 10.996094 6.230469 11 6.253906 11.003906 M 7.355469 11.003906 C 7.375 11.007812 7.40625 11.007812 7.421875 11.003906 C 7.433594 11 7.417969 10.996094 7.382812 10.996094 C 7.347656 10.996094 7.335938 11 7.355469 11.003906 M 6.605469 11.019531 C 6.730469 11.023438 6.933594 11.023438 7.058594 11.019531 C 7.183594 11.015625 7.082031 11.015625 6.832031 11.015625 C 6.582031 11.015625 6.480469 11.015625 6.605469 11.019531 M 10.28125 11.203125 C 10.238281 11.234375 10.117188 11.316406 10.011719 11.390625 C 9.902344 11.464844 9.808594 11.53125 9.800781 11.539062 C 9.761719 11.578125 9.898438 11.492188 10.082031 11.359375 C 10.191406 11.28125 10.308594 11.203125 10.34375 11.183594 C 10.378906 11.167969 10.394531 11.152344 10.382812 11.152344 C 10.367188 11.152344 10.320312 11.175781 10.28125 11.203125 M 10.449219 11.167969 C 10.46875 11.179688 11.324219 12.019531 12.34375 13.039062 C 14.371094 15.0625 14.28125 14.980469 14.496094 15.015625 C 14.527344 15.023438 14.503906 15.007812 14.445312 14.988281 C 14.234375 14.910156 14.242188 14.917969 12.328125 13.007812 C 11.074219 11.757812 10.460938 11.152344 10.441406 11.152344 C 10.414062 11.152344 10.414062 11.15625 10.449219 11.167969 M 9.660156 11.613281 C 9.601562 11.648438 9.546875 11.679688 9.539062 11.6875 C 9.523438 11.703125 9.746094 11.585938 9.765625 11.566406 C 9.792969 11.542969 9.773438 11.550781 9.660156 11.613281 M 3.984375 11.605469 C 3.984375 11.617188 4.257812 11.765625 4.261719 11.757812 C 4.265625 11.753906 4.203125 11.71875 4.125 11.675781 C 4.046875 11.632812 3.984375 11.601562 3.984375 11.605469 M 9.457031 11.726562 C 9.425781 11.746094 9.40625 11.757812 9.414062 11.757812 C 9.429688 11.761719 9.519531 11.714844 9.519531 11.703125 C 9.519531 11.691406 9.519531 11.695312 9.457031 11.726562 M 4.480469 11.863281 C 4.519531 11.886719 4.558594 11.902344 4.566406 11.902344 C 4.578125 11.902344 4.550781 11.886719 4.511719 11.863281 C 4.472656 11.84375 4.433594 11.824219 4.425781 11.824219 C 4.414062 11.824219 4.441406 11.84375 4.480469 11.863281 M 9.167969 11.863281 C 9.128906 11.886719 9.101562 11.902344 9.113281 11.902344 C 9.121094 11.902344 9.160156 11.886719 9.199219 11.863281 C 9.238281 11.84375 9.265625 11.824219 9.257812 11.824219 C 9.246094 11.824219 9.207031 11.84375 9.167969 11.863281 M 4.609375 11.917969 C 4.621094 11.925781 4.648438 11.9375 4.671875 11.941406 C 4.699219 11.949219 4.703125 11.949219 4.6875 11.9375 C 4.675781 11.929688 4.644531 11.917969 4.625 11.914062 C 4.597656 11.90625 4.589844 11.90625 4.609375 11.917969 M 9.015625 11.929688 C 8.976562 11.949219 8.976562 11.949219 9.007812 11.941406 C 9.054688 11.929688 9.105469 11.90625 9.078125 11.90625 C 9.070312 11.90625 9.042969 11.914062 9.015625 11.929688 M 4.777344 11.984375 C 4.8125 12 4.851562 12.015625 4.863281 12.015625 C 4.878906 12.015625 4.851562 12 4.808594 11.984375 C 4.707031 11.945312 4.691406 11.945312 4.777344 11.984375 M 8.894531 11.976562 C 8.875 11.988281 8.863281 12 8.871094 12 C 8.878906 12 8.90625 11.988281 8.929688 11.976562 C 8.949219 11.964844 8.960938 11.953125 8.953125 11.953125 C 8.941406 11.953125 8.917969 11.964844 8.894531 11.976562 M 8.6875 12.046875 C 8.621094 12.074219 8.574219 12.09375 8.585938 12.09375 C 8.59375 12.09375 8.660156 12.074219 8.730469 12.046875 C 8.796875 12.023438 8.84375 12 8.832031 12 C 8.820312 12 8.753906 12.023438 8.6875 12.046875 M 4.960938 12.046875 C 4.972656 12.054688 5.003906 12.066406 5.023438 12.070312 C 5.050781 12.078125 5.058594 12.078125 5.039062 12.066406 C 5.027344 12.058594 4.996094 12.046875 4.976562 12.042969 C 4.949219 12.035156 4.941406 12.035156 4.960938 12.046875 M 5.097656 12.097656 C 5.113281 12.105469 5.140625 12.109375 5.160156 12.109375 C 5.1875 12.109375 5.183594 12.105469 5.152344 12.097656 C 5.097656 12.078125 5.054688 12.078125 5.097656 12.097656 M 5.246094 12.136719 C 5.277344 12.148438 5.316406 12.15625 5.328125 12.15625 C 5.339844 12.15625 5.328125 12.148438 5.296875 12.136719 C 5.265625 12.125 5.230469 12.113281 5.214844 12.113281 C 5.203125 12.113281 5.21875 12.125 5.246094 12.136719 M 8.398438 12.136719 C 8.371094 12.148438 8.355469 12.15625 8.367188 12.15625 C 8.382812 12.15625 8.417969 12.148438 8.449219 12.136719 C 8.480469 12.125 8.492188 12.113281 8.480469 12.113281 C 8.46875 12.113281 8.429688 12.125 8.398438 12.136719 M 5.542969 12.207031 C 5.613281 12.226562 5.667969 12.226562 5.617188 12.207031 C 5.59375 12.199219 5.558594 12.195312 5.535156 12.195312 C 5.5 12.195312 5.5 12.195312 5.542969 12.207031 M 5.6875 12.238281 C 5.707031 12.246094 5.734375 12.253906 5.753906 12.253906 C 5.777344 12.253906 5.777344 12.25 5.742188 12.238281 C 5.6875 12.222656 5.648438 12.222656 5.6875 12.238281 M 5.914062 12.285156 C 5.9375 12.289062 5.96875 12.289062 5.988281 12.285156 C 6.007812 12.28125 5.992188 12.277344 5.953125 12.277344 C 5.914062 12.277344 5.894531 12.28125 5.914062 12.285156 M 7.707031 12.285156 C 7.726562 12.289062 7.761719 12.289062 7.78125 12.285156 C 7.800781 12.28125 7.785156 12.277344 7.742188 12.277344 C 7.703125 12.277344 7.6875 12.28125 7.707031 12.285156 M 6.078125 12.300781 C 6.097656 12.304688 6.125 12.304688 6.140625 12.300781 C 6.15625 12.296875 6.140625 12.292969 6.105469 12.292969 C 6.070312 12.292969 6.054688 12.296875 6.078125 12.300781 M 7.570312 12.300781 C 7.585938 12.304688 7.613281 12.304688 7.628906 12.300781 C 7.644531 12.296875 7.628906 12.292969 7.601562 12.292969 C 7.570312 12.292969 7.554688 12.296875 7.570312 12.300781 M 6.195312 12.316406 C 6.210938 12.320312 6.238281 12.320312 6.253906 12.316406 C 6.265625 12.3125 6.253906 12.308594 6.222656 12.308594 C 6.191406 12.308594 6.179688 12.3125 6.195312 12.316406 M 7.390625 12.320312 C 7.347656 12.328125 7.34375 12.332031 7.375 12.332031 C 7.398438 12.332031 7.445312 12.328125 7.480469 12.320312 C 7.535156 12.308594 7.535156 12.308594 7.496094 12.308594 C 7.46875 12.308594 7.421875 12.3125 7.390625 12.320312 M 6.308594 12.332031 C 6.324219 12.335938 6.347656 12.335938 6.363281 12.332031 C 6.378906 12.328125 6.367188 12.324219 6.335938 12.324219 C 6.304688 12.324219 6.292969 12.328125 6.308594 12.332031 M 6.445312 12.347656 C 6.472656 12.351562 6.515625 12.351562 6.539062 12.347656 C 6.5625 12.34375 6.539062 12.339844 6.488281 12.339844 C 6.433594 12.339844 6.414062 12.34375 6.445312 12.347656 M 7.195312 12.347656 C 7.226562 12.351562 7.269531 12.351562 7.292969 12.347656 C 7.316406 12.34375 7.292969 12.339844 7.238281 12.339844 C 7.1875 12.339844 7.167969 12.34375 7.195312 12.347656 M 6.730469 12.363281 C 6.804688 12.367188 6.921875 12.367188 6.996094 12.363281 C 7.070312 12.359375 7.007812 12.359375 6.863281 12.359375 C 6.71875 12.359375 6.660156 12.359375 6.730469 12.363281 M 15.242188 14.480469 C 15.210938 14.671875 15.070312 14.847656 14.875 14.945312 C 14.800781 14.980469 14.761719 15.003906 14.785156 15 C 14.945312 14.953125 15.121094 14.804688 15.199219 14.652344 C 15.242188 14.5625 15.28125 14.414062 15.261719 14.414062 C 15.253906 14.414062 15.246094 14.445312 15.242188 14.480469 "/>
<path style=" stroke:none;fill-rule:evenodd;fill:rgb(78.039216%,80%,83.137255%);fill-opacity:1;" d="M 6.445312 0.753906 C 6.335938 0.757812 6.183594 0.777344 6.109375 0.789062 C 6.035156 0.804688 5.917969 0.820312 5.847656 0.832031 C 5.222656 0.914062 4.410156 1.210938 3.816406 1.574219 C 0.046875 3.882812 0.0585938 9.308594 3.835938 11.597656 C 4.417969 11.949219 5.265625 12.257812 5.832031 12.328125 C 5.875 12.335938 6 12.355469 6.105469 12.375 C 6.394531 12.425781 7.328125 12.425781 7.601562 12.371094 C 7.703125 12.351562 7.828125 12.332031 7.878906 12.328125 C 7.933594 12.320312 8.027344 12.304688 8.089844 12.289062 C 8.148438 12.273438 8.253906 12.246094 8.324219 12.234375 C 8.894531 12.109375 9.613281 11.773438 10.199219 11.355469 C 10.292969 11.289062 10.386719 11.230469 10.40625 11.230469 C 10.429688 11.230469 11.023438 11.816406 12.289062 13.078125 L 14.136719 14.921875 L 14.441406 15.078125 L 14.609375 15.078125 C 15.070312 15.082031 15.441406 14.621094 15.320312 14.199219 C 15.253906 13.964844 15.335938 14.054688 13.339844 12.054688 C 11.828125 10.539062 11.488281 10.191406 11.488281 10.15625 C 11.488281 10.132812 11.519531 10.074219 11.5625 10.015625 C 12.660156 8.523438 12.960938 6.582031 12.382812 4.761719 C 11.808594 2.957031 10.308594 1.5 8.480469 0.980469 C 8.273438 0.917969 7.886719 0.832031 7.835938 0.832031 C 7.8125 0.832031 7.714844 0.816406 7.609375 0.800781 C 7.277344 0.742188 6.886719 0.726562 6.445312 0.753906 M 7.121094 0.785156 C 7.722656 0.832031 8.285156 0.945312 8.792969 1.121094 C 10.878906 1.847656 12.324219 3.703125 12.597656 6.007812 C 12.761719 7.371094 12.347656 8.898438 11.515625 10 C 11.375 10.183594 11.175781 9.953125 13.292969 12.070312 C 15.207031 13.988281 15.207031 13.984375 15.265625 14.179688 C 15.402344 14.621094 14.960938 15.132812 14.519531 15.042969 C 14.253906 14.988281 14.386719 15.109375 12.320312 13.046875 C 10.792969 11.519531 10.449219 11.183594 10.414062 11.183594 C 10.371094 11.183594 10.316406 11.214844 10.089844 11.382812 C 9.484375 11.820312 8.484375 12.222656 7.816406 12.296875 C 7.761719 12.300781 7.628906 12.320312 7.519531 12.339844 C 7.21875 12.390625 6.523438 12.390625 6.183594 12.339844 C 6.050781 12.320312 5.910156 12.300781 5.871094 12.296875 C 4.226562 12.097656 2.480469 10.824219 1.675781 9.234375 C -0.0859375 5.773438 1.949219 1.609375 5.753906 0.890625 C 6.273438 0.789062 6.738281 0.753906 7.121094 0.785156 M 6.40625 2.175781 C 6.320312 2.183594 6.214844 2.195312 6.175781 2.207031 C 6.136719 2.214844 6.039062 2.234375 5.960938 2.246094 C 4.109375 2.5625 2.617188 4.21875 2.429688 6.167969 C 2.214844 8.40625 3.792969 10.53125 5.953125 10.914062 C 6.359375 10.988281 6.421875 10.992188 6.832031 10.992188 C 7.238281 10.992188 7.269531 10.988281 7.679688 10.921875 C 8.972656 10.703125 10.214844 9.753906 10.800781 8.535156 C 11.550781 6.984375 11.347656 5.121094 10.296875 3.828125 C 9.328125 2.640625 7.933594 2.050781 6.40625 2.175781 M 7.542969 2.261719 C 8.371094 2.40625 8.941406 2.660156 9.566406 3.160156 C 11.878906 5.007812 11.71875 8.589844 9.25 10.238281 C 8.789062 10.542969 8.121094 10.816406 7.671875 10.878906 C 7.601562 10.890625 7.484375 10.910156 7.40625 10.925781 C 7.148438 10.976562 6.460938 10.960938 6.105469 10.898438 C 3.148438 10.375 1.589844 7.230469 2.953125 4.542969 C 3.480469 3.507812 4.566406 2.632812 5.679688 2.351562 C 6.304688 2.191406 6.953125 2.160156 7.542969 2.261719 M 6.660156 3.433594 C 6.441406 3.492188 6.273438 3.625 6.191406 3.796875 C 6.101562 3.992188 6.097656 4.039062 6.097656 4.960938 C 6.097656 5.757812 6.09375 5.804688 6.066406 5.828125 C 6.039062 5.851562 5.957031 5.855469 5.191406 5.855469 C 4.269531 5.855469 4.203125 5.863281 4.035156 5.945312 C 3.570312 6.183594 3.539062 6.898438 3.984375 7.183594 C 4.148438 7.289062 4.125 7.285156 5.132812 7.296875 C 6.019531 7.304688 6.050781 7.304688 6.074219 7.335938 C 6.09375 7.359375 6.097656 7.507812 6.097656 8.207031 C 6.097656 9.132812 6.101562 9.175781 6.195312 9.367188 C 6.4375 9.871094 7.25 9.863281 7.480469 9.351562 C 7.5625 9.175781 7.566406 9.113281 7.566406 8.207031 C 7.566406 7.371094 7.566406 7.363281 7.601562 7.335938 C 7.632812 7.304688 7.679688 7.304688 8.542969 7.296875 C 9.503906 7.285156 9.503906 7.285156 9.644531 7.203125 C 10.175781 6.898438 10.097656 6.097656 9.519531 5.902344 C 9.417969 5.867188 9.394531 5.863281 8.515625 5.855469 C 7.644531 5.847656 7.613281 5.847656 7.589844 5.816406 C 7.570312 5.792969 7.566406 5.644531 7.566406 4.953125 C 7.566406 4.023438 7.5625 3.984375 7.464844 3.78125 C 7.328125 3.507812 6.964844 3.351562 6.660156 3.433594 M 6.929688 3.457031 C 7.121094 3.492188 7.324219 3.621094 7.402344 3.75 C 7.511719 3.945312 7.511719 3.914062 7.519531 4.921875 C 7.527344 5.773438 7.53125 5.839844 7.554688 5.867188 C 7.582031 5.894531 7.648438 5.898438 8.515625 5.902344 C 9.433594 5.914062 9.449219 5.914062 9.535156 5.949219 C 10.074219 6.164062 10.097656 6.9375 9.578125 7.191406 C 9.445312 7.253906 9.324219 7.261719 8.429688 7.265625 C 7.59375 7.265625 7.589844 7.265625 7.558594 7.296875 C 7.53125 7.328125 7.527344 7.375 7.519531 8.238281 C 7.511719 8.921875 7.503906 9.160156 7.488281 9.207031 C 7.261719 9.894531 6.332031 9.867188 6.167969 9.164062 C 6.148438 9.082031 6.144531 8.90625 6.144531 8.210938 C 6.144531 7.359375 6.140625 7.3125 6.089844 7.277344 C 6.078125 7.269531 5.695312 7.265625 5.230469 7.265625 C 4.757812 7.261719 4.34375 7.257812 4.28125 7.246094 C 3.597656 7.148438 3.5 6.191406 4.144531 5.941406 C 4.207031 5.914062 4.308594 5.910156 5.148438 5.90625 C 6.011719 5.898438 6.082031 5.894531 6.109375 5.867188 C 6.132812 5.839844 6.136719 5.773438 6.144531 4.921875 C 6.152344 3.898438 6.152344 3.929688 6.28125 3.734375 C 6.363281 3.605469 6.546875 3.492188 6.722656 3.457031 C 6.820312 3.4375 6.832031 3.4375 6.929688 3.457031 "/>
</g>
</svg>
