<svg id="svg" version="1.1" xmlns="http://www.w3.org/2000/svg" xmlns:xlink="http://www.w3.org/1999/xlink" width="400" height="400" viewBox="0, 0, 400,400"><g id="svgg"><path id="path0" d="M161.800 21.838 C 159.600 22.132,155.100 22.642,151.800 22.971 C 148.500 23.301,145.237 23.767,144.549 24.007 C 143.860 24.248,141.520 24.768,139.349 25.163 C 116.567 29.306,90.667 43.277,71.863 61.567 C -4.603 135.938,23.590 264.691,124.000 299.668 C 130.375 301.889,135.043 303.063,146.800 305.405 C 148.230 305.689,151.470 306.116,154.000 306.353 C 156.530 306.591,160.400 307.013,162.600 307.291 C 167.603 307.925,175.483 307.941,180.200 307.326 C 182.180 307.068,185.870 306.649,188.400 306.394 C 190.930 306.139,194.260 305.686,195.800 305.386 C 203.495 303.888,205.274 303.495,208.600 302.561 C 226.385 297.568,242.186 289.906,254.942 280.091 C 257.829 277.869,259.681 277.164,261.362 277.647 C 262.233 277.896,275.877 291.271,308.593 323.943 C 355.792 371.080,356.401 371.654,360.997 373.384 C 372.737 377.803,384.143 363.952,378.448 352.192 C 377.170 349.551,374.560 346.861,330.348 302.589 L 283.600 255.779 283.600 254.115 C 283.600 252.786,283.961 251.943,285.394 249.926 C 300.868 228.136,308.082 210.898,311.811 186.800 C 313.795 173.972,313.991 154.167,312.217 145.656 C 311.912 144.195,311.451 141.470,311.192 139.600 C 309.021 123.945,301.613 104.375,291.961 88.800 C 272.182 56.882,236.260 31.368,202.400 25.187 C 200.310 24.806,197.622 24.202,196.427 23.847 C 195.232 23.491,193.507 23.200,192.594 23.200 C 191.680 23.200,187.348 22.752,182.967 22.205 C 174.145 21.104,168.087 20.999,161.800 21.838 M189.879 53.547 C 191.683 54.004,194.383 54.572,195.879 54.810 C 208.740 56.852,227.915 65.950,240.614 76.035 C 301.773 124.605,296.529 219.158,230.400 260.187 C 222.412 265.143,210.072 270.723,204.309 271.985 C 203.269 272.213,201.739 272.669,200.909 272.998 C 200.079 273.328,197.420 273.975,195.000 274.438 C 192.580 274.900,189.250 275.539,187.600 275.858 C 182.570 276.829,154.428 276.402,150.400 275.294 C 148.750 274.840,146.590 274.353,145.600 274.211 C 137.878 273.104,123.391 267.385,113.541 261.556 C 49.896 223.889,39.017 136.152,91.580 84.444 C 106.942 69.332,127.093 58.328,145.800 54.835 C 148.000 54.425,150.610 53.866,151.600 53.595 C 156.954 52.127,184.138 52.093,189.879 53.547 M166.789 88.973 C 156.333 92.633,155.608 95.066,155.603 126.526 C 155.601 139.609,155.454 147.125,155.191 147.617 C 154.246 149.383,154.150 149.390,129.200 149.600 L 105.400 149.800 103.088 150.972 C 91.983 156.598,92.279 172.759,103.588 178.314 L 105.800 179.400 129.689 179.600 L 153.579 179.800 154.489 180.711 L 155.400 181.621 155.627 204.711 C 155.877 230.154,155.817 229.541,158.487 233.984 C 163.775 242.781,177.825 242.781,183.113 233.984 C 185.818 229.482,185.752 230.155,185.987 204.982 C 186.219 180.103,186.196 180.333,188.505 179.810 C 188.997 179.698,199.840 179.560,212.600 179.503 L 235.800 179.400 238.195 178.224 C 249.599 172.625,249.538 156.369,238.092 150.732 L 236.200 149.800 212.400 149.600 C 194.280 149.448,188.389 149.280,187.718 148.895 C 186.119 147.981,186.005 146.335,186.002 124.192 C 186.000 100.948,185.880 99.625,183.400 95.373 C 180.093 89.701,172.770 86.880,166.789 88.973 " stroke="none" fill="#000000" fill-rule="evenodd"></path><path id="path1" d="M0.000 200.000 L 0.000 400.000 200.000 400.000 L 400.000 400.000 400.000 200.000 L 400.000 0.000 200.000 0.000 L 0.000 0.000 0.000 200.000 M179.927 18.803 C 183.078 19.018,187.736 19.555,190.279 19.997 C 192.823 20.439,195.346 20.800,195.887 20.800 C 202.315 20.800,224.261 27.899,235.987 33.772 C 316.548 74.119,342.097 178.349,289.074 250.344 C 287.969 251.844,287.200 253.317,287.200 253.933 C 287.200 254.787,295.682 263.476,333.527 301.389 C 383.384 351.336,381.318 349.098,383.016 354.979 C 386.059 365.518,376.782 377.003,365.230 376.998 L 361.000 376.996 357.200 375.036 L 353.400 373.075 307.189 326.937 C 275.573 295.372,260.717 280.800,260.149 280.800 C 259.693 280.800,257.357 282.198,254.960 283.907 C 240.368 294.307,222.359 302.724,208.062 305.827 C 206.378 306.192,203.740 306.817,202.200 307.214 C 200.660 307.611,198.320 308.050,197.000 308.189 C 195.680 308.328,192.530 308.837,190.000 309.321 C 183.163 310.627,159.855 310.635,152.600 309.333 C 149.960 308.859,146.900 308.362,145.800 308.227 C 131.613 306.494,110.434 298.731,95.928 289.947 C 1.454 232.735,1.168 97.095,95.400 39.395 C 110.271 30.289,130.604 22.839,146.200 20.781 C 147.960 20.549,150.916 20.081,152.770 19.742 C 159.141 18.576,170.735 18.175,179.927 18.803 M152.600 56.597 C 114.463 63.489,84.214 87.450,69.781 122.200 C 44.580 182.873,78.306 252.688,141.200 270.043 C 154.093 273.600,175.218 275.076,185.200 273.116 C 187.070 272.749,190.040 272.246,191.800 271.998 C 200.260 270.806,215.025 265.470,224.200 260.288 C 295.682 219.915,299.359 118.612,231.000 72.933 C 208.722 58.046,178.931 51.839,152.600 56.597 M174.919 85.796 C 180.506 87.251,184.477 90.219,186.594 94.522 C 189.095 99.604,189.185 100.622,189.193 123.824 C 189.199 141.162,189.295 144.777,189.767 145.424 C 190.314 146.172,191.153 146.208,212.867 146.410 C 234.847 146.615,235.464 146.642,238.000 147.512 C 252.434 152.464,254.368 172.481,241.150 180.119 C 237.637 182.149,237.621 182.150,213.542 182.382 C 191.989 182.589,190.842 182.637,190.042 183.362 C 189.207 184.118,189.200 184.290,189.193 205.162 C 189.186 227.852,189.070 229.392,187.035 233.835 C 181.209 246.562,160.983 246.759,154.834 234.148 C 152.499 229.359,152.415 228.349,152.407 205.176 C 152.401 187.665,152.305 184.023,151.833 183.376 C 151.285 182.628,150.443 182.592,128.333 182.390 C 103.097 182.159,103.675 182.215,99.586 179.591 C 88.454 172.448,89.218 154.579,100.909 148.664 C 105.103 146.542,106.729 146.415,129.769 146.407 C 148.899 146.401,151.007 146.336,151.669 145.738 C 152.359 145.113,152.400 143.906,152.407 124.038 C 152.415 100.999,152.515 99.757,154.762 94.955 C 158.057 87.914,167.164 83.776,174.919 85.796 " stroke="none" fill="#fbfbfb" fill-rule="evenodd"></path><path id="path2" d="M165.000 20.250 C 164.120 20.345,161.240 20.699,158.600 21.036 C 155.960 21.373,152.180 21.822,150.200 22.034 C 135.018 23.659,114.735 30.449,100.169 38.782 C 7.934 91.550,1.645 221.289,88.342 282.759 C 98.809 290.180,110.618 296.220,123.200 300.587 C 127.199 301.975,134.828 304.157,137.200 304.591 C 137.970 304.732,140.580 305.274,143.000 305.797 C 147.144 306.691,153.123 307.498,162.800 308.468 C 167.557 308.945,181.448 308.666,184.800 308.026 C 186.010 307.795,189.340 307.336,192.200 307.006 C 204.404 305.599,219.541 301.133,232.262 295.187 C 240.042 291.550,244.811 288.645,257.031 280.100 C 260.944 277.364,255.831 272.859,308.389 325.355 C 359.691 376.595,356.425 373.608,362.918 375.226 C 372.207 377.541,383.050 366.506,381.236 356.583 C 380.140 350.589,382.855 353.564,331.774 302.400 C 300.833 271.410,285.162 255.441,284.988 254.729 C 284.622 253.222,284.998 252.312,287.161 249.481 C 321.393 204.670,323.943 137.937,293.308 88.600 C 279.148 65.796,256.896 45.782,233.036 34.391 C 221.294 28.784,204.639 23.673,193.800 22.349 C 192.040 22.135,187.900 21.597,184.600 21.154 C 178.813 20.379,168.305 19.894,165.000 20.250 M182.967 22.205 C 187.348 22.752,191.680 23.200,192.594 23.200 C 193.507 23.200,195.232 23.491,196.427 23.847 C 197.622 24.202,200.310 24.806,202.400 25.187 C 236.260 31.368,272.182 56.882,291.961 88.800 C 301.613 104.375,309.021 123.945,311.192 139.600 C 311.451 141.470,311.912 144.195,312.217 145.656 C 313.991 154.167,313.795 173.972,311.811 186.800 C 308.082 210.898,300.868 228.136,285.394 249.926 C 283.961 251.943,283.600 252.786,283.600 254.115 L 283.600 255.779 330.348 302.589 C 374.560 346.861,377.170 349.551,378.448 352.192 C 384.143 363.952,372.737 377.803,360.997 373.384 C 356.401 371.654,355.792 371.080,308.593 323.943 C 275.877 291.271,262.233 277.896,261.362 277.647 C 259.681 277.164,257.829 277.869,254.942 280.091 C 242.186 289.906,226.385 297.568,208.600 302.561 C 205.274 303.495,203.495 303.888,195.800 305.386 C 194.260 305.686,190.930 306.139,188.400 306.394 C 185.870 306.649,182.180 307.068,180.200 307.326 C 175.483 307.941,167.603 307.925,162.600 307.291 C 160.400 307.013,156.530 306.591,154.000 306.353 C 151.470 306.116,148.230 305.689,146.800 305.405 C 135.043 303.063,130.375 301.889,124.000 299.668 C 44.500 271.975,6.025 181.191,41.223 104.350 C 59.365 64.744,99.411 32.427,139.349 25.163 C 141.520 24.768,143.860 24.248,144.549 24.007 C 145.237 23.767,148.500 23.301,151.800 22.971 C 155.100 22.642,159.600 22.132,161.800 21.838 C 168.087 20.999,174.145 21.104,182.967 22.205 M156.400 52.783 C 154.750 52.958,152.590 53.323,151.600 53.595 C 150.610 53.866,148.000 54.425,145.800 54.835 C 127.093 58.328,106.942 69.332,91.580 84.444 C 39.017 136.152,49.896 223.889,113.541 261.556 C 123.391 267.385,137.878 273.104,145.600 274.211 C 146.590 274.353,148.750 274.840,150.400 275.294 C 154.428 276.402,182.570 276.829,187.600 275.858 C 189.250 275.539,192.580 274.900,195.000 274.438 C 197.420 273.975,200.079 273.328,200.909 272.998 C 201.739 272.669,203.269 272.213,204.309 271.985 C 210.072 270.723,222.412 265.143,230.400 260.187 C 296.529 219.158,301.773 124.605,240.614 76.035 C 227.915 65.950,208.740 56.852,195.879 54.810 C 194.383 54.572,191.683 54.004,189.879 53.547 C 186.272 52.634,162.846 52.099,156.400 52.783 M191.800 55.099 C 261.172 69.647,299.192 137.993,274.925 204.524 C 264.451 233.237,237.323 259.825,208.800 269.331 C 202.719 271.358,196.398 273.200,195.523 273.200 C 195.107 273.200,192.479 273.695,189.683 274.300 C 175.207 277.433,149.269 275.309,133.800 269.725 C 60.344 243.207,35.344 152.390,85.207 93.200 C 103.775 71.158,126.896 58.423,156.600 53.877 C 157.260 53.776,164.100 53.726,171.800 53.767 L 185.800 53.840 191.800 55.099 M168.365 87.201 C 161.487 88.922,157.728 92.202,155.529 98.400 C 154.617 100.970,154.604 101.260,154.403 123.886 C 154.214 145.161,154.150 146.823,153.486 147.486 C 152.822 148.150,151.122 148.216,129.286 148.421 C 103.584 148.663,104.415 148.583,100.514 151.187 C 90.570 157.828,91.657 173.383,102.464 179.075 L 104.600 180.200 128.535 180.400 L 152.470 180.600 153.435 181.722 L 154.400 182.845 154.403 203.922 C 154.406 226.810,154.541 228.675,156.491 232.924 C 161.729 244.339,179.159 244.781,184.778 233.642 C 186.984 229.268,186.939 229.805,187.177 205.311 L 187.400 182.421 188.311 181.511 L 189.221 180.600 213.111 180.400 L 237.000 180.200 239.136 179.075 C 249.966 173.371,251.072 157.856,241.122 151.212 C 237.186 148.583,238.040 148.666,212.314 148.422 C 190.479 148.216,188.778 148.150,188.114 147.486 C 187.450 146.823,187.385 145.156,187.192 123.886 C 186.958 98.195,186.981 98.403,183.814 93.722 C 180.845 89.333,173.030 86.034,168.365 87.201 M174.653 88.950 C 185.287 92.567,185.999 94.778,186.002 124.192 C 186.005 146.335,186.119 147.981,187.718 148.895 C 188.389 149.280,194.280 149.448,212.400 149.600 L 236.200 149.800 238.092 150.732 C 249.538 156.369,249.599 172.625,238.195 178.224 L 235.800 179.400 212.600 179.503 C 199.840 179.560,188.997 179.698,188.505 179.810 C 186.196 180.333,186.219 180.103,185.987 204.982 C 185.752 230.155,185.818 229.482,183.113 233.984 C 177.825 242.781,163.775 242.781,158.487 233.984 C 155.817 229.541,155.877 230.154,155.627 204.711 L 155.400 181.621 154.489 180.711 L 153.579 179.800 129.689 179.600 L 105.800 179.400 103.588 178.314 C 92.279 172.759,91.983 156.598,103.088 150.972 L 105.400 149.800 129.200 149.600 C 154.150 149.390,154.246 149.383,155.191 147.617 C 155.454 147.125,155.601 139.609,155.603 126.526 C 155.607 104.694,155.862 100.440,157.369 97.031 C 160.343 90.308,168.050 86.704,174.653 88.950 " stroke="none" fill="#8c94a4" fill-rule="evenodd"></path><path id="path3" d="M163.184 19.619 C 135.019 21.648,108.738 30.704,87.744 45.616 C 1.605 106.799,6.532 235.449,97.081 289.402 C 111.749 298.142,132.614 305.688,146.800 307.382 C 147.790 307.500,151.300 307.999,154.600 308.491 C 163.121 309.760,180.512 309.773,188.000 308.516 C 190.750 308.054,194.080 307.557,195.400 307.411 C 212.096 305.566,237.082 295.512,252.240 284.538 C 257.951 280.404,259.268 279.600,260.330 279.600 C 261.189 279.600,269.817 288.028,307.989 326.155 C 359.662 377.766,356.314 374.726,362.948 376.058 C 374.058 378.289,385.096 365.533,381.646 354.450 C 380.154 349.654,380.167 349.668,332.351 301.789 C 279.425 248.794,284.417 254.619,287.930 249.960 C 308.670 222.449,319.019 184.244,314.952 150.200 C 307.681 89.335,268.194 41.652,211.600 25.398 C 208.023 24.370,205.097 23.690,198.000 22.237 C 186.653 19.913,173.177 18.900,163.184 19.619 M182.400 20.613 C 184.930 20.918,189.180 21.434,191.845 21.759 C 194.510 22.084,197.750 22.620,199.045 22.949 C 200.340 23.279,202.570 23.753,204.000 24.002 C 222.185 27.169,246.497 39.388,263.931 54.124 C 321.334 102.643,332.180 191.463,287.758 249.253 C 285.525 252.157,285.033 253.276,285.376 254.671 C 285.570 255.458,299.751 269.921,332.179 302.400 C 383.377 353.681,380.452 350.472,381.569 356.585 C 383.398 366.597,372.886 377.437,363.140 375.589 C 356.799 374.386,359.898 377.205,308.600 325.977 C 283.080 300.491,261.742 279.470,261.183 279.261 C 259.771 278.736,258.628 279.296,253.290 283.127 C 242.329 290.994,231.343 296.624,217.400 301.521 C 211.341 303.648,198.839 306.588,193.203 307.211 C 191.115 307.441,187.695 307.923,185.603 308.282 C 174.941 310.110,155.411 308.836,138.400 305.203 C 91.270 295.138,50.441 258.587,34.563 212.247 C 10.437 141.833,42.905 64.542,109.603 33.612 C 114.785 31.209,117.249 30.218,124.600 27.581 C 129.251 25.912,136.933 24.000,145.200 22.454 C 147.941 21.941,159.720 20.471,164.800 20.008 C 169.245 19.603,175.929 19.833,182.400 20.613 M159.200 53.979 C 121.565 57.497,85.875 82.813,70.226 117.092 C 39.556 184.276,78.626 260.104,151.000 273.860 C 159.297 275.437,182.218 275.602,189.000 274.134 C 191.200 273.658,193.810 273.147,194.800 272.998 C 202.094 271.905,217.719 265.939,225.916 261.118 C 257.919 242.292,277.971 211.209,281.373 175.151 C 287.988 105.028,229.860 47.376,159.200 53.979 M189.400 55.569 C 258.017 68.234,297.654 135.997,274.921 201.774 C 262.451 237.857,228.716 266.835,192.000 273.003 C 181.743 274.726,180.936 274.794,170.800 274.795 C 160.499 274.795,158.949 274.659,148.800 272.855 C 94.797 263.256,55.363 210.109,60.759 154.200 C 65.460 105.499,102.761 64.052,148.975 56.179 C 150.942 55.844,153.372 55.378,154.375 55.144 C 161.021 53.594,179.946 53.824,189.400 55.569 M168.043 86.433 C 163.695 87.287,159.100 90.157,156.992 93.335 C 153.764 98.204,153.852 97.424,153.613 123.086 C 153.415 144.353,153.349 146.023,152.686 146.686 C 152.022 147.350,150.340 147.415,128.686 147.609 C 107.744 147.797,105.219 147.888,103.600 148.520 C 87.489 154.805,89.987 178.721,107.012 181.181 C 108.593 181.410,118.897 181.590,130.800 181.598 C 142.350 181.606,151.998 181.744,152.240 181.906 C 153.529 182.767,153.600 183.983,153.606 205.274 C 153.611 222.663,153.721 227.062,154.202 229.104 C 158.336 246.638,181.580 247.410,187.234 230.200 C 187.632 228.990,187.814 223.084,187.980 205.942 C 188.189 184.391,188.237 183.242,188.962 182.442 C 189.718 181.607,189.891 181.600,210.762 181.592 C 233.111 181.584,236.153 181.391,239.477 179.774 C 252.483 173.447,251.814 154.137,238.400 148.698 C 236.234 147.820,235.840 147.803,212.914 147.603 C 191.256 147.414,189.578 147.350,188.914 146.686 C 188.251 146.023,188.185 144.352,187.987 123.086 C 187.778 100.681,187.755 100.150,186.885 97.832 C 184.931 92.624,182.917 90.374,178.221 88.149 C 174.132 86.212,171.462 85.761,168.043 86.433 M178.063 88.698 C 186.910 93.013,187.600 95.638,187.600 124.991 C 187.600 144.989,187.634 145.953,188.364 146.856 L 189.129 147.800 212.264 148.018 C 238.058 148.261,237.460 148.198,241.594 151.092 C 251.625 158.113,250.086 174.279,238.887 179.528 L 236.600 180.600 213.200 180.802 C 200.330 180.913,189.480 181.160,189.089 181.349 C 187.660 182.042,187.600 182.956,187.600 204.191 C 187.600 227.104,187.438 229.178,185.321 233.357 C 180.460 242.949,167.758 245.203,159.760 237.893 C 154.434 233.026,154.285 232.179,154.021 205.114 C 153.816 184.045,153.749 182.377,153.086 181.714 C 152.422 181.049,150.730 180.986,128.686 180.800 L 105.000 180.600 102.713 179.528 C 91.535 174.289,89.994 158.099,100.006 151.092 C 104.165 148.180,103.526 148.246,129.197 148.094 C 151.988 147.959,152.202 147.950,153.097 147.109 L 154.000 146.261 154.014 125.230 C 154.029 102.461,154.204 100.056,156.143 95.957 C 160.019 87.764,169.624 84.583,178.063 88.698 " stroke="none" fill="#acb2c0" fill-rule="evenodd"></path><path id="path4" d="M169.491 19.889 C 170.201 19.977,171.461 19.979,172.291 19.892 C 173.121 19.805,172.540 19.733,171.000 19.731 C 169.460 19.729,168.781 19.800,169.491 19.889 M163.900 20.282 C 164.395 20.378,165.205 20.378,165.700 20.282 C 166.195 20.187,165.790 20.109,164.800 20.109 C 163.810 20.109,163.405 20.187,163.900 20.282 M176.300 20.282 C 176.795 20.378,177.605 20.378,178.100 20.282 C 178.595 20.187,178.190 20.109,177.200 20.109 C 176.210 20.109,175.805 20.187,176.300 20.282 M159.500 20.682 C 159.995 20.778,160.805 20.778,161.300 20.682 C 161.795 20.587,161.390 20.509,160.400 20.509 C 159.410 20.509,159.005 20.587,159.500 20.682 M180.705 20.683 C 181.202 20.779,181.922 20.775,182.305 20.675 C 182.687 20.575,182.280 20.496,181.400 20.501 C 180.520 20.505,180.207 20.587,180.705 20.683 M156.500 21.076 C 156.885 21.176,157.515 21.176,157.900 21.076 C 158.285 20.975,157.970 20.893,157.200 20.893 C 156.430 20.893,156.115 20.975,156.500 21.076 M184.800 21.220 C 187.214 21.650,189.106 21.613,187.000 21.177 C 186.120 20.995,184.860 20.858,184.200 20.873 C 183.300 20.893,183.450 20.980,184.800 21.220 M153.700 21.476 C 154.085 21.576,154.715 21.576,155.100 21.476 C 155.485 21.375,155.170 21.293,154.400 21.293 C 153.630 21.293,153.315 21.375,153.700 21.476 M150.705 21.883 C 151.202 21.979,151.922 21.975,152.305 21.875 C 152.687 21.775,152.280 21.696,151.400 21.701 C 150.520 21.705,150.207 21.787,150.705 21.883 M189.500 21.882 C 189.995 21.978,190.805 21.978,191.300 21.882 C 191.795 21.787,191.390 21.709,190.400 21.709 C 189.410 21.709,189.005 21.787,189.500 21.882 M146.705 22.283 C 147.202 22.379,147.922 22.375,148.305 22.275 C 148.687 22.175,148.280 22.096,147.400 22.101 C 146.520 22.105,146.207 22.187,146.705 22.283 M193.700 22.276 C 194.085 22.376,194.715 22.376,195.100 22.276 C 195.485 22.175,195.170 22.093,194.400 22.093 C 193.630 22.093,193.315 22.175,193.700 22.276 M131.800 25.420 C 130.260 25.937,129.270 26.366,129.600 26.374 C 129.930 26.383,131.550 25.950,133.200 25.413 C 134.850 24.875,135.840 24.446,135.400 24.458 C 134.960 24.470,133.340 24.903,131.800 25.420 M208.400 25.413 C 210.050 25.950,211.670 26.384,212.000 26.377 C 212.330 26.370,211.250 25.925,209.600 25.387 C 207.950 24.850,206.330 24.416,206.000 24.423 C 205.670 24.430,206.750 24.875,208.400 25.413 M124.600 27.629 C 123.720 28.052,123.438 28.286,123.974 28.149 C 125.439 27.773,127.486 26.829,126.800 26.845 C 126.470 26.853,125.480 27.206,124.600 27.629 M214.433 26.957 C 214.582 27.097,223.106 30.158,224.742 30.659 C 225.300 30.830,225.309 30.802,224.800 30.473 C 223.646 29.729,213.845 26.404,214.433 26.957 M119.084 29.473 C 117.591 30.039,116.435 30.568,116.515 30.648 C 116.595 30.728,118.087 30.264,119.830 29.617 C 121.574 28.969,122.730 28.440,122.400 28.442 C 122.070 28.443,120.578 28.907,119.084 29.473 M229.200 32.600 C 230.190 33.130,231.180 33.564,231.400 33.564 C 231.620 33.564,230.990 33.130,230.000 32.600 C 229.010 32.070,228.020 31.636,227.800 31.636 C 227.580 31.636,228.210 32.070,229.200 32.600 M110.800 33.000 C 110.250 33.314,109.980 33.572,110.200 33.572 C 110.420 33.572,111.050 33.314,111.600 33.000 C 112.150 32.686,112.420 32.428,112.200 32.428 C 111.980 32.428,111.350 32.686,110.800 33.000 M232.033 33.754 C 232.440 34.128,238.800 37.188,238.800 37.009 C 238.800 36.786,232.577 33.600,232.142 33.600 C 231.991 33.600,231.942 33.669,232.033 33.754 M100.800 38.036 C 79.058 50.364,60.362 68.318,47.481 89.238 C 44.853 93.505,41.420 100.000,41.791 100.000 C 41.901 100.000,42.729 98.532,43.631 96.738 C 55.195 73.738,77.490 51.348,102.800 37.315 C 104.890 36.157,106.420 35.207,106.200 35.205 C 105.980 35.202,103.550 36.476,100.800 38.036 M240.000 37.731 C 240.000 37.829,241.305 38.680,242.900 39.621 C 244.495 40.563,246.205 41.595,246.700 41.913 C 247.195 42.231,247.600 42.393,247.600 42.273 C 247.600 42.152,246.025 41.113,244.100 39.964 C 239.880 37.444,240.000 37.510,240.000 37.731 M248.000 42.501 C 248.110 42.627,250.112 44.069,252.449 45.705 C 271.411 58.975,287.959 77.617,298.412 97.486 C 299.595 99.733,300.627 101.506,300.706 101.427 C 300.912 101.221,296.142 92.462,293.495 88.186 C 283.594 72.190,268.625 56.538,252.600 45.424 C 249.077 42.980,247.599 42.042,248.000 42.501 M158.700 53.889 C 159.415 53.978,160.585 53.978,161.300 53.889 C 162.015 53.801,161.430 53.728,160.000 53.728 C 158.570 53.728,157.985 53.801,158.700 53.889 M180.300 53.889 C 181.015 53.978,182.185 53.978,182.900 53.889 C 183.615 53.801,183.030 53.728,181.600 53.728 C 180.170 53.728,179.585 53.801,180.300 53.889 M153.600 54.420 C 152.926 54.649,153.251 54.684,154.600 54.528 C 155.700 54.401,156.675 54.231,156.767 54.149 C 157.082 53.868,154.599 54.080,153.600 54.420 M184.833 54.149 C 184.925 54.231,185.900 54.401,187.000 54.528 C 188.349 54.684,188.674 54.649,188.000 54.420 C 187.001 54.080,184.518 53.868,184.833 54.149 M149.800 55.200 C 148.722 55.474,148.702 55.506,149.600 55.513 C 150.150 55.517,151.050 55.376,151.600 55.200 C 152.944 54.769,151.492 54.769,149.800 55.200 M142.200 56.800 C 141.696 57.017,141.622 57.144,142.000 57.144 C 142.330 57.144,142.960 56.989,143.400 56.800 C 143.904 56.583,143.978 56.456,143.600 56.456 C 143.270 56.456,142.640 56.611,142.200 56.800 M198.200 56.800 C 198.640 56.989,199.270 57.144,199.600 57.144 C 199.978 57.144,199.904 57.017,199.400 56.800 C 198.960 56.611,198.330 56.456,198.000 56.456 C 197.622 56.456,197.696 56.583,198.200 56.800 M135.800 58.586 C 134.255 59.293,134.974 59.303,136.800 58.600 C 137.570 58.303,137.930 58.055,137.600 58.048 C 137.270 58.042,136.460 58.283,135.800 58.586 M204.800 58.600 C 206.626 59.303,207.345 59.293,205.800 58.586 C 205.140 58.283,204.330 58.042,204.000 58.048 C 203.670 58.055,204.030 58.303,204.800 58.600 M133.200 59.487 C 132.870 59.609,131.643 60.063,130.472 60.494 C 129.302 60.925,128.409 61.342,128.487 61.420 C 128.634 61.568,134.056 59.677,134.361 59.372 C 134.589 59.144,133.951 59.207,133.200 59.487 M207.200 59.320 C 207.200 59.592,212.093 61.241,212.295 61.038 C 212.381 60.952,211.495 60.567,210.326 60.182 C 209.157 59.798,207.975 59.400,207.700 59.299 C 207.425 59.197,207.200 59.207,207.200 59.320 M218.600 64.140 C 239.887 74.473,258.584 92.259,269.037 112.123 C 270.217 114.365,271.187 116.049,271.191 115.864 C 271.291 111.974,256.140 91.524,246.804 82.946 C 237.361 74.270,216.792 61.063,212.957 61.214 C 212.761 61.222,215.300 62.539,218.600 64.140 M123.800 63.375 C 121.820 64.342,120.309 65.148,120.442 65.166 C 120.575 65.185,122.375 64.399,124.442 63.419 C 126.509 62.440,128.020 61.634,127.800 61.628 C 127.580 61.623,125.780 62.409,123.800 63.375 M116.135 67.300 C 114.136 68.455,112.073 69.723,111.550 70.118 C 111.028 70.512,111.410 70.369,112.400 69.799 C 113.390 69.229,115.505 68.035,117.100 67.145 C 119.588 65.757,120.386 65.200,119.885 65.200 C 119.822 65.200,118.134 66.145,116.135 67.300 M106.147 73.651 C 91.576 84.175,78.374 99.504,71.225 114.200 C 68.395 120.017,66.230 125.164,66.499 125.433 C 66.585 125.518,67.158 124.286,67.773 122.694 C 74.796 104.513,89.464 85.938,106.200 74.031 C 110.101 71.255,110.683 70.800,110.327 70.800 C 110.199 70.800,108.318 72.083,106.147 73.651 M173.800 87.392 C 174.900 87.687,175.854 87.876,175.920 87.811 C 176.141 87.594,173.493 86.800,172.640 86.827 C 172.178 86.842,172.700 87.096,173.800 87.392 M177.200 88.600 C 177.750 88.914,178.380 89.172,178.600 89.172 C 178.820 89.172,178.550 88.914,178.000 88.600 C 177.450 88.286,176.820 88.028,176.600 88.028 C 176.380 88.028,176.650 88.286,177.200 88.600 M160.495 90.377 C 157.967 92.208,154.779 97.555,154.808 99.915 C 154.813 100.292,155.237 99.411,155.750 97.957 C 156.928 94.620,158.809 91.870,160.828 90.534 C 162.241 89.599,162.669 89.200,162.260 89.200 C 162.183 89.200,161.389 89.730,160.495 90.377 M179.200 89.324 C 179.200 89.417,179.920 89.970,180.799 90.552 C 182.762 91.851,185.001 95.142,186.046 98.262 C 186.550 99.768,186.750 100.102,186.608 99.200 C 186.110 96.037,183.030 91.378,180.445 89.877 C 179.760 89.480,179.200 89.231,179.200 89.324 M154.493 102.000 C 154.493 102.770,154.575 103.085,154.676 102.700 C 154.776 102.315,154.776 101.685,154.676 101.300 C 154.575 100.915,154.493 101.230,154.493 102.000 M39.406 104.492 C 37.514 108.629,35.103 114.837,35.309 115.042 C 35.394 115.127,36.059 113.623,36.787 111.698 C 37.515 109.774,38.807 106.687,39.659 104.837 C 40.510 102.987,41.142 101.409,41.063 101.329 C 40.983 101.250,40.238 102.673,39.406 104.492 M300.836 102.200 C 300.836 102.420,301.270 103.410,301.800 104.400 C 302.330 105.390,302.764 106.020,302.764 105.800 C 302.764 105.580,302.330 104.590,301.800 103.600 C 301.270 102.610,300.836 101.980,300.836 102.200 M187.388 124.886 C 187.399 145.351,187.446 146.818,188.114 147.486 C 188.782 148.154,190.265 148.201,211.114 148.212 L 233.400 148.223 211.314 148.012 C 190.812 147.815,189.177 147.749,188.514 147.086 C 187.852 146.424,187.785 144.803,187.588 124.686 L 187.376 103.000 187.388 124.886 M154.000 124.930 L 154.000 146.261 153.078 147.127 C 152.158 147.991,152.095 147.993,130.178 148.100 L 108.200 148.207 130.318 148.303 L 152.436 148.400 153.418 147.418 L 154.400 146.436 154.400 125.018 C 154.400 113.238,154.310 103.600,154.200 103.600 C 154.090 103.600,154.000 113.199,154.000 124.930 M302.950 106.800 C 303.301 108.099,304.509 110.824,304.665 110.668 C 304.756 110.578,304.370 109.535,303.809 108.352 C 303.247 107.168,302.861 106.470,302.950 106.800 M304.828 111.200 C 304.837 111.702,309.560 125.345,309.579 124.922 C 309.605 124.325,305.714 112.523,305.202 111.646 C 304.994 111.291,304.826 111.090,304.828 111.200 M33.841 118.676 C 33.269 120.396,32.814 121.982,32.830 122.201 C 32.847 122.421,33.385 121.083,34.026 119.229 C 34.668 117.376,35.123 115.789,35.037 115.704 C 34.952 115.619,34.414 116.956,33.841 118.676 M271.236 116.600 C 271.236 116.820,271.670 117.810,272.200 118.800 C 272.730 119.790,273.164 120.420,273.164 120.200 C 273.164 119.980,272.730 118.990,272.200 118.000 C 271.670 117.010,271.236 116.380,271.236 116.600 M273.246 121.000 C 273.253 121.220,273.606 122.120,274.029 123.000 C 274.452 123.880,274.686 124.150,274.549 123.600 C 274.267 122.467,273.225 120.388,273.246 121.000 M31.835 125.435 C 31.467 126.901,31.240 128.174,31.331 128.264 C 31.421 128.355,31.797 127.230,32.165 125.765 C 32.533 124.299,32.760 123.026,32.669 122.936 C 32.579 122.845,32.203 123.970,31.835 125.435 M274.968 125.470 C 275.791 128.151,277.544 132.938,277.570 132.575 C 277.609 132.021,275.286 125.147,274.955 124.838 C 274.815 124.707,274.821 124.991,274.968 125.470 M309.668 126.000 C 309.688 127.039,310.318 128.746,310.332 127.800 C 310.338 127.360,310.189 126.640,310.000 126.200 C 309.789 125.710,309.661 125.632,309.668 126.000 M65.041 129.076 C 64.469 130.796,64.014 132.382,64.030 132.601 C 64.047 132.821,64.585 131.483,65.226 129.629 C 65.868 127.776,66.323 126.189,66.237 126.104 C 66.152 126.019,65.614 127.356,65.041 129.076 M310.480 129.400 C 310.480 129.840,310.624 130.650,310.800 131.200 C 311.054 131.992,311.120 132.033,311.120 131.400 C 311.120 130.960,310.976 130.150,310.800 129.600 C 310.546 128.808,310.480 128.767,310.480 129.400 M62.871 136.498 C 62.392 138.408,62.016 140.203,62.036 140.486 C 62.056 140.768,62.501 139.380,63.026 137.400 C 63.550 135.420,63.926 133.626,63.861 133.413 C 63.795 133.200,63.350 134.588,62.871 136.498 M277.850 134.400 C 277.990 135.170,278.261 136.160,278.454 136.600 C 278.694 137.149,278.724 136.961,278.550 136.000 C 278.410 135.230,278.139 134.240,277.946 133.800 C 277.706 133.251,277.676 133.439,277.850 134.400 M29.008 138.208 C 28.611 140.524,28.366 142.500,28.464 142.597 C 28.562 142.695,28.965 140.879,29.360 138.560 C 29.755 136.241,30.000 134.266,29.904 134.171 C 29.808 134.075,29.405 135.892,29.008 138.208 M311.846 135.606 C 311.965 136.600,312.222 138.040,312.416 138.806 C 312.702 139.934,312.726 139.794,312.544 138.077 C 312.420 136.910,312.164 135.470,311.974 134.877 C 311.717 134.073,311.684 134.259,311.846 135.606 M278.880 138.200 C 278.880 138.640,279.024 139.450,279.200 140.000 C 279.454 140.792,279.520 140.833,279.520 140.200 C 279.520 139.760,279.376 138.950,279.200 138.400 C 278.946 137.608,278.880 137.567,278.880 138.200 M312.893 141.600 C 312.893 142.370,312.975 142.685,313.076 142.300 C 313.176 141.915,313.176 141.285,313.076 140.900 C 312.975 140.515,312.893 140.830,312.893 141.600 M61.400 142.800 C 61.246 143.710,61.204 144.538,61.307 144.640 C 61.410 144.743,61.613 144.077,61.760 143.160 C 61.907 142.243,61.948 141.415,61.853 141.320 C 61.758 141.224,61.554 141.890,61.400 142.800 M279.680 141.800 C 279.680 142.240,279.824 143.050,280.000 143.600 C 280.254 144.392,280.320 144.433,280.320 143.800 C 280.320 143.360,280.176 142.550,280.000 142.000 C 279.746 141.208,279.680 141.167,279.680 141.800 M27.800 145.600 C 27.644 146.947,27.601 148.134,27.705 148.238 C 27.809 148.342,28.019 147.322,28.171 145.971 C 28.324 144.621,28.367 143.434,28.267 143.333 C 28.166 143.233,27.956 144.253,27.800 145.600 M313.269 144.000 C 313.256 144.550,313.395 145.720,313.577 146.600 C 313.789 147.626,313.916 147.841,313.931 147.200 C 313.944 146.650,313.805 145.480,313.623 144.600 C 313.411 143.574,313.284 143.359,313.269 144.000 M280.685 147.200 C 280.807 148.630,280.972 149.875,281.053 149.967 C 281.320 150.270,281.111 147.022,280.785 145.800 C 280.582 145.044,280.546 145.562,280.685 147.200 M60.493 148.800 C 60.493 149.570,60.575 149.885,60.676 149.500 C 60.776 149.115,60.776 148.485,60.676 148.100 C 60.575 147.715,60.493 148.030,60.493 148.800 M314.120 150.400 C 314.120 151.610,314.195 152.105,314.287 151.500 C 314.378 150.895,314.378 149.905,314.287 149.300 C 314.195 148.695,314.120 149.190,314.120 150.400 M27.320 150.800 C 27.320 152.010,27.395 152.505,27.487 151.900 C 27.578 151.295,27.578 150.305,27.487 149.700 C 27.395 149.095,27.320 149.590,27.320 150.800 M100.351 150.900 C 95.990 153.839,93.600 158.326,93.373 164.000 L 93.253 167.000 93.579 164.000 C 94.319 157.184,96.769 153.231,102.165 150.144 C 103.064 149.630,103.591 149.207,103.336 149.205 C 103.081 149.202,101.738 149.965,100.351 150.900 M239.435 150.144 C 242.373 151.825,243.643 152.964,245.234 155.346 C 246.095 156.636,246.800 157.521,246.800 157.314 C 246.800 155.576,240.074 149.186,238.264 149.205 C 238.009 149.207,238.536 149.630,239.435 150.144 M60.109 152.000 C 60.109 152.990,60.187 153.395,60.282 152.900 C 60.378 152.405,60.378 151.595,60.282 151.100 C 60.187 150.605,60.109 151.010,60.109 152.000 M281.320 152.400 C 281.320 153.610,281.395 154.105,281.487 153.500 C 281.578 152.895,281.578 151.905,281.487 151.300 C 281.395 150.695,281.320 151.190,281.320 152.400 M314.537 155.800 C 314.539 157.560,314.609 158.230,314.693 157.289 C 314.778 156.349,314.777 154.909,314.691 154.089 C 314.605 153.270,314.536 154.040,314.537 155.800 M26.937 156.200 C 26.939 157.960,27.009 158.630,27.093 157.689 C 27.178 156.749,27.177 155.309,27.091 154.489 C 27.005 153.670,26.936 154.440,26.937 156.200 M59.724 156.200 C 59.726 157.520,59.801 158.012,59.890 157.293 C 59.979 156.574,59.977 155.494,59.886 154.893 C 59.795 154.292,59.722 154.880,59.724 156.200 M281.714 156.600 C 281.717 157.700,281.795 158.103,281.887 157.495 C 281.979 156.886,281.977 155.986,281.882 155.495 C 281.787 155.003,281.711 155.500,281.714 156.600 M59.359 164.400 C 59.359 167.590,59.421 168.895,59.497 167.300 C 59.573 165.705,59.573 163.095,59.497 161.500 C 59.421 159.905,59.359 161.210,59.359 164.400 M282.159 164.400 C 282.159 167.590,282.221 168.895,282.297 167.300 C 282.373 165.705,282.373 163.095,282.297 161.500 C 282.221 159.905,282.159 161.210,282.159 164.400 M314.962 165.400 C 314.962 168.920,315.024 170.306,315.098 168.481 C 315.172 166.656,315.172 163.776,315.097 162.081 C 315.022 160.386,314.961 161.880,314.962 165.400 M26.555 164.600 C 26.556 167.460,26.620 168.578,26.697 167.083 C 26.774 165.589,26.774 163.249,26.696 161.883 C 26.618 160.518,26.555 161.740,26.555 164.600 M247.932 165.000 C 247.784 166.760,247.561 168.650,247.436 169.200 C 247.311 169.750,247.481 169.390,247.815 168.400 C 248.163 167.364,248.374 165.582,248.310 164.200 L 248.200 161.800 247.932 165.000 M93.791 168.375 C 94.512 172.900,100.644 180.017,103.800 179.989 C 104.020 179.987,103.210 179.440,102.000 178.774 C 98.093 176.621,95.878 173.878,94.337 169.281 C 93.853 167.839,93.653 167.506,93.791 168.375 M26.937 173.000 C 26.939 174.760,27.009 175.430,27.093 174.489 C 27.178 173.549,27.177 172.109,27.091 171.289 C 27.005 170.470,26.936 171.240,26.937 173.000 M59.724 172.600 C 59.726 173.920,59.801 174.412,59.890 173.693 C 59.979 172.974,59.977 171.894,59.886 171.293 C 59.795 170.692,59.722 171.280,59.724 172.600 M245.877 172.556 C 244.507 175.172,242.461 177.199,239.600 178.774 C 238.390 179.440,237.580 179.987,237.800 179.989 C 240.162 180.010,248.315 171.782,247.118 170.585 C 247.043 170.509,246.484 171.396,245.877 172.556 M281.714 172.200 C 281.717 173.300,281.795 173.703,281.887 173.095 C 281.979 172.486,281.977 171.586,281.882 171.095 C 281.787 170.603,281.711 171.100,281.714 172.200 M314.534 174.800 C 314.534 176.450,314.605 177.125,314.691 176.300 C 314.778 175.475,314.778 174.125,314.691 173.300 C 314.605 172.475,314.534 173.150,314.534 174.800 M281.320 176.800 C 281.320 178.010,281.395 178.505,281.487 177.900 C 281.578 177.295,281.578 176.305,281.487 175.700 C 281.395 175.095,281.320 175.590,281.320 176.800 M60.109 176.800 C 60.109 177.790,60.187 178.195,60.282 177.700 C 60.378 177.205,60.378 176.395,60.282 175.900 C 60.187 175.405,60.109 175.810,60.109 176.800 M27.320 178.400 C 27.320 179.610,27.395 180.105,27.487 179.500 C 27.578 178.895,27.578 177.905,27.487 177.300 C 27.395 176.695,27.320 177.190,27.320 178.400 M314.109 179.600 C 314.109 180.590,314.187 180.995,314.282 180.500 C 314.378 180.005,314.378 179.195,314.282 178.700 C 314.187 178.205,314.109 178.610,314.109 179.600 M60.501 180.200 C 60.505 181.080,60.587 181.393,60.683 180.895 C 60.779 180.398,60.775 179.678,60.675 179.295 C 60.575 178.913,60.496 179.320,60.501 180.200 M280.901 180.600 C 280.905 181.480,280.987 181.793,281.083 181.295 C 281.179 180.798,281.175 180.078,281.075 179.695 C 280.975 179.313,280.896 179.720,280.901 180.600 M117.300 180.700 C 123.405 180.762,133.395 180.762,139.500 180.700 C 145.605 180.638,140.610 180.587,128.400 180.587 C 116.190 180.587,111.195 180.638,117.300 180.700 M202.528 180.700 C 208.649 180.762,218.549 180.762,224.528 180.700 C 230.508 180.637,225.500 180.587,213.400 180.587 C 201.300 180.587,196.408 180.638,202.528 180.700 M27.693 182.000 C 27.693 182.770,27.775 183.085,27.876 182.700 C 27.976 182.315,27.976 181.685,27.876 181.300 C 27.775 180.915,27.693 181.230,27.693 182.000 M151.871 181.078 C 153.813 181.457,153.787 181.176,154.007 203.961 L 154.214 225.400 154.307 204.154 C 154.410 180.719,154.407 180.696,151.871 180.854 L 151.000 180.909 151.871 181.078 M188.262 181.531 C 187.898 181.934,187.600 182.418,187.600 182.608 C 187.600 182.798,187.825 182.645,188.100 182.268 C 188.376 181.892,189.141 181.423,189.800 181.226 C 190.971 180.878,190.975 180.868,189.962 180.834 C 189.391 180.815,188.626 181.129,188.262 181.531 M313.701 183.000 C 313.705 183.880,313.787 184.193,313.883 183.695 C 313.979 183.198,313.975 182.478,313.875 182.095 C 313.775 181.713,313.696 182.120,313.701 183.000 M280.240 184.040 C 280.093 184.957,280.052 185.785,280.147 185.880 C 280.242 185.976,280.446 185.310,280.600 184.400 C 280.754 183.490,280.796 182.662,280.693 182.560 C 280.590 182.457,280.387 183.123,280.240 184.040 M187.386 204.600 C 187.387 216.480,187.438 221.282,187.500 215.272 C 187.562 209.261,187.562 199.541,187.500 193.672 C 187.437 187.802,187.386 192.720,187.386 204.600 M28.093 184.800 C 28.093 185.570,28.175 185.885,28.276 185.500 C 28.376 185.115,28.376 184.485,28.276 184.100 C 28.175 183.715,28.093 184.030,28.093 184.800 M313.293 186.000 C 313.293 186.770,313.375 187.085,313.476 186.700 C 313.576 186.315,313.576 185.685,313.476 185.300 C 313.375 184.915,313.293 185.230,313.293 186.000 M61.680 187.000 C 61.680 187.440,61.824 188.250,62.000 188.800 C 62.254 189.592,62.320 189.633,62.320 189.000 C 62.320 188.560,62.176 187.750,62.000 187.200 C 61.746 186.408,61.680 186.367,61.680 187.000 M312.290 191.644 C 311.907 193.889,311.666 195.800,311.755 195.889 C 311.987 196.120,313.314 188.543,313.136 188.007 C 313.054 187.762,312.673 189.398,312.290 191.644 M278.667 191.267 C 278.291 192.834,278.055 194.189,278.144 194.277 C 278.232 194.365,278.617 193.161,279.000 191.600 C 279.383 190.039,279.618 188.685,279.523 188.590 C 279.428 188.495,279.043 189.699,278.667 191.267 M28.895 189.600 C 28.895 190.150,29.032 191.140,29.200 191.800 C 29.472 192.870,29.505 192.892,29.505 192.000 C 29.505 191.450,29.368 190.460,29.200 189.800 C 28.928 188.730,28.895 188.708,28.895 189.600 M29.646 193.772 C 29.589 194.726,31.619 203.314,31.848 203.086 C 31.939 202.994,31.572 201.048,31.033 198.760 C 30.494 196.472,29.972 194.240,29.873 193.800 C 29.702 193.042,29.690 193.040,29.646 193.772 M63.656 195.200 C 63.656 195.530,63.811 196.160,64.000 196.600 C 64.217 197.104,64.344 197.178,64.344 196.800 C 64.344 196.470,64.189 195.840,64.000 195.400 C 63.783 194.896,63.656 194.822,63.656 195.200 M277.236 196.436 C 276.966 197.339,276.818 198.152,276.908 198.242 C 276.998 198.332,277.293 197.666,277.564 196.764 C 277.834 195.861,277.982 195.048,277.892 194.958 C 277.802 194.868,277.507 195.534,277.236 196.436 M310.271 200.871 C 309.671 203.314,309.252 205.385,309.340 205.473 C 309.428 205.561,309.995 203.638,310.600 201.200 C 311.205 198.762,311.624 196.691,311.532 196.598 C 311.439 196.506,310.872 198.429,310.271 200.871 M65.299 200.500 C 65.400 200.775,65.798 201.957,66.182 203.126 C 66.567 204.295,66.952 205.181,67.038 205.095 C 67.241 204.893,65.592 200.000,65.320 200.000 C 65.207 200.000,65.197 200.225,65.299 200.500 M274.048 205.796 C 265.620 227.983,246.868 249.409,225.344 261.446 C 223.945 262.229,222.800 262.961,222.800 263.073 C 222.800 263.408,227.112 260.895,231.800 257.828 C 247.719 247.410,261.930 231.696,269.988 215.600 C 272.740 210.104,275.801 202.868,275.502 202.568 C 275.411 202.477,274.756 203.930,274.048 205.796 M32.261 204.786 C 32.524 206.304,33.530 209.241,33.566 208.600 C 33.579 208.380,33.236 207.120,32.805 205.800 C 32.373 204.480,32.128 204.024,32.261 204.786 M67.223 205.726 C 67.189 206.214,68.885 210.048,69.059 209.874 C 69.142 209.792,68.768 208.751,68.228 207.562 C 67.688 206.373,67.236 205.547,67.223 205.726 M306.952 211.920 C 305.826 215.154,304.780 218.160,304.627 218.600 C 304.457 219.089,304.574 219.011,304.927 218.400 C 305.665 217.123,309.261 206.775,309.112 206.356 C 309.050 206.183,308.079 208.687,306.952 211.920 M69.216 210.506 C 69.207 210.674,70.351 213.104,71.757 215.906 C 80.749 233.822,98.250 251.850,116.500 261.998 C 120.412 264.173,119.037 263.087,114.300 260.261 C 96.359 249.557,81.260 233.651,72.116 215.823 C 70.529 212.731,69.224 210.338,69.216 210.506 M34.400 211.712 C 34.400 212.235,36.899 218.834,37.043 218.690 C 37.126 218.607,36.642 217.023,35.966 215.171 C 34.823 212.041,34.400 211.106,34.400 211.712 M37.230 219.274 C 37.182 219.710,39.297 224.436,39.464 224.269 C 39.548 224.186,39.085 222.966,38.437 221.559 C 37.789 220.151,37.246 219.123,37.230 219.274 M303.253 221.653 C 302.780 222.793,302.458 223.792,302.539 223.872 C 302.620 223.953,303.073 223.086,303.547 221.947 C 304.020 220.807,304.342 219.808,304.261 219.728 C 304.180 219.647,303.727 220.514,303.253 221.653 M300.439 227.915 C 296.893 235.081,291.611 243.656,287.131 249.521 C 285.044 252.252,284.576 253.431,285.004 254.871 C 285.156 255.382,306.123 276.680,331.598 302.200 C 366.607 337.272,378.217 349.137,379.153 350.800 C 379.835 352.010,380.394 352.810,380.396 352.578 C 380.411 350.950,373.672 343.938,331.790 302.000 C 299.272 269.439,285.569 255.463,285.372 254.658 C 285.019 253.218,285.595 252.085,289.106 247.303 C 293.734 241.000,302.933 225.200,302.327 224.594 C 302.237 224.504,301.387 225.998,300.439 227.915 M39.609 224.906 C 39.604 225.075,40.663 227.325,41.961 229.906 C 52.064 249.987,68.237 268.665,87.622 282.637 C 92.260 285.980,99.200 290.308,99.200 289.856 C 99.200 289.762,97.625 288.741,95.700 287.588 C 74.347 274.793,54.648 253.601,42.728 230.600 C 41.017 227.300,39.614 224.738,39.609 224.906 M154.493 227.200 C 154.493 227.970,154.575 228.285,154.676 227.900 C 154.776 227.515,154.776 226.885,154.676 226.500 C 154.575 226.115,154.493 226.430,154.493 227.200 M185.207 232.730 C 184.033 235.414,182.078 237.702,179.622 239.267 C 178.644 239.890,178.032 240.400,178.262 240.400 C 180.396 240.400,186.967 232.572,186.322 230.797 C 186.255 230.612,185.753 231.482,185.207 232.730 M155.619 231.713 C 155.503 233.661,161.514 240.400,163.367 240.400 C 163.581 240.400,162.956 239.883,161.978 239.252 C 159.631 237.737,157.915 235.848,156.661 233.400 C 156.098 232.300,155.629 231.541,155.619 231.713 M164.400 240.733 C 164.730 240.936,165.450 241.224,166.000 241.371 C 166.695 241.557,166.817 241.525,166.400 241.267 C 166.070 241.064,165.350 240.776,164.800 240.629 C 164.105 240.443,163.983 240.475,164.400 240.733 M174.000 241.600 C 173.176 241.864,173.141 241.926,173.800 241.954 C 174.240 241.973,174.870 241.813,175.200 241.600 C 175.901 241.147,175.414 241.147,174.000 241.600 M167.800 242.020 C 168.578 242.335,173.100 242.547,172.767 242.253 C 172.675 242.172,171.340 242.014,169.800 241.901 C 168.198 241.784,167.342 241.835,167.800 242.020 M124.600 266.018 C 126.800 267.089,128.780 267.962,129.000 267.957 C 129.220 267.953,127.529 267.061,125.243 265.975 C 122.957 264.889,120.977 264.016,120.843 264.035 C 120.709 264.055,122.400 264.947,124.600 266.018 M216.200 266.009 C 214.000 267.076,212.380 267.952,212.600 267.957 C 212.820 267.961,214.800 267.089,217.000 266.018 C 219.200 264.947,220.820 264.070,220.600 264.070 C 220.380 264.070,218.400 264.942,216.200 266.009 M206.600 269.814 C 205.600 270.296,205.566 270.351,206.400 270.148 C 207.533 269.871,208.807 269.221,208.200 269.230 C 207.980 269.233,207.260 269.496,206.600 269.814 M199.000 272.000 C 197.900 272.406,197.270 272.738,197.600 272.738 C 197.930 272.738,199.100 272.406,200.200 272.000 C 201.300 271.594,201.930 271.262,201.600 271.262 C 201.270 271.262,200.100 271.594,199.000 272.000 M189.200 274.000 C 188.408 274.254,188.367 274.320,189.000 274.320 C 189.440 274.320,190.250 274.176,190.800 274.000 C 191.592 273.746,191.633 273.680,191.000 273.680 C 190.560 273.680,189.750 273.824,189.200 274.000 M152.400 274.400 C 152.950 274.576,153.850 274.717,154.400 274.713 C 155.298 274.706,155.278 274.674,154.200 274.400 C 152.508 273.969,151.056 273.969,152.400 274.400 M156.305 275.083 C 156.802 275.179,157.522 275.175,157.905 275.075 C 158.287 274.975,157.880 274.896,157.000 274.901 C 156.120 274.905,155.807 274.987,156.305 275.083 M183.905 275.083 C 184.402 275.179,185.122 275.175,185.505 275.075 C 185.887 274.975,185.480 274.896,184.600 274.901 C 183.720 274.905,183.407 274.987,183.905 275.083 M165.100 275.499 C 168.235 275.567,173.365 275.567,176.500 275.499 C 179.635 275.432,177.070 275.376,170.800 275.376 C 164.530 275.376,161.965 275.432,165.100 275.499 M257.028 280.100 C 256.004 280.815,252.968 282.913,250.283 284.761 C 247.597 286.610,245.220 288.301,245.000 288.518 C 244.084 289.424,247.419 287.257,252.048 283.940 C 254.772 281.988,257.720 280.037,258.600 279.604 C 259.480 279.171,259.905 278.814,259.545 278.809 C 259.185 278.804,258.052 279.385,257.028 280.100 M261.200 279.243 C 261.750 279.458,283.080 300.488,308.600 325.974 C 359.267 376.575,357.018 374.509,362.436 375.425 C 363.207 375.555,362.627 375.226,361.103 374.667 C 355.815 372.730,356.082 372.980,308.191 325.150 C 276.902 293.901,261.524 278.808,260.991 278.825 C 260.330 278.847,260.365 278.915,261.200 279.243 M241.499 290.351 C 240.013 291.186,238.663 292.019,238.499 292.203 C 238.124 292.622,243.661 289.659,244.180 289.163 C 244.827 288.545,244.297 288.779,241.499 290.351 M99.600 290.168 C 99.600 290.437,106.414 294.120,106.587 293.944 C 106.665 293.865,105.125 292.940,103.165 291.888 C 101.204 290.837,99.600 290.063,99.600 290.168 M236.400 293.200 C 235.630 293.622,235.144 293.974,235.320 293.983 C 235.744 294.005,238.000 292.832,238.000 292.590 C 238.000 292.328,237.977 292.337,236.400 293.200 M112.000 296.600 C 112.990 297.130,113.980 297.564,114.200 297.564 C 114.420 297.564,113.790 297.130,112.800 296.600 C 111.810 296.070,110.820 295.636,110.600 295.636 C 110.380 295.636,111.010 296.070,112.000 296.600 M229.200 296.600 C 228.210 297.130,227.580 297.564,227.800 297.564 C 228.020 297.564,229.010 297.130,230.000 296.600 C 230.990 296.070,231.620 295.636,231.400 295.636 C 231.180 295.636,230.190 296.070,229.200 296.600 M115.200 297.933 C 115.530 298.136,116.250 298.424,116.800 298.571 C 117.495 298.757,117.617 298.725,117.200 298.467 C 116.870 298.264,116.150 297.976,115.600 297.829 C 114.905 297.643,114.783 297.675,115.200 297.933 M225.400 298.214 C 224.400 298.696,224.366 298.751,225.200 298.548 C 226.333 298.271,227.607 297.621,227.000 297.630 C 226.780 297.633,226.060 297.896,225.400 298.214 M119.400 299.622 C 120.280 300.038,121.270 300.375,121.600 300.371 C 121.930 300.366,121.300 300.011,120.200 299.582 C 117.696 298.604,117.292 298.624,119.400 299.622 M222.400 299.400 C 221.850 299.714,221.580 299.972,221.800 299.972 C 222.020 299.972,222.650 299.714,223.200 299.400 C 223.750 299.086,224.020 298.828,223.800 298.828 C 223.580 298.828,222.950 299.086,222.400 299.400 M217.200 301.200 C 215.550 301.834,214.390 302.364,214.622 302.377 C 214.855 302.389,216.475 301.869,218.222 301.219 C 219.970 300.570,221.130 300.041,220.800 300.043 C 220.470 300.045,218.850 300.566,217.200 301.200 M124.000 301.133 C 124.330 301.336,125.050 301.624,125.600 301.771 C 126.295 301.957,126.417 301.925,126.000 301.667 C 125.670 301.464,124.950 301.176,124.400 301.029 C 123.705 300.843,123.583 300.875,124.000 301.133 M127.400 302.400 C 127.840 302.589,128.560 302.738,129.000 302.732 C 129.643 302.723,129.604 302.657,128.800 302.400 C 127.432 301.962,126.381 301.962,127.400 302.400 M131.200 303.400 C 131.970 303.697,132.870 303.939,133.200 303.939 C 133.530 303.939,133.170 303.697,132.400 303.400 C 131.630 303.103,130.730 302.861,130.400 302.861 C 130.070 302.861,130.430 303.103,131.200 303.400 M210.000 303.400 C 209.230 303.697,208.870 303.939,209.200 303.939 C 209.530 303.939,210.430 303.697,211.200 303.400 C 211.970 303.103,212.330 302.861,212.000 302.861 C 211.670 302.861,210.770 303.103,210.000 303.400 M138.600 305.200 C 140.292 305.631,141.744 305.631,140.400 305.200 C 139.850 305.024,138.950 304.883,138.400 304.887 C 137.502 304.894,137.522 304.926,138.600 305.200 M142.200 306.000 C 142.640 306.189,143.360 306.338,143.800 306.332 C 144.443 306.323,144.404 306.257,143.600 306.000 C 142.232 305.562,141.181 305.562,142.200 306.000 M147.900 307.082 C 148.395 307.178,149.205 307.178,149.700 307.082 C 150.195 306.987,149.790 306.909,148.800 306.909 C 147.810 306.909,147.405 306.987,147.900 307.082 M192.700 307.082 C 193.195 307.178,194.005 307.178,194.500 307.082 C 194.995 306.987,194.590 306.909,193.600 306.909 C 192.610 306.909,192.205 306.987,192.700 307.082 M151.905 307.483 C 152.402 307.579,153.122 307.575,153.505 307.475 C 153.887 307.375,153.480 307.296,152.600 307.301 C 151.720 307.305,151.407 307.387,151.905 307.483 M189.300 307.476 C 189.685 307.576,190.315 307.576,190.700 307.476 C 191.085 307.375,190.770 307.293,190.000 307.293 C 189.230 307.293,188.915 307.375,189.300 307.476 M154.900 307.876 C 155.285 307.976,155.915 307.976,156.300 307.876 C 156.685 307.775,156.370 307.693,155.600 307.693 C 154.830 307.693,154.515 307.775,154.900 307.876 M184.800 308.000 C 183.738 308.224,183.641 308.302,184.400 308.324 C 184.950 308.341,186.120 308.205,187.000 308.023 C 188.334 307.747,188.400 307.693,187.400 307.699 C 186.740 307.702,185.570 307.838,184.800 308.000 M157.700 308.276 C 158.085 308.376,158.715 308.376,159.100 308.276 C 159.485 308.175,159.170 308.093,158.400 308.093 C 157.630 308.093,157.315 308.175,157.700 308.276 M161.107 308.690 C 161.826 308.779,162.906 308.777,163.507 308.686 C 164.108 308.595,163.520 308.522,162.200 308.524 C 160.880 308.526,160.388 308.601,161.107 308.690 M179.907 308.690 C 180.626 308.779,181.706 308.777,182.307 308.686 C 182.908 308.595,182.320 308.522,181.000 308.524 C 179.680 308.526,179.188 308.601,179.907 308.690 M168.300 309.098 C 170.115 309.172,173.085 309.172,174.900 309.098 C 176.715 309.023,175.230 308.963,171.600 308.963 C 167.970 308.963,166.485 309.023,168.300 309.098 M381.038 362.053 C 380.287 366.751,376.766 371.191,371.857 373.634 C 370.066 374.525,369.050 375.129,369.600 374.975 C 373.605 373.858,378.036 370.128,379.932 366.278 C 381.040 364.027,382.009 360.400,381.502 360.400 C 381.392 360.400,381.183 361.144,381.038 362.053 " stroke="none" fill="#949dac" fill-rule="evenodd"></path><path id="path5" d="M161.170 18.822 C 158.403 18.989,154.623 19.403,152.770 19.742 C 150.916 20.081,147.960 20.549,146.200 20.781 C 130.604 22.839,110.271 30.289,95.400 39.395 C 1.168 97.095,1.454 232.735,95.928 289.947 C 110.434 298.731,131.613 306.494,145.800 308.227 C 146.900 308.362,149.960 308.859,152.600 309.333 C 159.855 310.635,183.163 310.627,190.000 309.321 C 192.530 308.837,195.680 308.328,197.000 308.189 C 198.320 308.050,200.660 307.611,202.200 307.214 C 203.740 306.817,206.378 306.192,208.062 305.827 C 222.359 302.724,240.368 294.307,254.960 283.907 C 257.357 282.198,259.693 280.800,260.149 280.800 C 260.717 280.800,275.573 295.372,307.189 326.937 L 353.400 373.075 357.200 375.036 L 361.000 376.996 365.230 376.998 C 376.782 377.003,386.059 365.518,383.016 354.979 C 381.318 349.098,383.384 351.336,333.527 301.389 C 295.682 263.476,287.200 254.787,287.200 253.933 C 287.200 253.317,287.969 251.844,289.074 250.344 C 316.479 213.133,324.062 164.592,309.578 119.087 C 295.198 73.908,257.696 37.546,212.000 24.472 C 206.812 22.987,197.213 20.800,195.887 20.800 C 195.346 20.800,192.823 20.439,190.279 19.997 C 181.958 18.552,172.188 18.158,161.170 18.822 M177.984 19.606 C 193.087 20.780,207.158 23.615,219.855 28.042 C 271.995 46.223,308.066 92.559,314.952 150.200 C 319.019 184.244,308.670 222.449,287.930 249.960 C 284.417 254.619,279.425 248.794,332.351 301.789 C 380.167 349.668,380.154 349.654,381.646 354.450 C 385.096 365.533,374.058 378.289,362.948 376.058 C 356.314 374.726,359.662 377.766,307.989 326.155 C 269.817 288.028,261.189 279.600,260.330 279.600 C 259.268 279.600,257.951 280.404,252.240 284.538 C 237.082 295.512,212.096 305.566,195.400 307.411 C 194.080 307.557,190.750 308.054,188.000 308.516 C 180.512 309.773,163.121 309.760,154.600 308.491 C 151.300 307.999,147.790 307.500,146.800 307.382 C 105.704 302.474,62.051 270.647,41.850 230.862 C -2.107 144.291,48.729 40.261,143.800 22.233 C 156.862 19.756,168.455 18.865,177.984 19.606 M160.200 54.388 C 158.000 54.570,155.379 54.910,154.375 55.144 C 153.372 55.378,150.942 55.844,148.975 56.179 C 102.761 64.052,65.460 105.499,60.759 154.200 C 55.363 210.109,94.797 263.256,148.800 272.855 C 158.949 274.659,160.499 274.795,170.800 274.795 C 180.936 274.794,181.743 274.726,192.000 273.003 C 224.329 267.572,255.328 243.893,270.030 213.400 C 288.726 174.622,283.723 128.018,257.398 95.723 C 233.208 66.048,198.372 51.233,160.200 54.388 M188.600 56.589 C 209.265 60.173,223.528 66.494,239.200 79.013 C 296.990 125.178,292.966 214.736,231.251 255.950 C 219.774 263.615,203.066 270.411,191.800 271.998 C 190.040 272.246,187.070 272.749,185.200 273.116 C 178.722 274.388,161.477 274.050,152.600 272.477 C 78.694 259.383,39.704 180.728,73.830 113.573 C 87.003 87.651,114.132 65.838,142.000 58.762 C 157.652 54.788,173.858 54.032,188.600 56.589 M166.510 85.816 C 161.051 87.286,156.806 90.589,154.762 94.955 C 152.515 99.757,152.415 100.999,152.407 124.038 C 152.400 143.906,152.359 145.113,151.669 145.738 C 151.007 146.336,148.899 146.401,129.769 146.407 C 106.729 146.415,105.103 146.542,100.909 148.664 C 89.218 154.579,88.454 172.448,99.586 179.591 C 103.675 182.215,103.097 182.159,128.333 182.390 C 150.443 182.592,151.285 182.628,151.833 183.376 C 152.305 184.023,152.401 187.665,152.407 205.176 C 152.415 228.349,152.499 229.359,154.834 234.148 C 160.983 246.759,181.209 246.562,187.035 233.835 C 189.070 229.392,189.186 227.852,189.193 205.162 C 189.200 184.290,189.207 184.118,190.042 183.362 C 190.842 182.637,191.989 182.589,213.542 182.382 C 237.621 182.150,237.637 182.149,241.150 180.119 C 254.368 172.481,252.434 152.464,238.000 147.512 C 235.464 146.642,234.847 146.615,212.867 146.410 C 191.153 146.208,190.314 146.172,189.767 145.424 C 189.295 144.777,189.199 141.162,189.193 123.824 C 189.185 100.622,189.095 99.604,186.594 94.522 C 183.237 87.700,174.146 83.759,166.510 85.816 M173.245 86.406 C 177.984 87.299,183.087 90.500,185.013 93.787 C 187.831 98.594,187.751 97.812,187.987 123.086 C 188.185 144.352,188.251 146.023,188.914 146.686 C 189.578 147.350,191.256 147.414,212.914 147.603 C 235.840 147.803,236.234 147.820,238.400 148.698 C 251.814 154.137,252.483 173.447,239.477 179.774 C 236.153 181.391,233.111 181.584,210.762 181.592 C 189.891 181.600,189.718 181.607,188.962 182.442 C 188.237 183.242,188.189 184.391,187.980 205.942 C 187.814 223.084,187.632 228.990,187.234 230.200 C 181.580 247.410,158.336 246.638,154.202 229.104 C 153.721 227.062,153.611 222.663,153.606 205.274 C 153.600 183.983,153.529 182.767,152.240 181.906 C 151.998 181.744,142.350 181.606,130.800 181.598 C 118.897 181.590,108.593 181.410,107.012 181.181 C 89.987 178.721,87.489 154.805,103.600 148.520 C 105.219 147.888,107.744 147.797,128.686 147.609 C 150.340 147.415,152.022 147.350,152.686 146.686 C 153.349 146.023,153.415 144.353,153.613 123.086 C 153.852 97.424,153.764 98.204,156.992 93.335 C 159.100 90.157,163.695 87.287,168.043 86.433 C 170.500 85.950,170.818 85.949,173.245 86.406 " stroke="none" fill="#c7ccd4" fill-rule="evenodd"></path></g></svg>