<?xml version="1.0" encoding="UTF-8"?>
<svg xmlns="http://www.w3.org/2000/svg" xmlns:xlink="http://www.w3.org/1999/xlink" width="16px" height="16px" viewBox="0 0 16 16" version="1.1">
<g id="surface1">
<path style=" stroke:none;fill-rule:evenodd;fill:rgb(0%,0%,0%);fill-opacity:1;" d="M 2.761719 3.558594 C 1.746094 3.921875 1.679688 4.210938 1.679688 8.238281 C 1.679688 11.957031 1.691406 12.03125 2.191406 12.53125 C 2.714844 13.054688 2.617188 13.046875 8.257812 13.023438 C 13.957031 12.996094 13.570312 13.039062 14.113281 12.371094 L 14.359375 12.066406 L 14.359375 4.414062 L 14.113281 4.109375 C 13.570312 3.4375 13.96875 3.480469 8.199219 3.460938 C 3.929688 3.449219 3.027344 3.464844 2.761719 3.558594 M 13.195312 4.753906 C 13.246094 4.816406 13.277344 5.039062 13.265625 5.253906 L 13.238281 5.636719 L 11.078125 7.425781 C 7.859375 10.097656 8.328125 10.097656 5.039062 7.402344 C 2.59375 5.398438 2.550781 5.347656 2.925781 4.816406 L 3.050781 4.640625 L 8.074219 4.640625 C 12.324219 4.640625 13.113281 4.65625 13.195312 4.753906 M 13.191406 11.730469 C 13.117188 11.820312 12.234375 11.839844 8.074219 11.839844 L 3.050781 11.839844 L 2.925781 11.664062 C 2.769531 11.445312 2.734375 7.199219 2.886719 7.199219 C 2.929688 7.199219 3.785156 7.871094 4.785156 8.691406 C 7.96875 11.3125 8.191406 11.3125 11.398438 8.65625 L 13.238281 7.132812 L 13.261719 9.375 C 13.277344 10.964844 13.257812 11.652344 13.191406 11.730469 "/>
</g>
</svg>
