<?xml version="1.0" encoding="UTF-8"?>
<svg xmlns="http://www.w3.org/2000/svg" xmlns:xlink="http://www.w3.org/1999/xlink" width="20px" height="20px" viewBox="0 0 20 20" version="1.1">
<g id="surface1">
<path style=" stroke:none;fill-rule:evenodd;fill:rgb(0%,0%,0%);fill-opacity:1;" d="M 3.449219 4.449219 C 2.183594 4.902344 2.101562 5.265625 2.101562 10.300781 C 2.101562 14.945312 2.113281 15.039062 2.738281 15.664062 C 3.390625 16.320312 3.273438 16.308594 10.320312 16.277344 C 17.449219 16.246094 16.964844 16.300781 17.640625 15.464844 L 17.949219 15.082031 L 17.949219 5.519531 L 17.640625 5.132812 C 16.964844 4.296875 17.457031 4.351562 10.25 4.328125 C 4.914062 4.308594 3.785156 4.328125 3.449219 4.449219 M 16.492188 5.941406 C 16.558594 6.023438 16.597656 6.296875 16.582031 6.566406 L 16.550781 7.046875 L 13.851562 9.285156 C 9.824219 12.621094 10.410156 12.621094 6.300781 9.253906 C 3.242188 6.746094 3.191406 6.6875 3.65625 6.023438 L 3.8125 5.800781 L 10.09375 5.800781 C 15.402344 5.800781 16.394531 5.820312 16.492188 5.941406 M 16.488281 14.664062 C 16.394531 14.777344 15.292969 14.800781 10.09375 14.800781 L 3.8125 14.800781 L 3.65625 14.578125 C 3.464844 14.304688 3.417969 9 3.605469 9 C 3.664062 9 4.734375 9.839844 5.980469 10.867188 C 9.960938 14.140625 10.238281 14.136719 14.25 10.820312 L 16.550781 8.917969 L 16.578125 11.722656 C 16.59375 13.707031 16.570312 14.566406 16.488281 14.664062 "/>
</g>
</svg>
