<?xml version="1.0" encoding="UTF-8"?>
<svg id="Capa_1" data-name="Capa 1" xmlns="http://www.w3.org/2000/svg" xmlns:xlink="http://www.w3.org/1999/xlink" viewBox="0 0 1080 1080">
  <defs>
    <style>
      .cls-1 {
        fill: #fff;
      }

      .cls-2 {
        fill: #fdb718;
      }

      .cls-3 {
        fill: none;
        stroke: #fff;
        stroke-miterlimit: 10;
      }

      .cls-4 {
        fill: url(#Degradado_sin_nombre_3);
      }
    </style>
    <radialGradient id="Degradado_sin_nombre_3" data-name="Degradado sin nombre 3" cx="-613.26" cy="2703.07" fx="-904.17" fy="2681.72" r="540.01" gradientTransform="translate(1161.89 3241.14) scale(1 -1)" gradientUnits="userSpaceOnUse">
      <stop offset=".32" stop-color="#2d5ca8"/>
      <stop offset=".53" stop-color="#285496"/>
      <stop offset=".73" stop-color="#1f4272"/>
      <stop offset="1" stop-color="#0d2d4d"/>
    </radialGradient>
  </defs>
  <ellipse id="Circle" class="cls-4" cx="540" cy="540" rx="539.13" ry="540"/>
  <g id="PSE">
    <path class="cls-1" d="m685.41,407.15h-127.63c-.57,0-1.15-.08-1.71.03-20.31,4.41-58.58,25.2-58.38,70.62-1.05,17.47,6.59,45.29,43.06,56.88h90.98c4.03,0,28.87,5.69,27.22,49.1-1.67,43.76-38.91,49.45-44.27,55.24h-140.97c-4.44,0-8.05,4.24-8.05,8.7s3.61,8.7,8.05,8.7h141.74c.46,0,.91-2.12,1.36-2.2,19.35-3.32,56.42-23.2,58.23-70.76,2.34-61.51-42.09-65.39-42.54-65.42.06-.02-89.8-.26-89.8-.26-30.68-5.62-29.02-38.25-28.93-39.67.01-.2.02.31.02.12-.33-41.2,38.76-53.67,44.93-53.67h126.69c4.44,0,8.05-4.24,8.05-8.7,0-4.45-3.61-8.7-8.06-8.7Z"/>
    <path class="cls-1" d="m879.73,406.24c-.73-.21-1.5.91-2.26.91h-95.36c-43.17,0-62.67,50.07-63.47,52.25-.13.35-.23.09-.32.46-.99,4.48-24.23,109.78-23.45,144.54.75,32.71,34,44.6,51.48,46.47.29.03.58-.25.87-.25h132.58c4.5,0,8.16-4.19,8.16-8.7s-3.65-8.7-8.16-8.7h-132.08c-4.15,0-35.95-4.86-36.52-30.17-.31-13.59,3.55-39.59,8.21-65.86l184.51-1.38c3.94-.03,7.29-2.79,7.97-6.68.36-2.03,8.65-49.29,8.65-77.63,0-33.72-39.12-44.78-40.79-45.26Zm17.17,113.45l-174.51,1.46c5.36-28.48,10.81-51.82,11.73-56.02,1.86-4.67,17.87-40.6,47.98-40.6h94.07c5.09,0,28.02,9.02,28.02,28.13,0,20.9-5.01,52.79-7.3,67.02Z"/>
    <path class="cls-1" d="m473.42,456.1c4.79-32.62-36.34-48.95-44.04-48.95h-.02c-33.21,0-83.53,1.14-88.78.96-.7-.08-1.42.39-2.15.5-20.57,3.28-48.5,29.81-57.47,54.36l.14.17c-.9,2.74-1.68,6.96-2.88,13.3-1.45,7.67-3.48,18.65-5.91,31.8-4.84,26.26-11.22,61.29-17.59,96.3-12.73,70.02-25.37,140.04-25.37,140.04-.78,4.32,2.08,8.46,6.4,9.24.47.09.95.13,1.42.13,3.76,0,7.11-2.69,7.8-6.54,5.35-29.6,14.12-78.07,22.9-126.4,20.71,26.17,46.48,28.92,47.77,29.04.32.03.64.06.97.03l81.55-2.34c.7-.02,1.38-.13,2.05-.33,38.69-11.62,50.32-51.61,50.8-53.31.08-.28.14-.57.19-.87l22.14-135.82c.06-.29.06-1.03.1-1.32Zm-15.83-.31l-21.97,134.35c-1.15,3.6-11.25,32.8-39,41.74l-79.87,2.28c-3.68-.52-28.6-5.11-44.75-35.91,11.76-64.65,22.56-123.58,23.95-129.83,7.4-19.92,31.34-41.32,44.78-43.62,3.04.19,7.21.19,12.96.2,8.41.01,19.64,0,30.86-.02,18.59-.03,37.18-.09,42.99-.12,9.42-.07,32.33,15.95,30.04,30.92Z"/>
  </g>
  <g id="Figures">
    <ellipse class="cls-2" cx="106.07" cy="378.28" rx="22.7" ry="24.26"/>
    <path class="cls-2" d="m83.15,301.69c0-10.66-6.48-19.62-15.42-22.87-7.56,13.7-14.54,27.76-20.92,42.16,3.81,3.08,8.5,4.97,13.63,4.97,12.54,0,22.7-10.86,22.7-24.26Z"/>
    <path class="cls-2" d="m37.31,378.28c0-6.58-2.47-12.53-6.45-16.9-4.66,13.36-8.83,26.94-12.45,40.75,10.72-1.94,18.9-11.84,18.9-23.85Z"/>
    <ellipse class="cls-2" cx="109.24" cy="673.84" rx="22.7" ry="24.26"/>
    <path class="cls-2" d="m29.04,673.84c0-10.12-7.03-18.4-16.15-19.78,2.58,11.98,5.54,23.83,8.9,35.5,4.38-3.68,7.25-9.32,7.25-15.72Z"/>
    <path class="cls-2" d="m83.04,752.95c0-13.4-10.16-24.26-22.7-24.26-8.95,0-16.62,5.58-20.31,13.62,4.7,11.62,9.78,23.04,15.25,34.24,1.63.4,3.32.66,5.06.66,12.54,0,22.7-10.86,22.7-24.25Z"/>
    <path class="cls-2" d="m121.58,598.45h-45.53c-2.95-5.8-11.41-15.77-21.5-15.77-12.54,0-22.7,11.39-22.7,24.78s10.16,24.73,22.7,24.73c10.09,0,18.55-4.76,21.5-16.35h51.19l47.75-86.95h73.64v-11.59h-120.72l-49.63-86.95H11.79c-1.18,5.76-2.25,11.56-3.25,17.39h62.52l40.62,69.56H1.23c-.16,3.85-.28,7.72-.36,11.59h160.21l-39.49,69.57Z"/>
  </g>
  <g id="ach">
    <path class="cls-3" d="m307.86,334.68h24.34s7.14,2.1,5.87,10.51l-4.62,32.37h-25.6s-11.33-4.2-5.46-16.39c0,0,5.35-6.52,10.08-6.52l23.45.79"/>
    <path class="cls-3" d="m381.73,334.68h-24.35s-8.39,4.2-10.49,15.14c0,0-5.67,15.98,1.05,27.74l2.84.63h22.87"/>
    <polyline class="cls-3" points="395.79 315.03 392.25 334.68 384.35 378.61"/>
    <path class="cls-3" d="m390.78,342.86s2.91-5.77,7.95-8.19c0,0,18.36-1.79,21.62,2.84,0,0,3.67,1.79,3.46,7.04l-5.67,33"/>
  </g>
</svg>