<?xml version="1.0" encoding="UTF-8"?>
<svg id="Capa_1" data-name="Capa 1" xmlns="http://www.w3.org/2000/svg" viewBox="0 0 1080 1080">
  <defs>
    <style>
      .cls-1 {
        fill: #f79e1b;
      }

      .cls-2 {
        fill: #eb001b;
      }

      .cls-3 {
        fill: #ff5a00;
      }
    </style>
  </defs>
  <path d="m195.08,958.34v-55.77c0-21.33-13-35.3-35.3-35.3-11.15,0-23.28,3.68-31.62,15.81-6.5-10.18-15.81-15.81-29.78-15.81-9.31,0-18.63,2.82-25.99,13v-11.15h-19.49v89.23h19.49v-49.27c0-15.81,8.34-23.28,21.33-23.28s19.49,8.34,19.49,23.28v49.27h19.49v-49.27c0-15.81,9.31-23.28,21.33-23.28,13,0,19.49,8.34,19.49,23.28v49.27h21.55Zm289.15-89.23h-31.62v-26.97h-19.49v26.97h-17.65v17.65h17.65v40.94c0,20.47,8.34,32.49,30.65,32.49,8.34,0,17.65-2.82,24.15-6.5l-5.63-16.79c-5.63,3.68-12.13,4.66-16.79,4.66-9.31,0-13-5.63-13-14.84v-39.96h31.62v-17.65h.11Zm165.47-1.95c-11.15,0-18.63,5.63-23.28,13v-11.15h-19.49v89.23h19.49v-50.25c0-14.84,6.5-23.28,18.63-23.28,3.68,0,8.34.97,12.13,1.84l5.63-18.63c-3.9-.76-9.42-.76-13.1-.76h0Zm-250.05,9.31c-9.31-6.5-22.31-9.31-36.28-9.31-22.31,0-37.14,11.15-37.14,28.81,0,14.84,11.15,23.28,30.65,25.99l9.31.97c10.18,1.84,15.81,4.66,15.81,9.31,0,6.5-7.47,11.15-20.47,11.15s-23.28-4.66-29.78-9.31l-9.31,14.84c10.18,7.47,24.15,11.15,38.12,11.15,25.99,0,40.94-12.13,40.94-28.81,0-15.81-12.13-24.15-30.65-26.97l-9.31-.97c-8.34-.97-14.84-2.82-14.84-8.34,0-6.5,6.5-10.18,16.79-10.18,11.15,0,22.31,4.66,27.94,7.47l8.23-15.81h0Zm518.62-9.31c-11.15,0-18.63,5.63-23.28,13v-11.15h-19.49v89.23h19.49v-50.25c0-14.84,6.5-23.28,18.63-23.28,3.68,0,8.34.97,12.13,1.84l5.63-18.41c-3.79-.97-9.31-.97-13.1-.97h0Zm-249.08,46.57c0,26.97,18.63,46.46,47.43,46.46,13,0,22.31-2.82,31.62-10.18l-9.31-15.81c-7.47,5.63-14.84,8.34-23.28,8.34-15.81,0-26.97-11.15-26.97-28.81s11.15-27.94,26.97-28.81c8.34,0,15.81,2.82,23.28,8.34l9.31-15.81c-9.31-7.47-18.63-10.18-31.62-10.18-28.81-.11-47.43,19.49-47.43,46.46h0Zm180.31,0v-44.62h-19.49v11.15c-6.5-8.34-15.81-13-27.94-13-25.12,0-44.62,19.49-44.62,46.46s19.49,46.46,44.62,46.46c13,0,22.31-4.66,27.94-13v11.15h19.49v-44.62h0Zm-71.58,0c0-15.81,10.18-28.81,26.97-28.81,15.81,0,26.97,12.13,26.97,28.81,0,15.81-11.15,28.81-26.97,28.81-16.68-.97-26.97-13.1-26.97-28.81h0Zm-233.27-46.57c-25.99,0-44.62,18.63-44.62,46.46s18.63,46.46,45.59,46.46c13,0,25.99-3.68,36.28-12.13l-9.31-13.97c-7.47,5.63-16.79,9.31-25.99,9.31-12.13,0-24.15-5.63-26.97-21.33h65.95v-7.47c.87-28.7-15.92-47.32-40.94-47.32h0Zm0,16.79c12.13,0,20.47,7.47,22.31,21.33h-46.46c1.84-12.02,10.18-21.33,24.15-21.33h0Zm484.29,29.78v-79.92h-19.49v46.46c-6.5-8.34-15.81-13-27.94-13-25.12,0-44.62,19.49-44.62,46.46s19.49,46.46,44.62,46.46c13,0,22.31-4.66,27.94-13v11.15h19.49v-44.62h0Zm-71.58,0c0-15.81,10.18-28.81,26.97-28.81,15.81,0,26.97,12.13,26.97,28.81,0,15.81-11.15,28.81-26.97,28.81-16.79-.97-26.97-13.1-26.97-28.81h0Zm-652.58,0v-44.62h-19.49v11.15c-6.5-8.34-15.81-13-27.94-13-25.12,0-44.62,19.49-44.62,46.46s19.49,46.46,44.62,46.46c13,0,22.31-4.66,27.94-13v11.15h19.49v-44.62h0Zm-72.45,0c0-15.81,10.18-28.81,26.97-28.81,15.81,0,26.97,12.13,26.97,28.81,0,15.81-11.15,28.81-26.97,28.81-16.79-.97-26.97-13.1-26.97-28.81Z"/>
  <g>
    <rect id="rect19" class="cls-3" x="393.15" y="191.4" width="292.83" height="526.09"/>
    <path class="cls-2" d="m412.65,454.45c0-106.89,50.25-201.75,127.35-263.05-56.75-44.62-128.33-71.58-206.41-71.58C148.63,119.82-1.04,269.48-1.04,454.45s149.66,334.63,334.63,334.63c78.08,0,149.66-26.97,206.41-71.58-77.21-60.43-127.35-156.16-127.35-263.05Z"/>
    <path id="path22" class="cls-1" d="m1081.04,454.45c0,184.97-149.66,334.63-334.63,334.63-78.08,0-149.66-26.97-206.41-71.58,78.08-61.4,127.35-156.16,127.35-263.05s-50.25-201.75-127.35-263.05c56.64-44.62,128.22-71.58,206.3-71.58,185.07,0,334.74,150.64,334.74,334.63Z"/>
  </g>
</svg>