<?xml version="1.0" encoding="UTF-8"?>
<svg id="Capa_1" data-name="Capa 1" xmlns="http://www.w3.org/2000/svg" viewBox="0 0 1080 1080">
  <defs>
    <style>
      .cls-1 {
        fill: #016fd0;
      }

      .cls-2 {
        fill: #fff;
      }
    </style>
  </defs>
  <path id="path3078" class="cls-1" d="m0,0h1080v583.02l-53.46,83.53,53.46,74.34v339.12H0v-549.61l33.41-38.42L0,455.22V0Z"/>
  <path id="path3082" class="cls-2" d="m208.31,752.58v-169.56h179.53l19.26,25.11,19.9-25.11h651.66v157.87s-17.04,11.52-36.75,11.69h-360.84l-21.72-26.73v26.73h-71.16v-45.63s-9.72,6.37-30.74,6.37h-24.22v39.26h-107.75l-19.23-25.65-19.53,25.65h-178.41Z"/>
  <path id="path3080" class="cls-2" d="m-1.34,455.22l40.49-94.39h70.01l22.98,52.87v-52.87h87.03l13.68,38.21,13.26-38.21h390.7v19.21s20.54-19.21,54.29-19.21l126.77.44,22.58,52.18v-52.62h72.84l20.05,29.97v-29.97h73.5v169.56h-73.5l-19.21-30.07v30.07h-107.01l-10.76-26.73h-28.77l-10.59,26.73h-72.57c-29.04,0-47.61-18.82-47.61-18.82v18.82h-109.42l-21.72-26.73v26.73H98.78l-10.75-26.73h-28.68l-10.68,26.73H-1.34v-75.17Z"/>
  <path id="path3046" class="cls-1" d="m53.47,381.74L-1.14,508.7h35.55l10.08-25.42h58.57l10.02,25.42h36.33l-54.55-126.96h-41.4Zm20.2,29.55l17.85,44.43h-35.76l17.91-44.43Z"/>
  <path id="path3048" class="cls-1" d="m153.18,508.68v-126.96l50.52.19,29.38,81.86,28.68-82.04h50.12v126.96h-31.74v-93.55l-33.65,93.55h-27.84l-33.74-93.55v93.55h-31.74Z"/>
  <path id="path3050" class="cls-1" d="m333.6,508.68v-126.96h103.57v28.4h-71.5v21.72h69.83v26.73h-69.83v22.55h71.5v27.56h-103.57Z"/>
  <path id="path3052" class="cls-1" d="m455.55,381.74v126.96h31.74v-45.1h13.36l38.06,45.1h38.79l-41.76-46.77c17.14-1.45,34.82-16.16,34.82-39,0-26.72-20.97-41.19-44.37-41.19h-70.63Zm31.74,28.4h36.28c8.7,0,15.03,6.81,15.03,13.36,0,8.43-8.2,13.36-14.56,13.36h-36.75v-26.73h0Z"/>
  <path id="path3054" class="cls-1" d="m615.92,508.68h-32.41v-126.96h32.41v126.96Z"/>
  <path id="path3056" class="cls-1" d="m692.76,508.68h-7c-33.85,0-54.4-26.67-54.4-62.96s20.32-64,63.06-64h35.08v30.07h-36.36c-17.35,0-29.62,13.54-29.62,34.25,0,24.59,14.03,34.91,34.25,34.91h8.35l-13.36,27.73Z"/>
  <path id="path3058" class="cls-1" d="m761.83,381.74l-54.61,126.96h35.55l10.08-25.42h58.57l10.02,25.42h36.33l-54.55-126.96h-41.4Zm20.2,29.55l17.85,44.43h-35.76l17.91-44.43h0Z"/>
  <path id="path3060" class="cls-1" d="m861.49,508.68v-126.96h40.35l51.53,79.77v-79.77h31.74v126.96h-39.05l-52.83-81.86v81.86h-31.74Z"/>
  <path id="path3062" class="cls-1" d="m230.02,730.86v-126.96h103.57v28.4h-71.5v21.72h69.83v26.73h-69.83v22.55h71.5v27.56h-103.57Z"/>
  <path id="path3064" class="cls-1" d="m737.53,730.86v-126.96h103.57v28.4h-71.5v21.72h69.49v26.73h-69.49v22.55h71.5v27.56h-103.57Z"/>
  <path id="path3066" class="cls-1" d="m337.62,730.86l50.43-62.7-51.63-64.26h39.99l30.75,39.73,30.85-39.73h38.42l-50.95,63.48,50.52,63.48h-39.98l-29.86-39.1-29.13,39.1h-39.41Z"/>
  <path id="path3068" class="cls-1" d="m479.77,603.92v126.96h32.58v-40.09h33.41c28.27,0,49.7-15,49.7-44.16,0-24.16-16.81-42.7-45.57-42.7h-70.11Zm32.58,28.71h35.19c9.13,0,15.66,5.6,15.66,14.62,0,8.47-6.5,14.62-15.77,14.62h-35.08v-29.23h0Z"/>
  <path id="path3072" class="cls-1" d="m609.24,603.9v126.96h31.74v-45.1h13.36l38.06,45.1h38.79l-41.76-46.78c17.14-1.45,34.82-16.16,34.82-39,0-26.72-20.97-41.19-44.37-41.19h-70.63,0Zm31.74,28.4h36.28c8.7,0,15.03,6.81,15.03,13.36,0,8.43-8.2,13.36-14.56,13.36h-36.75v-26.73Z"/>
  <path id="path3074" class="cls-1" d="m855.81,730.86v-27.56h63.52c9.4,0,13.47-5.08,13.47-10.65s-4.06-10.73-13.47-10.73h-28.7c-24.95,0-38.85-15.2-38.85-38.03,0-20.36,12.73-39.99,49.8-39.99h61.81l-13.36,28.57h-53.46c-10.22,0-13.36,5.36-13.36,10.48s3.89,11.07,11.69,11.07h30.07c27.81,0,39.88,15.78,39.88,36.44,0,22.21-13.45,40.41-41.4,40.41h-67.65Z"/>
  <path id="path3076" class="cls-1" d="m972.3,730.86v-27.56h63.52c9.4,0,13.47-5.08,13.47-10.65s-4.06-10.73-13.47-10.73h-28.7c-24.95,0-38.85-15.2-38.85-38.03,0-20.36,12.73-39.99,49.8-39.99h61.81l-13.36,28.57h-53.46c-10.22,0-13.36,5.36-13.36,10.48s3.89,11.07,11.69,11.07h30.07c27.81,0,39.88,15.78,39.88,36.44,0,22.21-13.45,40.41-41.4,40.41h-67.65Z"/>
</svg>