<?xml version="1.0" encoding="UTF-8"?>
<svg id="Capa_1" data-name="Capa 1" xmlns="http://www.w3.org/2000/svg" viewBox="0 0 1080 1080">
  <defs>
    <style>
      .cls-1 {
        fill: #e30518;
      }

      .cls-2, .cls-3 {
        fill: #2c2a27;
      }

      .cls-3, .cls-4, .cls-5, .cls-6, .cls-7 {
        fill-rule: evenodd;
      }

      .cls-4 {
        fill: #df271c;
      }

      .cls-5 {
        fill: #ef8a00;
      }

      .cls-6 {
        fill: #ffd000;
      }

      .cls-7 {
        fill: #0074c8;
      }

      .cls-8 {
        fill: none;
        stroke: #2c2a27;
        stroke-miterlimit: 3.86;
        stroke-width: .55px;
      }
    </style>
  </defs>
  <path class="cls-1" d="m205.77,577.98c16.92,3.6,58.69,2.52,59.59-24.84,0-10.98-14.22-21.24-27.54-24.12-16.56-3.6-27.18-3.6-43.93,0-10.26,3.96-13.5-6.12-4.14-9.54,17.82-6.48,87.13-7.92,90.55,33.84-2.88,41.04-63.55,38.16-77.05,35.46-5.4-1.08-9.54-3.6-9.54-10.44v-34.2c0-8.1,12.06-8.1,12.06,0v33.84Z"/>
  <path class="cls-1" d="m335.93,529.74c-13.5,0-36.18,41.23-43.03,55.99-3.96,8.82-16.56,2.52-12.6-6.3,7.2-15.84,34.2-63.73,55.45-63.37,21.24-.36,48.25,47.53,55.45,63.37,3.96,8.82-8.64,15.12-12.6,6.3-6.66-14.94-29.16-55.99-42.67-55.99"/>
  <path class="cls-1" d="m430.44,576.18c13.5,0,36.18-41.23,42.85-55.99,3.96-8.82,16.56-2.52,12.6,6.3-7.2,15.84-34.2,63.91-55.45,63.37-21.24.36-48.25-47.53-55.45-63.37-3.96-8.82,8.64-15.12,12.6-6.3,6.84,14.76,29.34,55.99,42.85,55.99"/>
  <path class="cls-1" d="m508.75,522.9v60.13c0,9-13.5,8.64-13.5-.36v-59.77c0-9.36,13.5-9.36,13.5,0"/>
  <path class="cls-1" d="m573.56,576.18c13.5,0,36.18-41.23,42.85-55.99,3.96-8.82,16.56-2.52,12.6,6.3-7.2,15.84-34.2,63.91-55.45,63.37-21.24.36-48.25-47.53-55.45-63.37-3.96-8.82,8.64-15.12,12.6-6.3,6.84,14.76,29.34,55.99,42.85,55.99"/>
  <path class="cls-1" d="m677.79,559.08c3.96,8.46,15.3,15.12,26.28,17.64,16.56,3.6,27.18,3.6,43.93,0,9.9-3.24,13.5,6.48,4.14,9.54-18.54,6.3-86.59,8.46-90.73-33.3,2.16-39.78,56.71-38.7,77.41-36,10.08,1.26,8.1,12.06-2.52,9.9-13.86-1.8-51.67-4.14-59.05,21.06h38.7c6.12,0,6.12,11.16,0,11.16h-38.16Z"/>
  <path class="cls-1" d="m893.64,577.98c16.92,3.6,58.69,2.52,59.59-24.84,0-10.98-14.22-21.24-27.54-24.12-16.56-3.6-27-3.6-43.93,0-10.26,3.96-13.5-6.12-4.14-9.54,17.82-6.48,87.13-7.92,90.37,33.84-2.88,41.04-63.37,38.16-77.05,35.46-5.4-1.08-9.54-3.6-9.54-10.44v-34.2c0-8.1,12.06-8.1,12.06,0l.18,33.84Z"/>
  <path class="cls-1" d="m1023.97,529.74c-13.5,0-36.18,41.23-43.03,55.99-3.96,8.82-16.56,2.52-12.6-6.3,7.2-15.84,34.2-63.73,55.45-63.37,21.24-.36,48.25,47.53,55.45,63.37,3.96,8.82-8.64,15.12-12.6,6.3-6.66-14.94-29.16-55.99-42.67-55.99"/>
  <path class="cls-1" d="m651.87,522.9v60.13c0,9-13.5,8.64-13.5-.36v-59.77c0-9.36,13.5-9.36,13.5,0"/>
  <path class="cls-1" d="m814.97,565.2c-8.46-15.3-17.64-35.64-23.94-36.18-15.66,0-8.64,30.78-8.82,54.91-.18,8.46-13.5,8.46-13.5-.9,0-30.6-6.66-67.33,22.68-67.33,8.64,0,16.74,12.78,23.94,25.02,8.46,15.3,18.36,35.82,24.66,36.18,15.66,0,8.1-30.24,8.46-54.19.18-8.46,13.5-8.46,13.5.9,0,30.78,7.02,66.61-22.32,66.61-8.46-.18-17.28-12.96-24.66-25.02"/>
  <path class="cls-4" d="m19.99,533.7c.18,2.16,0,11.52-8.64,24.3-9,14.22,5.22,37.8,33.66,31.86,6.3,2.34,12.96,2.52,17.46,2.52s11.16-.18,17.46-2.52c28.62,5.94,42.67-17.64,33.66-31.86-8.64-12.78-8.82-22.14-8.64-24.3H19.99Z"/>
  <path class="cls-7" d="m62.47,592.39c-27.9-.72-32.94-13.5-25.2-16.2,4.5-1.62,10.44-4.14,10.44-4.14-3.06-14.4,1.98-32.94,14.94-32.94s17.82,19.08,14.76,33.3c0,0,5.94,2.16,10.26,3.96,7.38,2.52,2.7,15.3-25.2,16.02"/>
  <path class="cls-6" d="m52.03,582.31c-7.38-20.7-.9-40.14,10.44-40.14s18.18,18.9,10.62,39.96c0,0-3.6-.9-10.98-.9-5.4.18-10.08,1.08-10.08,1.08"/>
  <path class="cls-5" d="m62.47,592.57c11.16,0,20.16-2.34,20.16-5.76s-8.82-5.76-20.16-5.76-19.98,2.34-19.98,5.76c0,3.24,8.82,5.76,19.98,5.76"/>
  <path class="cls-7" d="m25.39,543.96h13.5c2.16,0,3.78,1.62,3.78,3.78v9.18c0,2.16-1.8,3.96-3.78,3.96h-13.5c-2.16,0-3.96-1.8-3.96-3.96v-9.18c0-1.98,1.8-3.78,3.96-3.78"/>
  <path class="cls-2" d="m26.83,546.12h10.62c1.62,0,2.88,1.26,2.88,2.88v6.66c0,1.62-1.26,2.88-2.88,2.88h-10.62c-1.62,0-2.88-1.26-2.88-2.88v-6.66c0-1.62,1.44-2.88,2.88-2.88"/>
  <path class="cls-6" d="m40.51,554.04c-4.86-.54-6.48-6.12-6.84-7.92h3.96c1.62,0,2.88,1.26,2.88,2.88,0,0,0,5.04,0,5.04Z"/>
  <path class="cls-6" d="m30.97,546.12c-.36,1.62-1.8,7.74-7.02,7.92v-5.04c0-1.62,1.26-2.88,2.88-2.88h4.14Z"/>
  <path class="cls-7" d="m86.06,543.96h13.5c2.16,0,3.78,1.62,3.78,3.78v9.18c0,2.16-1.8,3.96-3.78,3.96h-13.5c-2.16,0-3.78-1.8-3.78-3.96v-9.18c0-1.98,1.62-3.78,3.78-3.78"/>
  <path class="cls-2" d="m87.68,546.12h10.62c1.62,0,2.88,1.26,2.88,2.88v6.66c0,1.62-1.26,2.88-2.88,2.88h-10.62c-1.62,0-2.88-1.26-2.88-2.88v-6.66c0-1.62,1.26-2.88,2.88-2.88"/>
  <path class="cls-6" d="m101.18,554.04c-4.86-.54-6.48-6.12-6.84-7.92h3.96c1.62,0,2.88,1.26,2.88,2.88,0,0,0,5.04,0,5.04Z"/>
  <path class="cls-6" d="m91.64,546.12c-.36,1.62-1.8,7.74-7.02,7.92v-5.04c0-1.62,1.26-2.88,2.88-2.88h4.14Z"/>
  <path class="cls-4" d="m90.38,498.77c-1.44-4.86-1.62-7.2,2.7-7.2h9.72c5.94-.18,3.42,4.5,2.88,9-.72,5.94-.72,7.74-.72,7.74l-14.58-9.54"/>
  <path class="cls-5" d="m62.47,533.34c-14.58,0-34.56,1.26-47.35,2.34-9.9.72-17.46-6.66-10.98-13.86,14.04-15.12,48.07-34.2,58.33-34.2,10.98,0,44.47,19.08,58.33,34.2,6.66,7.02,0,13.86-9.9,13.86-10.98-.18-34.02-2.34-48.43-2.34"/>
  <path d="m70.22,567.18c0-1.08.9-1.98,1.98-1.98s1.8.9,1.8,1.98-.9,1.98-1.8,1.98c-1.08,0-1.98-.9-1.98-1.98"/>
  <path class="cls-3" d="m62.47,580.69c-5.76,0-10.44.9-10.44.9-6.84-20.16-.54-39.06,10.44-39.06s17.46,18.9,10.44,39.06c0,0-4.5-.9-10.44-.9m10.26,1.62c5.76.9,9.54,2.52,9.54,4.5,0,2.88-8.82,5.22-19.8,5.22s-19.8-2.34-19.8-5.22c0-1.98,3.78-3.6,9.54-4.5,0,0,6.3-.72,10.26-.72s10.26.72,10.26.72m.9-.54c7.2-20.88.18-40.14-11.16-39.96-11.34,0-18.36,19.08-10.98,39.96-5.58,1.08-9.36,2.88-9.36,5.04,0,.72.36,1.26,1.08,1.98-9.36-4.14-10.26-10.8-5.22-12.6,4.5-1.62,9.9-3.6,9.9-3.6-2.88-14.04,1.62-32.94,14.58-32.94s17.46,18.9,14.58,32.94c0,0,5.4,2.16,9.9,3.6,5.04,1.62,4.32,8.46-5.04,12.6.72-.54,1.08-1.26,1.08-1.98-.18-2.16-3.78-3.96-9.36-5.04m17.46-83.35c-1.08-4.32-1.08-6.3,2.7-6.3h8.46c5.58-.18,3.24,4.14,2.7,8.46-.36,2.52-.54,4.68-.54,6.3-4.5-3.06-9-5.94-13.32-8.46m-9.72,91.27c26.82,4.5,39.78-17.82,31.32-31.5-6.66-9.72-8.1-18-8.46-22.32-17.46-.9-29.7-1.8-41.77-1.98-12.06.18-24.12,1.08-41.77,1.98-.36,4.32-1.8,12.42-8.46,22.32-8.64,13.5,4.5,36,31.32,31.5-11.34-4.32-12.78-11.7-6.66-14.04,4.5-1.62,10.26-3.78,10.26-3.78-2.88-14.4,2.16-33.66,15.12-33.48,12.96,0,18.18,19.08,15.12,33.48,0,0,5.94,2.16,10.44,3.78,6.3,2.52,4.86,9.9-6.48,14.04m-18.9-57.43c-15.12.18-29.34,1.26-46.27,2.34-10.44.72-16.38-6.3-9.72-13.5,9.72-10.62,42.85-32.4,55.99-32.4s46.27,21.78,55.99,32.4c6.48,7.2.72,14.22-9.72,13.5-16.92-1.08-31.14-2.16-46.27-2.34m26.64-34.92c-.18-.36-.18-.9-.36-1.26-.72-2.52,0-5.4,4.5-5.4h9.72c5.76,0,5.04,3.96,4.14,7.74-.72,2.7-1.26,6.3-1.44,9.54,0,0,7.92,5.94,12.42,9.54,14.04,11.88,4.86,19.44-8.46,18.9-1.26,0-2.7-.18-3.96-.18.18,3.96,1.26,11.16,7.38,19.44,15.48,18.54-5.04,41.77-34.02,35.1-4.86,1.62-12.42,2.34-16.56,2.34s-11.7-.72-16.56-2.34c-28.98,6.48-49.33-16.74-33.84-35.1,6.12-8.28,7.38-15.48,7.38-19.44l-3.96.18c-13.32.72-22.5-7.02-8.46-18.9,20.7-17.46,45.91-30.42,55.45-30.6,5.4.18,15.3,4.14,26.64,10.44"/>
  <path class="cls-8" d="m25.39,543.96h13.5c2.16,0,3.78,1.62,3.78,3.78v9.18c0,2.16-1.8,3.96-3.78,3.96h-13.5c-2.16,0-3.96-1.8-3.96-3.96v-9.18c0-1.98,1.8-3.78,3.96-3.78Z"/>
  <path class="cls-8" d="m86.06,543.96h13.5c2.16,0,3.78,1.62,3.78,3.78v9.18c0,2.16-1.8,3.96-3.78,3.96h-13.5c-2.16,0-3.78-1.8-3.78-3.96v-9.18c0-1.98,1.62-3.78,3.78-3.78Z"/>
</svg>