<?xml version="1.0" encoding="UTF-8"?>
<svg id="Capa_1" data-name="Capa 1" xmlns="http://www.w3.org/2000/svg" viewBox="0 0 1080 1080">
  <defs>
    <style>
      .cls-1 {
        fill: #fae922;
      }

      .cls-2 {
        fill: #000100;
        fill-rule: evenodd;
      }
    </style>
  </defs>
  <rect class="cls-1" y="353.75" width="1080" height="372.49"/>
  <path class="cls-2" d="m839.63,510.09l.31,72.79c.61,6.96,1.51,10.9,2.87,13.77,9.84,21.49,43.89,19.53,63.71,6.66l-8.77-18.32c-6.51,2.42-14.23,7.87-23.46,4.99-8.18-2.42-7.57-12.11-7.57-21.64v-58.87l54.94.15,44.19,100.79c.91,4.39-8.93,21.79-11.05,24.67-15.29,21.49-29.51,12.41-41.77,9.69l-6.05,21.79c23.31,8.92,47.67,5.6,61.29-9.23,12.11-13.16,19.07-31.63,26.64-52.21l42.37-117.14h-28.15l-29.81,90.05c-3.02-3.33-26.03-60.99-30.27-70.82-5.75-13.32-14.08-19.07-31.78-19.22-16.65-.15-33.45,0-50.55,0v-36.17c-5.9,1.36-22.7,6.36-27.09,8.62v27.09l-21.79.3.15,21.64,21.64.6ZM240.66,376.33c90.88,0,150.61,73.08,133.4,163.37-17.21,90.29-104.93,163.37-195.8,163.37s-150.71-73.08-133.5-163.37c17.31-90.29,104.92-163.37,195.91-163.37h0Zm43.41,21.16c56.27,19.68,88.91,75.95,76.25,142.21-14.74,77.23-85.74,140.82-162.87,148.93-6.13-.2-6.23-3.66-6.43-8.8.3-10.68.69-21.46.99-32.14.1-1.58-.49-2.08-1.19-2.28-7.91-.79-15.72-2.57-23.44-4.94-8.31-3.26-16.71-8.01-25.12-13.45-3.86-1.88-3.36-10.78-3.26-14.24.69-6.33,5.34-21.06,12.86-21.76,9-.49,13.25,4.25,22.15,8.6,15.63,7.42,37.48,11.77,53.7,4.15,7.81-4.75,9.69-11.17,6.03-19.28-6.33-13.25-36.69-24.13-50.44-30.76-32.93-14.04-51.32-42.52-45.49-76.44,4.35-25.02,27.79-44.01,52.31-47.47v-11.97c-30.26,8.8-53.3,26.21-73.97,46.48-29.96,29.27-47.57,66.26-49.05,113.53,2.37,57.85,32.44,83.47,63.88,102.65-53.99-20.87-84.85-76.05-72.49-140.82,15.13-79.31,89.5-144.18,169.1-149.42,3.16,1.88,3.36,2.18,5.05,6.43-.7,9.99-1.29,19.98-1.98,29.96,15.72,3.16,30.56,7.61,42.52,17.8.4,22.94-16.81,32.53-23.34,29.07.3-1.09-25.91-8.31-31.35-9.59-6.63-1.09-13.15-.69-19.68,2.28-7.71,3.66-11.37,9.1-7.71,17.6,3.16,6.33,8.41,10.48,14.14,14.04,16.52,8.9,33.03,17.9,49.55,26.8,14.24,8.01,24.42,18.39,30.95,30.95,4.75,12.46,5.83,25.12,3.07,37.97-3.26,10.48-7.22,19.58-13.25,25.32-5.04,5.73-10.58,10.19-16.51,13.35-8.41,4.45-16.81,8.4-25.51,9.79-.3,5.34-.49,10.58-.79,15.92.69.4,1.38.2,2.17,0,18.69-6.03,35.11-16.62,51.13-28.18,20.77-18.3,40.15-37.48,50.34-62.3,6.92-13.84,12.26-29.17,14.83-47.17,5.64-50.44-12.76-97.9-67.15-122.82h0Zm246.83,90.5l.3-26.94c-.3-9.53,8.32-24.36,20.13-29.81,10.9-5,31.63-5.3,41.92,1.36l-4.99,21.34c-30.72-6.81-30.57-1.06-30.57,34.05h33.45l-8.63,21.34-24.82.15v100.49c-4.99.61-22.4.91-26.79-.3v-100.04l-13.47-.3-8.32-21.19,21.79-.15Zm180.7,64.32c1.66,71.88,79.75,67.95,100.79,48.88-.76-3.02-6.05-16.5-7.87-18.31-14.37,5.9-28.45,12.56-45.85,3.94-27.09-13.32-25.12-63.72,2.27-76.28,10.59-4.84,25.27-4.39,36.32.3,3.94,1.82,6.81,3.79,9.99,5.15v-23.3c-16.04-6.36-27.7-10.59-47.98-6.05-30.57,7.11-48.28,35.11-47.67,65.68h0Zm-284.82-16.04c1.97-16.35,8.17-29.82,25.58-30.12,16.8-.3,24.82,13.62,25.58,30.42l-51.15-.3Zm75.06,64.92l-7.56-17.86c-7.11,1.97-11.5,5.45-20.73,7.11-24.06,4.09-45.86-7.11-46.31-34.51h78.24c0-27.39-4.84-58.87-35.41-68.4-14.07-4.54-31.33-2.87-42.98,4.09-42.37,25.42-40.25,122.13,34.05,121.22,14.23-.15,32.39-4.08,40.71-11.65h0Zm117.14-64.62c1.36-16.5,8.93-30.27,25.88-30.42,16.35,0,24.67,14.23,24.82,30.42h-50.7Zm-27.24,17.55c2.88,45.25,37.99,66.59,81.12,56.45,9.53-2.27,14.07-5.9,21.19-8.33l-7.57-19.07c-10.9,3.33-24.97,12.71-44.65,5.9-13.02-4.69-22.1-16.04-22.55-32.99l78.39-.15c0-35.71-10.75-70.67-51.91-70.97-40.26-.45-56.15,33.45-54.03,69.16h0Z"/>
</svg>