<?xml version="1.0" encoding="UTF-8"?>
<svg id="Capa_1" data-name="Capa 1" xmlns="http://www.w3.org/2000/svg" viewBox="0 0 1080 1080">
  <defs>
    <style>
      .cls-1 {
        fill: #e73b7b;
      }

      .cls-2 {
        fill: #251d48;
      }

      .cls-3 {
        fill: #231c46;
      }

      .cls-4 {
        fill: #40bacd;
      }

      .cls-5 {
        fill: #2a1f4b;
      }
    </style>
  </defs>
  <path class="cls-3" d="m50.46,460.17c1.41-1.16,2.84-2.3,4.26-3.46,1.12-.06,2.21-.14,2.05-1.72l-.1.12c18.29-7.28,35.06-17.47,52.09-27.17l2.42-.06c23.84,11.36,48.2,21.46,72.92,30.73,1.08.75,2.19,1.49,3.27,2.24,13.53,17.4,28.02,33.94,42.75,50.31l.29,1.82c-7.55,22.85-13.14,46.25-18.93,69.61-.62,1.16-1.22,2.3-1.84,3.46-18.33,20.11-36.67,40.21-55,60.32-1.16-.46-2.38-.85-3.48-1.41-25.8-13.39-51.57-26.8-77.35-40.21-1.28-.97-2.54-1.94-3.81-2.9-.06-1.24-.6-2.01-1.95-1.99l.08.08c-.14-3.15-2.59-5.03-4.18-7.35-17.05-25.1-36.07-48.8-52-74.68,4.12-6.06,8.4-12,12.31-18.19,8.44-13.37,19.66-24.91,26.2-39.54h0Z"/>
  <path class="cls-2" d="m824.71,543.24c.29,18.5-5.55,34.85-17.49,48.8-3.52,4.12-3.25,6.44.6,9.87,4.8,4.26,9.23,8.98,13.43,13.86,3.66,4.26,2.52,7.14-3.33,7.22-9.87.15-20.32,1.92-26.86-8.53-2.84-4.57-6.08-2.75-9.79-.89-37.27,18.56-78.78,7.84-102.06-26.22-21.85-31.97-16.6-79.15,11.88-107.09,26.9-26.4,68.49-29.92,98.89-7.7,23.76,17.38,34.47,41.61,34.74,70.69h0Zm-52.17,48.69c-9.56-8.59-18-16.06-26.3-23.69-2.15-1.97-3.97-4.45-2.4-7.68,1.49-3.08,4.33-3.1,7.33-3.43,9-.99,16.22,1.3,22.02,8.79,3.91,5.03,9,9.15,13.57,13.66,19.99-20.44,19.91-57.3-.14-80.04-18.95-21.48-51.46-25.14-74.27-8.34-24.02,17.67-30.94,57.18-14.53,82.71,15.95,24.77,46.44,33.15,74.72,18.02Zm-333.33-20.07c0-36.48.31-69.99-.21-103.51-.14-9.23,3.64-10.6,11.49-10.37,7.53.21,12.58.15,12.46,10.49-.52,48.01-.21,96.04-.27,144.05,0,3.68,1.35,8.24-3.41,10.1-4.86,1.9-7.7-1.7-10.53-4.88-29.61-33.17-59.24-66.34-88.86-99.51-2.92-3.27-5.92-6.48-9.08-9.93-2.84,3.62-1.63,6.93-1.63,9.95-.06,30.94-.23,61.89.27,92.81.14,9-2.11,12.5-11.82,12.29-8.96-.21-12.46-2.15-12.37-11.9.46-47.37.17-94.75.27-142.12,0-3.89-1.86-9.08,3.7-10.78,5.36-1.64,9.66.37,13.55,4.76,28.12,31.91,56.43,63.65,84.68,95.44,3.33,3.77,6.71,7.49,11.75,13.1h0Z"/>
  <path class="cls-5" d="m877.48,518.18c0-17.07.46-34.17-.17-51.22-.41-10.82,6.6-8.57,12.77-8.88,6.73-.35,11.73-.1,11.63,9.27-.37,33.17-.54,66.38.25,99.54.62,25.81,26.59,40.66,48.96,28.78,9.73-5.17,15.48-13.33,16.8-24.36,2.54-21.19.77-42.48,1.18-63.72.25-13.53.33-27.07-.06-40.58-.19-6.56,1.7-9.08,8.67-9.04,15.21.1,15.23-.27,15.21,15.27-.02,29.96.21,59.93-.17,89.89-.39,30.42-18.6,52.71-47.22,58.75-30.98,6.52-64.09-16.99-66.61-48.65-1.45-18.23-.27-36.69-.27-55.04-.31.02-.64.02-.97,0h0Z"/>
  <path class="cls-2" d="m526.04,540.65c-.02-24.15.19-48.32-.14-72.47-.1-7.1,1.32-10.39,9.5-10.18,22.87.54,45.77.6,68.62,0,9.46-.25,9.5,4.78,9.48,11.51-.02,6.93.25,12.79-9.77,12.38-15.44-.62-30.92.1-46.39-.27-5.67-.14-8.05.97-7.66,7.28.58,9.64.5,19.33.02,28.97-.29,5.75,1.88,6.89,7.14,6.77,15.13-.31,30.3.41,45.42-.27,9.29-.43,11.61,3.15,11.38,11.79-.21,7.88-.83,12.69-10.88,12.13-15.42-.87-30.92-.04-46.39-.33-4.99-.1-6.79,1.26-6.66,6.44.33,12.87.43,25.78-.02,38.64-.21,6,2.38,6.71,7.39,6.64,15.79-.25,31.58.33,47.35-.25,8.75-.33,9.31,4.33,9.02,10.84-.29,6.35,1.49,13.16-9.1,12.95-23.18-.46-46.4-.35-69.59-.02-6.93.1-8.88-2.55-8.82-9.08.25-24.52.1-49,.08-73.48h0Z"/>
  <path class="cls-3" d="m1055.71,539.92c.02-24.17.46-48.34-.19-72.49-.31-11.3,6.75-9.1,13.28-9.44,7.04-.39,11.26.56,11.19,9.7-.43,48.65-.45,97.3.02,145.95.1,9.35-4.45,9.68-11.32,9.52-6.93-.15-13.45,1.14-13.18-9.77.62-24.48.21-48.98.21-73.46h0Z"/>
  <path class="cls-4" d="m11.95,517.89c15.93,25.87,34.97,49.58,52.02,74.66,1.59,2.34,4.04,4.2,4.18,7.35-20.44-8.17-40.43-17.55-57.84-30.98-11.67-9-13.22-28.21-5.71-41.35,1.9-3.33,4.22-6.41,6.35-9.6.33-.02.66-.04,1.01-.08h0Z"/>
  <path class="cls-1" d="m73.84,604.74c25.78,13.41,51.55,26.82,77.35,40.21,1.1.58,2.32.95,3.48,1.41.1.45.15.87.19,1.32-4.03,4.08-7.88,8.38-12.13,12.23-9.06,8.21-23.67,8.44-31.02-1.08-13.47-17.4-26.92-34.89-37.87-54.09h0Z"/>
  <path class="cls-4" d="m154.84,647.7c-.02-.45-.1-.89-.19-1.32,18.33-20.11,36.65-40.21,55-60.32-3.12,18.25-8.36,35.97-13.89,53.57-4.01,12.73-16.87,17.88-29.61,13.26-3.87-1.43-7.53-3.44-11.3-5.19h0Z"/>
  <path class="cls-1" d="m184.12,458.62c-24.73-9.27-49.09-19.37-72.94-30.73,6.52-5.36,14.3-8.5,21.75-12.13,7.24-3.54,13.91-1.66,19.06,4.41,10.8,12.73,21.42,25.62,32.12,38.45Zm27.36,123.99c5.79-23.34,11.38-46.73,18.93-69.61,5.4,3.68,8.98,9.11,12.71,14.2,5.05,6.91,5.05,14.67-.68,21.27-10.08,11.59-20.61,22.78-30.96,34.14h0ZM11.95,517.89c-.33.02-.68.06-1.01.08-6.89-23.16-1.45-36.44,19.8-47.84,6.48-3.48,13.14-6.66,19.72-9.97-6.54,14.63-17.76,26.16-26.2,39.54-3.91,6.19-8.21,12.13-12.31,18.19h0Z"/>
  <g>
    <path class="cls-4" d="m230.14,511.18c-14.73-16.37-29.22-32.92-42.75-50.31,11.55,4.72,23.2,9.27,34.66,14.22,10.84,4.68,14.46,11.96,11.9,23.22-1.01,4.33-2.54,8.57-3.81,12.87Zm-121.37-83.23c-17.03,9.7-33.81,19.89-52.09,27.17,5.11-11.38,13.08-20.88,20.82-30.4,3.95-4.84,10.22-6.27,16.56-3.41,4.92,2.23,9.81,4.43,14.71,6.64h0Z"/>
    <path class="cls-4" d="m56.77,455c.17,1.59-.93,1.66-2.05,1.72.15-1.22.79-1.82,2.05-1.72Zm11.3,144.85c1.34,0,1.9.75,1.95,1.99-1.18-.15-2.13-.52-1.95-1.99Z"/>
  </g>
</svg>