<?xml version="1.0" encoding="UTF-8"?>
<svg id="Capa_1" data-name="Capa 1" xmlns="http://www.w3.org/2000/svg" viewBox="0 0 1080 1080">
  <defs>
    <style>
      .cls-1 {
        fill: #0079be;
      }

      .cls-2 {
        fill: #fff;
      }

      .cls-3 {
        fill: #211e1f;
      }
    </style>
  </defs>
  <g id="_Layer_1" data-name=" #Layer_1">
    <path class="cls-1" d="m206.94,679.93c76.49.37,146.3-62.38,146.3-138.71,0-83.47-69.81-141.17-146.3-141.14h-65.83C63.71,400.04,0,457.76,0,541.22,0,617.56,63.71,680.29,141.12,679.93h65.83Z"/>
    <path class="cls-2" d="m141.43,411.64c-70.73.02-128.05,57.35-128.06,128.11.02,70.75,57.33,128.07,128.06,128.09,70.75-.02,128.07-57.35,128.08-128.09-.01-70.76-57.34-128.09-128.08-128.11Zm-81.17,128.11h0c.07-34.58,21.66-64.06,52.11-75.78v151.54c-30.45-11.71-52.05-41.18-52.11-75.76Zm110.23,75.79h0v-151.58c30.46,11.69,52.09,41.19,52.15,75.78-.06,34.6-21.68,64.08-52.15,75.79Z"/>
    <path class="cls-3" d="m398.1,460.28c0-13.24-6.9-12.37-13.52-12.51v-3.83c5.74.28,11.62.28,17.36.28,6.18,0,14.57-.28,25.46-.28,38.1,0,58.85,25.45,58.85,51.52,0,14.58-8.53,51.22-60.62,51.22-7.5,0-14.43-.29-21.34-.29s-13.1.14-19.72.29v-3.82c8.82-.89,13.1-1.18,13.52-11.19v-71.38h0Zm14.43,69.04h0c0,11.33,8.1,12.65,15.31,12.65,31.79,0,42.23-23.99,42.23-45.93,0-27.51-17.66-47.38-46.06-47.38-6.04,0-8.82.43-11.48.59v80.06h0Z"/>
    <path class="cls-3" d="m491.43,542.86h2.79c4.11,0,7.06,0,7.06-4.87v-39.88c0-6.47-2.2-7.37-7.65-10.29v-2.36c6.91-2.08,15.16-4.85,15.74-5.3,1.04-.59,1.92-.74,2.65-.74s1.03.89,1.03,2.07v56.5c0,4.87,3.24,4.87,7.36,4.87h2.5v3.83c-5.01,0-10.16-.29-15.45-.29s-10.6.14-16.04.29v-3.83h0Zm15.74-86.11h0c-3.83,0-7.21-3.53-7.21-7.36s3.53-7.08,7.21-7.08,7.21,3.1,7.21,7.08-3.25,7.36-7.21,7.36Z"/>
    <path class="cls-3" d="m536.89,498.99c0-5.44-1.63-6.91-8.53-9.71v-2.79c6.32-2.06,12.35-3.98,19.42-7.07.44,0,.87.3.87,1.47v9.57c8.4-6.03,15.61-11.04,25.49-11.04,12.49,0,16.91,9.13,16.91,20.61v37.97c0,4.87,3.24,4.87,7.36,4.87h2.65v3.83c-5.16,0-10.31-.29-15.6-.29s-10.61.14-15.9.29v-3.83h2.64c4.13,0,7.06,0,7.06-4.87v-38.11c0-8.4-5.13-12.52-13.53-12.52-4.7,0-12.21,3.83-17.09,7.07v43.55c0,4.87,3.25,4.87,7.38,4.87h2.64v3.83c-5.15,0-10.31-.29-15.6-.29s-10.6.14-15.89.29v-3.83h2.65c4.12,0,7.06,0,7.06-4.87v-39h0Z"/>
    <path class="cls-3" d="m612.25,506.06c-.31,1.33-.31,3.53,0,8.54.87,13.98,9.87,25.45,21.62,25.45,8.1,0,14.44-4.41,19.88-9.86l2.05,2.07c-6.77,8.97-15.16,16.62-27.22,16.62-23.4,0-28.11-22.67-28.11-32.08,0-28.85,19.42-37.39,29.72-37.39,11.93,0,24.74,7.5,24.88,23.1,0,.89,0,1.77-.14,2.66l-1.33.88h-41.34Zm26.05-4.71h0c3.67,0,4.1-1.92,4.1-3.68,0-7.51-4.56-13.54-12.81-13.54-8.97,0-15.15,6.61-16.91,17.22h25.62Z"/>
    <path class="cls-3" d="m658.45,542.86h3.98c4.11,0,7.05,0,7.05-4.87v-41.35c0-4.56-5.44-5.45-7.65-6.62v-2.2c10.74-4.57,16.64-8.4,17.97-8.4.87,0,1.3.44,1.3,1.92v13.24h.31c3.67-5.74,9.86-15.16,18.83-15.16,3.68,0,8.38,2.5,8.38,7.8,0,3.98-2.79,7.52-6.91,7.52-4.58,0-4.58-3.54-9.72-3.54-2.5,0-10.74,3.39-10.74,12.22v34.58c0,4.87,2.94,4.87,7.06,4.87h8.23v3.83c-8.1-.15-14.25-.29-20.59-.29s-12.22.14-17.51.29v-3.83h0Z"/>
    <path class="cls-3" d="m715.11,526.22c1.92,9.72,7.8,17.96,18.55,17.96,8.66,0,11.9-5.3,11.9-10.45,0-17.37-32.07-11.78-32.07-35.47,0-8.25,6.63-18.85,22.81-18.85,4.7,0,11.03,1.33,16.76,4.28l1.04,15h-3.39c-1.47-9.26-6.61-14.56-16.04-14.56-5.89,0-11.47,3.39-11.47,9.71,0,17.24,34.14,11.92,34.14,35.03,0,9.71-7.8,20.02-25.31,20.02-5.89,0-12.8-2.06-17.95-5l-1.62-16.93,2.65-.75h0Z"/>
    <path class="cls-3" d="m890.22,470.58h-3.67c-2.8-17.21-15.01-24.14-31.49-24.14s-41.51,11.33-41.51,46.65c0,29.75,21.21,51.08,43.86,51.08,14.56,0,26.64-10.01,29.58-25.46l3.38.88-3.38,21.49c-6.18,3.84-22.81,7.81-32.53,7.81-34.43,0-56.2-22.23-56.2-55.34,0-30.17,26.93-51.82,55.77-51.82,11.92,0,23.39,3.84,34.73,7.82l1.47,21.04h0Z"/>
    <path class="cls-3" d="m895.53,542.86h2.79c4.13,0,7.08,0,7.08-4.87v-81.97c0-9.57-2.21-9.87-7.81-11.48v-2.35c5.89-1.91,12.07-4.56,15.16-6.34,1.6-.88,2.79-1.62,3.23-1.62.9,0,1.19.89,1.19,2.07v101.69c0,4.87,3.23,4.87,7.36,4.87h2.48v3.83c-4.98,0-10.13-.29-15.44-.29s-10.59.14-16.04.29v-3.83h0Z"/>
    <path class="cls-3" d="m990.02,538.58c0,2.66,1.61,2.8,4.11,2.8,1.77,0,3.97-.14,5.89-.14v3.1c-6.33.58-18.4,3.68-21.2,4.55l-.74-.44v-11.91c-8.82,7.21-15.6,12.35-26.05,12.35-7.95,0-16.18-5.15-16.18-17.5v-37.69c0-3.83-.58-7.51-8.81-8.24v-2.8c5.3-.14,17.05-1.03,18.97-1.03,1.63,0,1.63,1.03,1.63,4.27v37.96c0,4.43,0,17.08,12.79,17.08,5,0,11.62-3.83,17.8-8.96v-39.61c0-2.93-7.06-4.55-12.34-6.03v-2.65c13.23-.89,21.48-2.06,22.94-2.06,1.19,0,1.19,1.03,1.19,2.65v54.3h0Z"/>
    <path class="cls-3" d="m1019.3,490.01c5.88-5,13.83-10.6,21.93-10.6,17.07,0,27.36,14.88,27.36,30.91,0,19.28-14.12,38.56-35.18,38.56-10.88,0-16.62-3.54-20.45-5.15l-4.41,3.38-3.08-1.61c1.3-8.68,2.05-17.22,2.05-26.2v-63.29c0-9.57-2.22-9.87-7.81-11.48v-2.35c5.9-1.91,12.07-4.56,15.16-6.34,1.62-.88,2.79-1.62,3.25-1.62.88,0,1.17.89,1.17,2.07v53.72h0Zm0,40.03h0c0,5.6,5.29,15.03,15.15,15.03,15.75,0,22.37-15.46,22.37-28.57,0-15.89-12.05-29.14-23.54-29.14-5.46,0-10.01,3.54-13.98,6.93v35.75h0Z"/>
    <path class="cls-3" d="m384.41,632.26h1.13c2.88,0,5.92-.39,5.92-4.56v-41.96c0-4.18-3.04-4.57-5.92-4.57h-1.13v-2.4c3.13,0,7.93.32,11.87.32s8.8-.32,12.56-.32v2.4h-1.13c-2.87,0-5.92.39-5.92,4.57v41.96c0,4.17,3.05,4.56,5.92,4.56h1.13v2.42c-3.84,0-8.66-.32-12.65-.32s-8.65.32-11.78.32v-2.42h0Z"/>
    <path class="cls-3" d="m408.84,635.01c-3.87,0-8.67-.32-12.65-.32s-8.62.32-11.77.32h-.34v-3.1h1.47c2.9-.07,5.55-.3,5.57-4.21v-41.96c-.03-3.91-2.67-4.18-5.57-4.23h-1.47v-3.1h.34c3.15,0,7.95.32,11.86.32s8.78-.32,12.57-.32h.36v3.1h-1.48c-2.9.06-5.56.32-5.58,4.23v41.96c.02,3.91,2.68,4.15,5.58,4.21h1.48v3.1h-.36Zm-.34-.68h0v-1.71h-.78c-2.86,0-6.26-.49-6.28-4.92v-41.96c.02-4.43,3.42-4.93,6.28-4.93h.78v-1.7c-3.7,0-8.33.31-12.22.31s-8.41-.29-11.51-.31v1.7h.77c2.85,0,6.27.5,6.27,4.93v41.96c0,4.43-3.41,4.92-6.27,4.92h-.77v1.71c3.1-.03,7.62-.32,11.42-.32,3.9,0,8.53.3,12.31.32h0Z"/>
    <path class="cls-3" d="m463.85,618.89l.16-.16v-30.03c0-6.57-4.57-7.53-6.97-7.53h-1.77v-2.4c3.77,0,7.45.32,11.21.32,3.28,0,6.58-.32,9.86-.32v2.4h-1.2c-3.37,0-7.14.64-7.14,10.17v36.45c0,2.8.08,5.6.48,8.08h-3.05l-41.23-45.97v33c0,6.97,1.35,9.36,7.52,9.36h1.35v2.42c-3.44,0-6.87-.32-10.32-.32s-7.28.32-10.89.32v-2.42h1.12c5.52,0,7.2-3.75,7.2-10.16v-33.73c0-4.48-3.69-7.2-7.28-7.2h-1.04v-2.4c3.04,0,6.16.32,9.2.32,2.4,0,4.73-.32,7.13-.32l35.64,40.12h0Z"/>
    <path class="cls-3" d="m468.49,636.22l-3.3-.12-40.64-45.29v32.09c.09,6.96,1.15,8.94,7.19,9.02h1.72v3.1h-.36c-3.46,0-6.91-.32-10.33-.32-3.59,0-7.26.32-10.89.32h-.35v-3.1h1.48c5.29-.03,6.8-3.43,6.86-9.81v-33.73c-.01-4.26-3.51-6.85-6.94-6.86h-1.4v-3.09h.35c3.06,0,6.2.31,9.2.31,2.38,0,4.7-.31,7.4-.19l35.19,39.62v-29.45c-.04-6.37-4.29-7.14-6.62-7.2h-2.12v-3.09h.36c3.78,0,7.47.31,11.21.31,3.26,0,6.54-.31,9.85-.31h.35v3.09h-1.54c-3.3.09-6.7.38-6.79,9.83v36.44c0,2.8.08,5.6.47,8.02l.08.41h-.42Zm-3.04-.71h2.65c-.36-2.4-.42-5.07-.42-7.73v-36.44c0-9.61,4.03-10.52,7.47-10.52h.84v-1.7c-3.15.02-6.32.31-9.5.31-3.66,0-7.23-.29-10.86-.31v1.7s1.41,0,1.41,0c2.46,0,7.32,1.1,7.32,7.89l-.11,30.26-.16.17-.27.25-35.61-40.27c-2.38,0-4.7.31-7.14.31-2.94,0-5.94-.29-8.85-.31l-.02,1.7h.71c3.76,0,7.62,2.87,7.62,7.56v33.73c0,6.4-1.78,10.5-7.54,10.52l-.77-.02v1.73c3.47-.03,7.04-.32,10.54-.32s6.67.29,9.98.32v-1.7h-1.01c-6.3-.02-7.87-2.76-7.87-9.73v-33.9l41.58,46.52h0Zm-1.59-16.63h0l.26-.23-.26.23Zm-.18-.15h0v-.03l-.07-.06.07.08Z"/>
    <path class="cls-3" d="m488.33,582.77c-6.01,0-6.24,1.44-7.44,7.29h-2.4c.32-2.24.72-4.48.96-6.81.32-2.24.48-4.48.48-6.8h1.93c.64,2.4,2.64,2.32,4.81,2.32h41.31c2.16,0,4.16-.08,4.33-2.49l1.91.32c-.31,2.16-.63,4.33-.88,6.49-.14,2.16-.14,4.33-.14,6.48l-2.41.89c-.17-2.96-.57-7.7-5.92-7.7h-13.13v42.61c0,6.17,2.8,6.88,6.64,6.88h1.53v2.42c-3.12,0-8.73-.32-13.05-.32-4.8,0-10.42.32-13.54.32v-2.42h1.53c4.41,0,6.65-.39,6.65-6.71v-42.78h-13.14Z"/>
    <path class="cls-3" d="m519.9,635.01c-3.15,0-8.76-.32-13.06-.32-4.8,0-10.4.32-13.54.32h-.33v-3.1h1.86c4.41-.11,6.19-.16,6.29-6.37v-42.43h-12.78v-.71h13.48v43.13c0,6.42-2.59,7.07-6.99,7.08h-1.18v1.69c3.16-.02,8.55-.31,13.19-.31,4.18,0,9.53.29,12.69.31v-1.69h-1.17c-3.87,0-6.99-.96-6.99-7.25v-42.97h13.48c5.38.02,6.07,4.59,6.25,7.56l1.73-.64c0-2.09.01-4.18.16-6.29.23-2.06.53-4.1.83-6.15l-1.22-.21c-.37,2.33-2.62,2.45-4.64,2.43h-41.71c-1.88,0-3.94-.09-4.66-2.33h-1.32c-.01,2.22-.17,4.36-.47,6.5-.23,2.2-.6,4.31-.9,6.43h1.72c1.05-5.58,1.74-7.39,7.72-7.31v.71c-5.92.11-5.8,1.1-7.1,7.02l-.06.27h-3.08l.04-.42c.32-2.24.73-4.48.97-6.81.33-2.22.49-4.44.49-6.74v-.35h2.54l.06.25c.55,2.02,2.03,2.03,4.07,2.07h41.71c2.23-.03,3.85-.07,3.99-2.16l.03-.38.36.08,2.26.36-.05.35c-.32,2.14-.64,4.31-.87,6.46-.16,2.13-.16,4.3-.16,6.46v.25l-.22.09-2.84,1.03-.02-.47c-.21-3.01-.53-7.36-5.59-7.36h-12.78v42.26c.07,6.04,2.47,6.46,6.29,6.54h1.88v3.1h-.34Z"/>
    <path class="cls-3" d="m536.77,632.26h1.13c2.88,0,5.92-.39,5.92-4.56v-41.96c0-4.18-3.05-4.57-5.92-4.57h-1.13v-2.4c4.88,0,13.22.32,19.93.32s15.05-.32,20.5-.32c-.13,3.44-.06,8.73.18,12.25l-2.42.64c-.38-5.2-1.34-9.36-9.76-9.36h-11.12v20.97h9.52c4.8,0,5.85-2.72,6.32-7.05h2.4c-.15,3.14-.24,6.26-.24,9.38s.08,6.09.24,9.13l-2.4.48c-.47-4.8-.72-7.92-6.25-7.92h-9.59v18.65c0,5.21,4.63,5.21,9.76,5.21,9.61,0,13.85-.65,16.25-9.77l2.24.55c-1.05,4.25-2.01,8.49-2.72,12.74-5.13,0-14.34-.32-21.54-.32s-16.74.32-21.31.32v-2.42h0Z"/>
    <path class="cls-3" d="m579.61,635.01c-5.14,0-14.35-.33-21.54-.33s-16.73.33-21.3.33h-.34v-3.1h1.46c2.9-.04,5.54-.3,5.57-4.21v-41.96c-.04-3.91-2.67-4.17-5.57-4.23h-1.46v-3.09h.34c4.89,0,13.22.31,19.93.31s15.04-.31,20.5-.31h.36l-.02.36c-.06,1.2-.08,2.63-.08,4.14,0,2.77.08,5.8.24,8.08v.29s-.26.08-.26.08l-2.82.73-.02-.41c-.47-5.2-1.17-8.97-9.41-9.05h-10.79v20.27s9.18,0,9.18,0c4.61-.04,5.44-2.4,5.98-6.72l.03-.32h3.07v.36c-.16,3.12-.26,6.24-.26,9.36s.1,6.07.26,9.12v.28s-.28.07-.28.07l-2.78.56-.03-.38c-.55-4.89-.59-7.56-5.91-7.62h-9.26s0,18.31,0,18.31c0,4.86,4.2,4.84,9.42,4.86,9.64-.06,13.5-.52,15.92-9.52l.08-.32.34.06,2.57.66-.08.33c-1.03,4.24-1.99,8.47-2.71,12.72l-.07.28h-.27Zm-.29-.7h0c.69-4.04,1.61-8.09,2.59-12.12l-1.58-.4c-2.4,8.96-7.04,9.76-16.49,9.7-5.04,0-10.09,0-10.12-5.56v-19h9.95c5.59-.06,6.16,3.31,6.56,7.87l1.73-.36c-.16-2.95-.23-5.91-.23-8.85s.07-6.01.23-9.03h-1.73c-.44,4.17-1.75,7.1-6.63,7.05h-9.88v-21.68h11.48c8.33-.06,9.71,4.24,10.07,9.28l1.73-.47c-.14-2.26-.23-5.16-.23-7.83,0-1.37.03-2.67.08-3.8-5.44.02-13.55.31-20.14.31s-14.68-.29-19.58-.31v1.7h.78c2.85,0,6.26.5,6.27,4.93v41.96c-.01,4.41-3.42,4.9-6.27,4.93h-.78v1.69c4.67,0,13.92-.31,20.96-.31,7.06,0,16.08.3,21.25.31h0Z"/>
    <path class="cls-3" d="m593.14,587.25c0-5.84-3.2-6.08-5.69-6.08h-1.44v-2.41c2.56,0,7.52.32,12.41.32s8.65-.32,12.89-.32c10.08,0,19.06,2.73,19.06,14.11,0,7.19-4.8,11.6-11.13,14.09l13.69,20.49c2.24,3.39,3.84,4.34,7.77,4.8v2.42c-2.64,0-5.21-.32-7.85-.32-2.48,0-5.05.32-7.52.32-6.16-8.09-11.46-16.74-16.66-25.96h-5.27v17.15c0,6.17,2.87,6.4,6.55,6.4h1.44v2.42c-4.58,0-9.2-.32-13.77-.32-3.85,0-7.61.32-11.61.32v-2.42h1.44c2.98,0,5.69-1.34,5.69-4.31v-40.69h0Zm10.25,18.58h3.91c8.01,0,12.33-3.04,12.33-12.49,0-7.12-4.56-11.69-11.69-11.69-2.4,0-3.43.25-4.54.32v23.86h0Z"/>
    <path class="cls-3" d="m640.7,635.01c-2.68,0-5.23-.32-7.86-.32-2.44,0-5,.32-7.79.19-6.14-8.06-11.41-16.66-16.58-25.81h-4.73v16.78c.08,6.02,2.5,5.97,6.21,6.06h1.79v3.1h-.36c-4.58,0-9.22-.32-13.77-.32-3.83,0-7.58.32-11.6.32h-.35v-3.1h1.79c2.89-.02,5.32-1.27,5.33-3.97v-40.69c-.06-5.69-2.84-5.65-5.33-5.74h-1.79v-3.1h.35c2.59,0,7.53.32,12.41.32s8.63-.32,12.89-.32c10.09.02,19.38,2.81,19.41,14.44,0,7.24-4.78,11.75-10.96,14.27l13.45,20.14c2.24,3.32,3.63,4.15,7.53,4.65l.29.04v3.05h-.34Zm-37.31-26.64h5.47l.09.18c5.22,9.2,10.48,17.84,16.37,25.78,2.44,0,5.01-.33,7.51-.33s5.02.28,7.52.32v-1.75c-3.76-.47-5.52-1.59-7.71-4.91l-13.93-20.85.39-.16c6.26-2.46,10.9-6.75,10.91-13.79,0-11.11-8.64-13.69-18.7-13.73-4.23,0-8.07.32-12.89.32s-9.45-.29-12.07-.32v1.7h1.1c2.49,0,6.03.42,6.03,6.44v40.69c0,3.22-3.02,4.68-6.03,4.69h-1.1v1.69c3.85-.01,7.5-.32,11.26-.32,4.48,0,8.99.31,13.43.32v-1.69h-1.09c-3.65,0-6.91-.46-6.91-6.78v-17.48h.35Zm0-2.2h-.35v-24.52l.3-.03c1.09-.08,2.18-.31,4.6-.31,7.3,0,12.04,4.74,12.05,12.04-.02,9.56-4.61,12.81-12.68,12.82h-3.92Zm3.92-.69h0c7.93-.07,11.92-2.82,12-12.13-.04-7-4.39-11.34-11.37-11.37-2.17,0-3.18.2-4.2.29v23.2h3.57Z"/>
    <path class="cls-3" d="m695.07,618.89l.14-.16v-30.03c0-6.57-4.56-7.53-6.96-7.53h-1.75v-2.4c3.76,0,7.44.32,11.21.32,3.29,0,6.56-.32,9.86-.32v2.4h-1.2c-3.36,0-7.13.64-7.13,10.17v36.45c0,2.8.08,5.6.47,8.08h-3.04l-41.23-45.97v33c0,6.97,1.36,9.36,7.52,9.36h1.36v2.42c-3.44,0-6.89-.32-10.32-.32-3.62,0-7.3.32-10.89.32v-2.42h1.11c5.53,0,7.21-3.75,7.21-10.16v-33.73c0-4.48-3.68-7.2-7.28-7.2h-1.04v-2.4c3.03,0,6.17.32,9.21.32,2.39,0,4.72-.32,7.12-.32l35.64,40.12h0Z"/>
    <path class="cls-3" d="m699.71,636.21l-3.3-.11-40.64-45.3v32.09c.09,6.97,1.15,8.94,7.19,9.02h1.69v3.1h-.35c-3.46,0-6.9-.33-10.33-.33s-7.27.33-10.88.33h-.36v-3.1h1.47c5.29-.02,6.8-3.43,6.85-9.83v-33.71c0-4.27-3.5-6.85-6.92-6.86h-1.41v-3.1h.36c3.05,0,6.19.32,9.21.32,2.35,0,4.68-.32,7.36-.21l35.2,39.64v-29.46c-.02-6.36-4.29-7.15-6.61-7.18h-2.12v-3.1h.35c3.79,0,7.47.32,11.22.32,3.27,0,6.55-.32,9.84-.32h.35v3.1h-1.54c-3.3.09-6.71.38-6.79,9.83v36.44c0,2.8.07,5.57.48,8.04l.04.39h-.38Zm-3.04-.7h2.63c-.35-2.4-.43-5.07-.43-7.73v-36.44c0-9.61,4.06-10.5,7.49-10.53h.84v-1.69c-3.14.02-6.31.31-9.5.31-3.68,0-7.25-.29-10.87-.31v1.69h1.42c2.46.03,7.32,1.1,7.32,7.88l-.11,30.27-.16.17-.24.26-35.64-40.27c-2.38,0-4.7.31-7.12.31-2.97,0-5.96-.29-8.87-.31v1.69h.71c3.76.03,7.62,2.87,7.62,7.56v33.71c0,6.43-1.81,10.52-7.55,10.54h-.78s0,1.69,0,1.69c3.46-.02,7.03-.31,10.54-.31s6.69.29,9.99.31v-1.69h-1.01c-6.31,0-7.88-2.76-7.9-9.73v-33.88l41.6,46.5h0Zm-1.6-16.63h0l.24-.23-.24.23Zm-.2-.15h0v-.03l-.06-.06.06.09Z"/>
    <path class="cls-3" d="m720.44,623.22c-.81,2.72-1.78,4.81-1.78,6.24,0,2.41,3.37,2.8,6,2.8h.89v2.42c-3.21-.17-6.48-.32-9.71-.32-2.88,0-5.75.14-8.63.32v-2.42h.48c3.12,0,5.77-1.84,6.95-5.21l12.83-36.75c1.03-2.97,2.49-6.97,2.97-9.94,2.55-.87,5.76-2.47,7.27-3.44.25-.08.39-.17.64-.17s.39,0,.57.25c.23.63.47,1.36.72,2l14.73,41.89c.96,2.8,1.91,5.76,2.95,8.17.97,2.24,2.65,3.19,5.3,3.19h.47v2.42c-3.6-.17-7.21-.32-11.04-.32s-7.94.14-12.02.32v-2.42h.89c1.83,0,4.96-.31,4.96-2.32,0-1.04-.72-3.2-1.62-5.77l-3.12-9.29h-18.17l-2.56,8.33h0Zm11.68-35.48h-.16l-7.45,22.67h14.97l-7.36-22.67Z"/>
    <path class="cls-3" d="m763.09,635.01c-3.6-.16-7.21-.33-11.02-.33s-7.91.17-12.01.33l-.36.02v-3.13h1.23c1.85,0,4.61-.42,4.61-1.96.02-.91-.7-3.11-1.58-5.66l-3.05-9.06h-17.66l-2.49,8.09c-.81,2.73-1.77,4.85-1.77,6.15.03,1.96,3.02,2.43,5.67,2.43h1.23v3.13l-.36-.02c-3.2-.16-6.47-.33-9.67-.33-2.87,0-5.76.17-8.63.33l-.37.02v-3.13h.83c2.98-.01,5.47-1.7,6.62-4.96l12.82-36.75c1.05-2.97,2.49-6.96,3.19-10.16,2.51-.85,5.72-2.46,7.27-3.44.22-.07.44-.18.77-.18.19,0,.63.04.88.47.23.66.48,1.37.72,2.02l14.75,41.88c.94,2.81,1.9,5.77,2.94,8.13.93,2.14,2.4,2.98,4.97,2.99h.82v3.13l-.37-.02h0Zm-22.69-.72h0c3.97-.14,7.85-.29,11.67-.29s7.2.16,10.68.29v-1.67h-.11c-2.74.02-4.64-1.06-5.62-3.42-1.04-2.43-2.02-5.4-2.96-8.21l-14.74-41.88c-.24-.64-.48-1.37-.69-1.93-.07-.08-.05-.08-.12-.08h-.15c-.17,0-.26.05-.47.11-1.54,1.01-4.76,2.58-7.13,3.2-.49,3.03-1.93,7.03-2.98,9.99l-12.82,36.76c-1.22,3.48-4.03,5.46-7.28,5.45h-.13v1.67c2.74-.14,5.52-.29,8.3-.29,3.09,0,6.26.16,9.31.29v-1.67h-.52c-2.6-.03-6.25-.33-6.35-3.15,0-1.6.99-3.65,1.77-6.35l.35.1-.35-.12,2.64-8.56h18.67l3.21,9.52c.9,2.57,1.63,4.7,1.63,5.88-.11,2.46-3.49,2.63-5.31,2.68h-.53v1.67h0Zm-16.37-23.55h0l7.67-23.36h.43v.35l-.09.02.09-.02v-.35h.24l7.6,23.36h-15.94Zm.96-.69h14.02l-6.97-21.46-7.05,21.46Zm6.79-22.22h0l.18-.06-.18.06Z"/>
    <path class="cls-3" d="m766.63,582.77c-6.01,0-6.25,1.44-7.45,7.29h-2.4c.32-2.24.72-4.48.97-6.81.32-2.24.47-4.48.47-6.8h1.93c.64,2.4,2.65,2.32,4.8,2.32h41.33c2.15,0,4.15-.08,4.31-2.49l1.92.32c-.31,2.16-.62,4.33-.87,6.49-.17,2.16-.17,4.33-.17,6.48l-2.4.89c-.15-2.96-.55-7.7-5.92-7.7h-13.13v42.61c0,6.17,2.81,6.88,6.64,6.88h1.52v2.42c-3.12,0-8.72-.32-13.05-.32-4.8,0-10.41.32-13.53.32v-2.42h1.52c4.41,0,6.66-.39,6.66-6.71v-42.78h-13.14Z"/>
    <path class="cls-3" d="m798.18,635.01c-3.14,0-8.75-.32-13.05-.32-4.79,0-10.4.32-13.53.32h-.35v-3.1h1.87c4.41-.11,6.19-.16,6.3-6.37v-42.43h-12.78v-.71h13.47v43.13c0,6.42-2.59,7.06-6.99,7.07h-1.18v1.71c3.17-.03,8.55-.32,13.19-.32,4.18,0,9.53.29,12.7.32v-1.71h-1.18c-3.85-.02-6.97-.94-6.98-7.24v-42.97h13.48c5.38.02,6.08,4.59,6.23,7.56l1.75-.64c0-2.09,0-4.18.16-6.28.22-2.06.52-4.11.82-6.16l-1.21-.21c-.37,2.33-2.63,2.46-4.62,2.43h-41.73c-1.89.02-3.93-.09-4.66-2.34h-1.31c-.02,2.22-.17,4.38-.49,6.51-.21,2.2-.61,4.33-.9,6.43h1.72c1.06-5.58,1.75-7.39,7.74-7.31v.71c-5.94.1-5.8,1.1-7.11,7.02l-.06.27h-3.09l.05-.4c.33-2.26.73-4.49.97-6.81.33-2.24.48-4.46.48-6.76v-.35h2.53l.07.25c.56,2.02,2.02,2.03,4.07,2.07h.4s41.33.01,41.33.01c2.21-.04,3.83-.08,3.96-2.16l.02-.38.38.08,2.27.36-.06.35c-.33,2.14-.63,4.31-.88,6.46-.16,2.13-.16,4.3-.16,6.46v.25l-.23.09-2.84,1.03-.02-.47c-.21-3.01-.52-7.36-5.58-7.36h-12.79v42.26c.08,6.04,2.48,6.46,6.29,6.54h1.88v3.1h-.34Z"/>
    <path class="cls-3" d="m815.46,632.26h1.12c2.89,0,5.92-.39,5.92-4.56v-41.96c0-4.18-3.03-4.57-5.92-4.57h-1.12v-2.4c3.13,0,7.92.32,11.84.32s8.82-.32,12.59-.32v2.4h-1.12c-2.88,0-5.94.39-5.94,4.57v41.96c0,4.17,3.05,4.56,5.94,4.56h1.12v2.42c-3.85,0-8.66-.32-12.65-.32s-8.65.32-11.78.32v-2.42h0Z"/>
    <path class="cls-3" d="m839.89,635.01c-3.87,0-8.66-.33-12.65-.33s-8.65.33-11.77.33h-.35v-3.1h1.47c2.89-.04,5.55-.29,5.56-4.21v-41.96c-.01-3.91-2.67-4.18-5.56-4.23h-1.47v-3.09h.35c3.13,0,7.94.31,11.84.31s8.8-.31,12.59-.31h.34v3.09h-1.46c-2.93.06-5.55.32-5.59,4.23v41.96c.04,3.92,2.67,4.17,5.59,4.21h1.46v3.1h-.34Zm-.36-.7h0v-1.69h-.76c-2.87,0-6.27-.5-6.27-4.92v-41.96c0-4.43,3.4-4.93,6.27-4.93h.76v-1.7c-3.7.02-8.32.31-12.23.31s-8.38-.29-11.49-.31v1.7h.77c2.85,0,6.26.5,6.27,4.93v41.96c-.01,4.41-3.42,4.92-6.27,4.92h-.77v1.69c3.09-.03,7.62-.31,11.42-.31s8.52.29,12.29.31h0Z"/>
    <path class="cls-3" d="m871.82,577.57c17.07,0,30.67,10.58,30.67,27.64,0,18.42-13.21,30.67-30.26,30.67s-29.95-11.53-29.95-28.75,12.88-29.55,29.53-29.55h0Zm1.21,54.78h0c15.54,0,18.24-13.7,18.24-25.38s-6.31-25.88-19.61-25.88c-14.02,0-18.17,12.49-18.17,23.22,0,14.34,6.56,28.04,19.54,28.04h0Z"/>
    <path class="cls-3" d="m841.93,607.12c.03-16.85,13.07-29.88,29.89-29.9v.69c-16.46,0-29.2,12.73-29.21,29.21.04,17.02,12.82,28.39,29.63,28.39,16.88,0,29.9-12.08,29.93-30.32-.02-16.84-13.42-27.26-30.34-27.28v-.69c17.2.01,30.99,10.7,31.02,27.97-.02,18.62-13.4,30.99-30.61,31.02-17.13-.03-30.27-11.68-30.31-29.09h0Zm11.22-2.81h0c.02-10.77,4.23-23.58,18.52-23.58,13.59.03,19.94,14.47,19.96,26.24-.02,11.68-2.77,25.72-18.59,25.72v-.68c15.23-.02,17.86-13.36,17.9-25.04,0-11.61-6.25-25.51-19.27-25.53-13.74.02-17.8,12.2-17.83,22.87.01,14.26,6.51,27.66,19.2,27.7v.68c-13.29-.02-19.87-13.95-19.89-28.37h0Z"/>
    <path class="cls-3" d="m956.46,618.89l.16-.16v-30.03c0-6.57-4.58-7.53-6.98-7.53h-1.73v-2.4c3.75,0,7.44.32,11.19.32,3.29,0,6.57-.32,9.86-.32v2.4h-1.21c-3.35,0-7.12.64-7.12,10.17v36.45c0,2.8.08,5.6.48,8.08h-3.04l-41.25-45.97v33c0,6.97,1.36,9.36,7.52,9.36h1.37v2.42c-3.45,0-6.88-.32-10.33-.32s-7.3.32-10.9.32v-2.42h1.13c5.54,0,7.2-3.75,7.2-10.16v-33.73c0-4.48-3.67-7.2-7.28-7.2h-1.04v-2.4c3.04,0,6.17.32,9.21.32,2.4,0,4.72-.32,7.13-.32l35.64,40.12h0Z"/>
    <path class="cls-3" d="m961.11,636.21l-3.31-.12-40.63-45.29v32.1c.09,6.96,1.15,8.93,7.16,9.01h1.73v3.11h-.35c-3.47,0-6.91-.32-10.33-.32-3.59,0-7.27.32-10.91.32h-.33v-3.11h1.47c5.28-.02,6.8-3.41,6.86-9.8v-33.73c-.01-4.26-3.5-6.85-6.95-6.86h-1.38v-3.09h.33c3.07,0,6.19.31,9.21.31,2.38,0,4.69-.31,7.4-.19l35.18,39.62v-29.45c-.02-6.37-4.29-7.14-6.63-7.2h-2.1v-3.09h.36c3.77,0,7.46.31,11.19.31,3.29,0,6.55-.31,9.87-.31h.34v3.09h-1.56c-3.29.09-6.7.39-6.77,9.83v36.44c0,2.8.06,5.59.45,8.04l.07.39h-.38Zm-3.04-.7h2.62c-.35-2.4-.41-5.07-.41-7.73v-36.44c0-9.63,4.04-10.5,7.47-10.53h.87v-1.69c-3.16.02-6.32.31-9.53.31-3.64,0-7.23-.29-10.85-.31v1.69h1.4c2.48.03,7.31,1.12,7.31,7.9l-.09,30.26-.15.17-.25.25-35.64-40.27c-2.36,0-4.7.31-7.13.31-2.95,0-5.95-.29-8.87-.31v1.69h.71c3.76.03,7.63,2.87,7.63,7.56v33.73c0,6.4-1.79,10.5-7.55,10.52h-.79s0,1.69,0,1.69c3.48-.02,7.04-.31,10.56-.31,3.34,0,6.65.29,9.98.31v-1.69h-1.03c-6.28,0-7.86-2.77-7.86-9.73v-33.9l41.59,46.51h0Zm-1.61-16.63h0l.25-.23-.25.23Zm-.19-.15h0v-.03l-.07-.06.07.09Z"/>
    <path class="cls-3" d="m981.82,623.22c-.78,2.72-1.75,4.81-1.75,6.24,0,2.41,3.37,2.8,6,2.8h.89v2.42c-3.2-.17-6.49-.32-9.69-.32-2.89,0-5.76.14-8.64.32v-2.42h.46c3.14,0,5.79-1.84,6.97-5.21l12.83-36.75c1.03-2.97,2.48-6.97,2.95-9.94,2.56-.87,5.76-2.47,7.3-3.44.23-.08.39-.17.63-.17s.39,0,.55.25c.24.63.49,1.36.73,2l14.73,41.89c.96,2.8,1.92,5.76,2.97,8.17.96,2.24,2.65,3.19,5.28,3.19h.49v2.42c-3.61-.17-7.21-.32-11.06-.32s-7.92.14-12.01.32v-2.42h.89c1.83,0,4.97-.31,4.97-2.32,0-1.04-.73-3.2-1.62-5.77l-3.11-9.29h-18.18l-2.57,8.33h0Zm11.71-35.48h-.16l-7.46,22.67h14.99l-7.37-22.67Z"/>
    <path class="cls-3" d="m1024.48,635.01c-3.6-.14-7.2-.32-11.03-.32s-7.91.18-12,.32l-.35.02v-3.12h1.22c1.87,0,4.63-.43,4.63-1.97.02-.91-.71-3.09-1.6-5.66l-3.04-9.06h-17.67l-2.48,8.09c-.8,2.74-1.75,4.85-1.74,6.14,0,1.97,3,2.45,5.65,2.45h1.22v3.12l-.35-.02c-3.2-.14-6.48-.32-9.67-.32-2.87,0-5.75.18-8.64.32l-.35.02v-3.12h.81c2.99-.01,5.49-1.73,6.65-4.98l12.82-36.75c1.02-2.97,2.46-6.96,3.18-10.14,2.52-.87,5.73-2.47,7.29-3.45.21-.07.43-.17.75-.17.21-.02.62.03.88.47.24.63.47,1.35.74,2l14.73,41.88c.96,2.81,1.92,5.77,2.95,8.15.94,2.12,2.4,2.96,4.95,2.98h.83v3.12l-.37-.02h0Zm-22.69-.71h0c3.96-.15,7.86-.31,11.67-.31s7.22.16,10.71.29v-1.67h-.14c-2.71,0-4.6-1.06-5.6-3.42-1.06-2.43-2.01-5.4-2.97-8.2l-14.74-41.89c-.24-.64-.48-1.37-.68-1.91-.07-.1-.06-.1-.12-.1h-.15c-.17,0-.26.06-.45.11-1.56.98-4.77,2.58-7.14,3.2-.49,3.03-1.95,7.02-2.98,9.99l-12.82,36.76c-1.22,3.48-4.01,5.46-7.29,5.45h-.12v1.67c2.75-.14,5.51-.29,8.3-.29,3.1,0,6.26.16,9.35.29v-1.67h-.54c-2.6-.03-6.26-.32-6.35-3.16.02-1.59,1.01-3.63,1.78-6.34l.33.1-.33-.12,2.64-8.56h18.67l3.21,9.52c.88,2.58,1.61,4.7,1.61,5.88-.12,2.46-3.48,2.63-5.31,2.68h-.53v1.68h0Zm-16.36-23.57h0l7.68-23.36h.42v.35l-.08.02.08-.02v-.35h.25l7.57,23.36h-15.91Zm.96-.69h14l-6.96-21.45-7.04,21.45h0Zm6.8-22.22h0l.16-.06-.16.06Z"/>
    <path class="cls-3" d="m1044.7,626.82c0,3.2,2.22,4.16,4.79,4.49,3.28.24,6.89.24,10.58-.16,3.35-.4,6.24-2.33,7.67-4.33,1.28-1.77,2-4.01,2.48-5.77h2.32c-.88,4.56-2,9.06-2.97,13.62-7.03,0-14.09-.32-21.13-.32s-14.09.32-21.14.32v-2.42h1.1c2.9,0,6.03-.39,6.03-5.36v-41.16c0-4.18-3.13-4.57-6.03-4.57h-1.1v-2.4c4.23,0,8.4.32,12.64.32s8.1-.32,12.18-.32v2.4h-2.02c-3.03,0-5.42.09-5.42,4.32v41.33h0Z"/>
    <path class="cls-3" d="m1069.58,635.01c-7.06,0-14.1-.32-21.13-.32s-14.1.32-21.16.32h-.34v-3.1h1.46c2.9-.07,5.65-.27,5.68-5.01v-41.17c-.03-3.89-2.76-4.16-5.68-4.22h-1.46v-3.09h.34c4.26,0,8.43.31,12.66.31s8.06-.31,12.18-.31h.33v3.09h-2.34c-3.1.09-5.04-.06-5.1,3.98v41.33c.02,2.98,1.98,3.79,4.48,4.14,1.42.1,2.9.16,4.44.16,1.96,0,4-.09,6.06-.32,3.26-.38,6.07-2.27,7.45-4.18,1.23-1.71,1.94-3.91,2.42-5.66l.07-.27h3.02l-.07.42c-.9,4.58-2,9.06-2.98,13.62l-.07.27h-.27Zm-.29-.7h0c.93-4.34,1.98-8.59,2.84-12.92h-1.64c-.5,1.74-1.21,3.89-2.47,5.64-1.49,2.08-4.46,4.03-7.93,4.46-2.1.22-4.18.33-6.14.33-1.55,0-3.05-.07-4.5-.17-2.6-.29-5.13-1.4-5.12-4.82v-41.33c0-4.45,2.81-4.68,5.8-4.68h1.65v-1.7c-3.95.02-7.83.32-11.82.32s-8.2-.29-12.31-.32v1.7h.77c2.86,0,6.36.5,6.36,4.91v41.17c0,5.18-3.48,5.72-6.36,5.72h-.77v1.69c6.92,0,13.85-.31,20.81-.31s13.91.3,20.84.31h0Z"/>
    <path class="cls-3" d="m1071.57,576.49c4.82,0,8.43,3.71,8.43,8.46s-3.6,8.41-8.43,8.41-8.44-3.68-8.44-8.41c0-4.75,3.61-8.46,8.44-8.46Zm0,15.3h0c3.77,0,6.67-3.22,6.67-6.84s-2.85-6.89-6.67-6.89-6.69,3.25-6.69,6.89,2.9,6.84,6.69,6.84Zm-4.2-2.39h0v-.42c1.04-.14,1.23-.11,1.23-.76v-6.24c0-.88-.09-1.18-1.19-1.13v-.43h4.31c1.49,0,2.85.71,2.85,2.24,0,1.25-.83,2.18-1.99,2.54l1.38,1.93c.65.88,1.38,1.7,1.86,1.99v.27h-1.64c-.79,0-1.48-1.66-3.03-3.89h-.93v2.8c0,.56.19.52,1.23.67v.42h-4.08Zm2.84-4.44h.99c1.09,0,1.6-.83,1.6-2.15s-.79-1.82-1.65-1.82h-.94v3.97Z"/>
    <path class="cls-1" d="m206.94,679.93c76.49.37,146.3-62.38,146.3-138.71,0-83.47-69.81-141.17-146.3-141.14h-65.83C63.71,400.04,0,457.76,0,541.22,0,617.56,63.71,680.29,141.12,679.93h65.83Z"/>
    <path class="cls-2" d="m141.43,411.64c-70.73.02-128.05,57.35-128.06,128.11.02,70.75,57.33,128.07,128.06,128.09,70.75-.02,128.07-57.35,128.08-128.09-.01-70.76-57.34-128.09-128.08-128.11Zm-81.17,128.11h0c.07-34.58,21.66-64.06,52.11-75.78v151.54c-30.45-11.71-52.05-41.18-52.11-75.76Zm110.23,75.79h0v-151.58c30.46,11.69,52.09,41.19,52.15,75.78-.06,34.6-21.68,64.08-52.15,75.79Z"/>
    <path class="cls-3" d="m398.1,460.28c0-13.24-6.9-12.37-13.52-12.51v-3.83c5.74.28,11.62.28,17.36.28,6.18,0,14.57-.28,25.46-.28,38.1,0,58.85,25.45,58.85,51.52,0,14.58-8.53,51.22-60.62,51.22-7.5,0-14.43-.29-21.34-.29s-13.1.14-19.72.29v-3.82c8.82-.89,13.1-1.18,13.52-11.19v-71.38h0Zm14.43,69.04h0c0,11.33,8.1,12.65,15.31,12.65,31.79,0,42.23-23.99,42.23-45.93,0-27.51-17.66-47.38-46.06-47.38-6.04,0-8.82.43-11.48.59v80.06h0Z"/>
    <path class="cls-3" d="m491.43,542.86h2.79c4.11,0,7.06,0,7.06-4.87v-39.88c0-6.47-2.2-7.37-7.65-10.29v-2.36c6.91-2.08,15.16-4.85,15.74-5.3,1.04-.59,1.92-.74,2.65-.74s1.03.89,1.03,2.07v56.5c0,4.87,3.24,4.87,7.36,4.87h2.5v3.83c-5.01,0-10.16-.29-15.45-.29s-10.6.14-16.04.29v-3.83h0Zm15.74-86.11h0c-3.83,0-7.21-3.53-7.21-7.36s3.53-7.08,7.21-7.08,7.21,3.1,7.21,7.08-3.25,7.36-7.21,7.36Z"/>
    <path class="cls-3" d="m536.89,498.99c0-5.44-1.63-6.91-8.53-9.71v-2.79c6.32-2.06,12.35-3.98,19.42-7.07.44,0,.87.3.87,1.47v9.57c8.4-6.03,15.61-11.04,25.49-11.04,12.49,0,16.91,9.13,16.91,20.61v37.97c0,4.87,3.24,4.87,7.36,4.87h2.65v3.83c-5.16,0-10.31-.29-15.6-.29s-10.61.14-15.9.29v-3.83h2.64c4.13,0,7.06,0,7.06-4.87v-38.11c0-8.4-5.13-12.52-13.53-12.52-4.7,0-12.21,3.83-17.09,7.07v43.55c0,4.87,3.25,4.87,7.38,4.87h2.64v3.83c-5.15,0-10.31-.29-15.6-.29s-10.6.14-15.89.29v-3.83h2.65c4.12,0,7.06,0,7.06-4.87v-39h0Z"/>
    <path class="cls-3" d="m612.25,506.06c-.31,1.33-.31,3.53,0,8.54.87,13.98,9.87,25.45,21.62,25.45,8.1,0,14.44-4.41,19.88-9.86l2.05,2.07c-6.77,8.97-15.16,16.62-27.22,16.62-23.4,0-28.11-22.67-28.11-32.08,0-28.85,19.42-37.39,29.72-37.39,11.93,0,24.74,7.5,24.88,23.1,0,.89,0,1.77-.14,2.66l-1.33.88h-41.34Zm26.05-4.71h0c3.67,0,4.1-1.92,4.1-3.68,0-7.51-4.56-13.54-12.81-13.54-8.97,0-15.15,6.61-16.91,17.22h25.62Z"/>
    <path class="cls-3" d="m658.45,542.86h3.98c4.11,0,7.05,0,7.05-4.87v-41.35c0-4.56-5.44-5.45-7.65-6.62v-2.2c10.74-4.57,16.64-8.4,17.97-8.4.87,0,1.3.44,1.3,1.92v13.24h.31c3.67-5.74,9.86-15.16,18.83-15.16,3.68,0,8.38,2.5,8.38,7.8,0,3.98-2.79,7.52-6.91,7.52-4.58,0-4.58-3.54-9.72-3.54-2.5,0-10.74,3.39-10.74,12.22v34.58c0,4.87,2.94,4.87,7.06,4.87h8.23v3.83c-8.1-.15-14.25-.29-20.59-.29s-12.22.14-17.51.29v-3.83h0Z"/>
    <path class="cls-3" d="m715.11,526.22c1.92,9.72,7.8,17.96,18.55,17.96,8.66,0,11.9-5.3,11.9-10.45,0-17.37-32.07-11.78-32.07-35.47,0-8.25,6.63-18.85,22.81-18.85,4.7,0,11.03,1.33,16.76,4.28l1.04,15h-3.39c-1.47-9.26-6.61-14.56-16.04-14.56-5.89,0-11.47,3.39-11.47,9.71,0,17.24,34.14,11.92,34.14,35.03,0,9.71-7.8,20.02-25.31,20.02-5.89,0-12.8-2.06-17.95-5l-1.62-16.93,2.65-.75h0Z"/>
    <path class="cls-3" d="m890.22,470.58h-3.67c-2.8-17.21-15.01-24.14-31.49-24.14s-41.51,11.33-41.51,46.65c0,29.75,21.21,51.08,43.86,51.08,14.56,0,26.64-10.01,29.58-25.46l3.38.88-3.38,21.49c-6.18,3.84-22.81,7.81-32.53,7.81-34.43,0-56.2-22.23-56.2-55.34,0-30.17,26.93-51.82,55.77-51.82,11.92,0,23.39,3.84,34.73,7.82l1.47,21.04h0Z"/>
    <path class="cls-3" d="m895.53,542.86h2.79c4.13,0,7.08,0,7.08-4.87v-81.97c0-9.57-2.21-9.87-7.81-11.48v-2.35c5.89-1.91,12.07-4.56,15.16-6.34,1.6-.88,2.79-1.62,3.23-1.62.9,0,1.19.89,1.19,2.07v101.69c0,4.87,3.23,4.87,7.36,4.87h2.48v3.83c-4.98,0-10.13-.29-15.44-.29s-10.59.14-16.04.29v-3.83h0Z"/>
    <path class="cls-3" d="m990.02,538.58c0,2.66,1.61,2.8,4.11,2.8,1.77,0,3.97-.14,5.89-.14v3.1c-6.33.58-18.4,3.68-21.2,4.55l-.74-.44v-11.91c-8.82,7.21-15.6,12.35-26.05,12.35-7.95,0-16.18-5.15-16.18-17.5v-37.69c0-3.83-.58-7.51-8.81-8.24v-2.8c5.3-.14,17.05-1.03,18.97-1.03,1.63,0,1.63,1.03,1.63,4.27v37.96c0,4.43,0,17.08,12.79,17.08,5,0,11.62-3.83,17.8-8.96v-39.61c0-2.93-7.06-4.55-12.34-6.03v-2.65c13.23-.89,21.48-2.06,22.94-2.06,1.19,0,1.19,1.03,1.19,2.65v54.3h0Z"/>
    <path class="cls-3" d="m1019.3,490.01c5.88-5,13.83-10.6,21.93-10.6,17.07,0,27.36,14.88,27.36,30.91,0,19.28-14.12,38.56-35.18,38.56-10.88,0-16.62-3.54-20.45-5.15l-4.41,3.38-3.08-1.61c1.3-8.68,2.05-17.22,2.05-26.2v-63.29c0-9.57-2.22-9.87-7.81-11.48v-2.35c5.9-1.91,12.07-4.56,15.16-6.34,1.62-.88,2.79-1.62,3.25-1.62.88,0,1.17.89,1.17,2.07v53.72h0Zm0,40.03h0c0,5.6,5.29,15.03,15.15,15.03,15.75,0,22.37-15.46,22.37-28.57,0-15.89-12.05-29.14-23.54-29.14-5.46,0-10.01,3.54-13.98,6.93v35.75h0Z"/>
    <path class="cls-3" d="m384.41,632.26h1.13c2.88,0,5.92-.39,5.92-4.56v-41.96c0-4.18-3.04-4.57-5.92-4.57h-1.13v-2.4c3.13,0,7.93.32,11.87.32s8.8-.32,12.56-.32v2.4h-1.13c-2.87,0-5.92.39-5.92,4.57v41.96c0,4.17,3.05,4.56,5.92,4.56h1.13v2.42c-3.84,0-8.66-.32-12.65-.32s-8.65.32-11.78.32v-2.42h0Z"/>
    <path class="cls-3" d="m408.84,635.01c-3.87,0-8.67-.32-12.65-.32s-8.62.32-11.77.32h-.34v-3.1h1.47c2.9-.07,5.55-.3,5.57-4.21v-41.96c-.03-3.91-2.67-4.18-5.57-4.23h-1.47v-3.1h.34c3.15,0,7.95.32,11.86.32s8.78-.32,12.57-.32h.36v3.1h-1.48c-2.9.06-5.56.32-5.58,4.23v41.96c.02,3.91,2.68,4.15,5.58,4.21h1.48v3.1h-.36Zm-.34-.68h0v-1.71h-.78c-2.86,0-6.26-.49-6.28-4.92v-41.96c.02-4.43,3.42-4.93,6.28-4.93h.78v-1.7c-3.7,0-8.33.31-12.22.31s-8.41-.29-11.51-.31v1.7h.77c2.85,0,6.27.5,6.27,4.93v41.96c0,4.43-3.41,4.92-6.27,4.92h-.77v1.71c3.1-.03,7.62-.32,11.42-.32,3.9,0,8.53.3,12.31.32h0Z"/>
    <path class="cls-3" d="m463.85,618.89l.16-.16v-30.03c0-6.57-4.57-7.53-6.97-7.53h-1.77v-2.4c3.77,0,7.45.32,11.21.32,3.28,0,6.58-.32,9.86-.32v2.4h-1.2c-3.37,0-7.14.64-7.14,10.17v36.45c0,2.8.08,5.6.48,8.08h-3.05l-41.23-45.97v33c0,6.97,1.35,9.36,7.52,9.36h1.35v2.42c-3.44,0-6.87-.32-10.32-.32s-7.28.32-10.89.32v-2.42h1.12c5.52,0,7.2-3.75,7.2-10.16v-33.73c0-4.48-3.69-7.2-7.28-7.2h-1.04v-2.4c3.04,0,6.16.32,9.2.32,2.4,0,4.73-.32,7.13-.32l35.64,40.12h0Z"/>
    <path class="cls-3" d="m468.49,636.22l-3.3-.12-40.64-45.29v32.09c.09,6.96,1.15,8.94,7.19,9.02h1.72v3.1h-.36c-3.46,0-6.91-.32-10.33-.32-3.59,0-7.26.32-10.89.32h-.35v-3.1h1.48c5.29-.03,6.8-3.43,6.86-9.81v-33.73c-.01-4.26-3.51-6.85-6.94-6.86h-1.4v-3.09h.35c3.06,0,6.2.31,9.2.31,2.38,0,4.7-.31,7.4-.19l35.19,39.62v-29.45c-.04-6.37-4.29-7.14-6.62-7.2h-2.12v-3.09h.36c3.78,0,7.47.31,11.21.31,3.26,0,6.54-.31,9.85-.31h.35v3.09h-1.54c-3.3.09-6.7.38-6.79,9.83v36.44c0,2.8.08,5.6.47,8.02l.08.41h-.42Zm-3.04-.71h2.65c-.36-2.4-.42-5.07-.42-7.73v-36.44c0-9.61,4.03-10.52,7.47-10.52h.84v-1.7c-3.15.02-6.32.31-9.5.31-3.66,0-7.23-.29-10.86-.31v1.7s1.41,0,1.41,0c2.46,0,7.32,1.1,7.32,7.89l-.11,30.26-.16.17-.27.25-35.61-40.27c-2.38,0-4.7.31-7.14.31-2.94,0-5.94-.29-8.85-.31l-.02,1.7h.71c3.76,0,7.62,2.87,7.62,7.56v33.73c0,6.4-1.78,10.5-7.54,10.52l-.77-.02v1.73c3.47-.03,7.04-.32,10.54-.32s6.67.29,9.98.32v-1.7h-1.01c-6.3-.02-7.87-2.76-7.87-9.73v-33.9l41.58,46.52h0Zm-1.59-16.63h0l.26-.23-.26.23Zm-.18-.15h0v-.03l-.07-.06.07.08Z"/>
    <path class="cls-3" d="m488.33,582.77c-6.01,0-6.24,1.44-7.44,7.29h-2.4c.32-2.24.72-4.48.96-6.81.32-2.24.48-4.48.48-6.8h1.93c.64,2.4,2.64,2.32,4.81,2.32h41.31c2.16,0,4.16-.08,4.33-2.49l1.91.32c-.31,2.16-.63,4.33-.88,6.49-.14,2.16-.14,4.33-.14,6.48l-2.41.89c-.17-2.96-.57-7.7-5.92-7.7h-13.13v42.61c0,6.17,2.8,6.88,6.64,6.88h1.53v2.42c-3.12,0-8.73-.32-13.05-.32-4.8,0-10.42.32-13.54.32v-2.42h1.53c4.41,0,6.65-.39,6.65-6.71v-42.78h-13.14Z"/>
    <path class="cls-3" d="m519.9,635.01c-3.15,0-8.76-.32-13.06-.32-4.8,0-10.4.32-13.54.32h-.33v-3.1h1.86c4.41-.11,6.19-.16,6.29-6.37v-42.43h-12.78v-.71h13.48v43.13c0,6.42-2.59,7.07-6.99,7.08h-1.18v1.69c3.16-.02,8.55-.31,13.19-.31,4.18,0,9.53.29,12.69.31v-1.69h-1.17c-3.87,0-6.99-.96-6.99-7.25v-42.97h13.48c5.38.02,6.07,4.59,6.25,7.56l1.73-.64c0-2.09.01-4.18.16-6.29.23-2.06.53-4.1.83-6.15l-1.22-.21c-.37,2.33-2.62,2.45-4.64,2.43h-41.71c-1.88,0-3.94-.09-4.66-2.33h-1.32c-.01,2.22-.17,4.36-.47,6.5-.23,2.2-.6,4.31-.9,6.43h1.72c1.05-5.58,1.74-7.39,7.72-7.31v.71c-5.92.11-5.8,1.1-7.1,7.02l-.06.27h-3.08l.04-.42c.32-2.24.73-4.48.97-6.81.33-2.22.49-4.44.49-6.74v-.35h2.54l.06.25c.55,2.02,2.03,2.03,4.07,2.07h41.71c2.23-.03,3.85-.07,3.99-2.16l.03-.38.36.08,2.26.36-.05.35c-.32,2.14-.64,4.31-.87,6.46-.16,2.13-.16,4.3-.16,6.46v.25l-.22.09-2.84,1.03-.02-.47c-.21-3.01-.53-7.36-5.59-7.36h-12.78v42.26c.07,6.04,2.47,6.46,6.29,6.54h1.88v3.1h-.34Z"/>
    <path class="cls-3" d="m536.77,632.26h1.13c2.88,0,5.92-.39,5.92-4.56v-41.96c0-4.18-3.05-4.57-5.92-4.57h-1.13v-2.4c4.88,0,13.22.32,19.93.32s15.05-.32,20.5-.32c-.13,3.44-.06,8.73.18,12.25l-2.42.64c-.38-5.2-1.34-9.36-9.76-9.36h-11.12v20.97h9.52c4.8,0,5.85-2.72,6.32-7.05h2.4c-.15,3.14-.24,6.26-.24,9.38s.08,6.09.24,9.13l-2.4.48c-.47-4.8-.72-7.92-6.25-7.92h-9.59v18.65c0,5.21,4.63,5.21,9.76,5.21,9.61,0,13.85-.65,16.25-9.77l2.24.55c-1.05,4.25-2.01,8.49-2.72,12.74-5.13,0-14.34-.32-21.54-.32s-16.74.32-21.31.32v-2.42h0Z"/>
    <path class="cls-3" d="m579.61,635.01c-5.14,0-14.35-.33-21.54-.33s-16.73.33-21.3.33h-.34v-3.1h1.46c2.9-.04,5.54-.3,5.57-4.21v-41.96c-.04-3.91-2.67-4.17-5.57-4.23h-1.46v-3.09h.34c4.89,0,13.22.31,19.93.31s15.04-.31,20.5-.31h.36l-.02.36c-.06,1.2-.08,2.63-.08,4.14,0,2.77.08,5.8.24,8.08v.29s-.26.08-.26.08l-2.82.73-.02-.41c-.47-5.2-1.17-8.97-9.41-9.05h-10.79v20.27s9.18,0,9.18,0c4.61-.04,5.44-2.4,5.98-6.72l.03-.32h3.07v.36c-.16,3.12-.26,6.24-.26,9.36s.1,6.07.26,9.12v.28s-.28.07-.28.07l-2.78.56-.03-.38c-.55-4.89-.59-7.56-5.91-7.62h-9.26s0,18.31,0,18.31c0,4.86,4.2,4.84,9.42,4.86,9.64-.06,13.5-.52,15.92-9.52l.08-.32.34.06,2.57.66-.08.33c-1.03,4.24-1.99,8.47-2.71,12.72l-.07.28h-.27Zm-.29-.7h0c.69-4.04,1.61-8.09,2.59-12.12l-1.58-.4c-2.4,8.96-7.04,9.76-16.49,9.7-5.04,0-10.09,0-10.12-5.56v-19h9.95c5.59-.06,6.16,3.31,6.56,7.87l1.73-.36c-.16-2.95-.23-5.91-.23-8.85s.07-6.01.23-9.03h-1.73c-.44,4.17-1.75,7.1-6.63,7.05h-9.88v-21.68h11.48c8.33-.06,9.71,4.24,10.07,9.28l1.73-.47c-.14-2.26-.23-5.16-.23-7.83,0-1.37.03-2.67.08-3.8-5.44.02-13.55.31-20.14.31s-14.68-.29-19.58-.31v1.7h.78c2.85,0,6.26.5,6.27,4.93v41.96c-.01,4.41-3.42,4.9-6.27,4.93h-.78v1.69c4.67,0,13.92-.31,20.96-.31,7.06,0,16.08.3,21.25.31h0Z"/>
    <path class="cls-3" d="m593.14,587.25c0-5.84-3.2-6.08-5.69-6.08h-1.44v-2.41c2.56,0,7.52.32,12.41.32s8.65-.32,12.89-.32c10.08,0,19.06,2.73,19.06,14.11,0,7.19-4.8,11.6-11.13,14.09l13.69,20.49c2.24,3.39,3.84,4.34,7.77,4.8v2.42c-2.64,0-5.21-.32-7.85-.32-2.48,0-5.05.32-7.52.32-6.16-8.09-11.46-16.74-16.66-25.96h-5.27v17.15c0,6.17,2.87,6.4,6.55,6.4h1.44v2.42c-4.58,0-9.2-.32-13.77-.32-3.85,0-7.61.32-11.61.32v-2.42h1.44c2.98,0,5.69-1.34,5.69-4.31v-40.69h0Zm10.25,18.58h3.91c8.01,0,12.33-3.04,12.33-12.49,0-7.12-4.56-11.69-11.69-11.69-2.4,0-3.43.25-4.54.32v23.86h0Z"/>
    <path class="cls-3" d="m640.7,635.01c-2.68,0-5.23-.32-7.86-.32-2.44,0-5,.32-7.79.19-6.14-8.06-11.41-16.66-16.58-25.81h-4.73v16.78c.08,6.02,2.5,5.97,6.21,6.06h1.79v3.1h-.36c-4.58,0-9.22-.32-13.77-.32-3.83,0-7.58.32-11.6.32h-.35v-3.1h1.79c2.89-.02,5.32-1.27,5.33-3.97v-40.69c-.06-5.69-2.84-5.65-5.33-5.74h-1.79v-3.1h.35c2.59,0,7.53.32,12.41.32s8.63-.32,12.89-.32c10.09.02,19.38,2.81,19.41,14.44,0,7.24-4.78,11.75-10.96,14.27l13.45,20.14c2.24,3.32,3.63,4.15,7.53,4.65l.29.04v3.05h-.34Zm-37.31-26.64h5.47l.09.18c5.22,9.2,10.48,17.84,16.37,25.78,2.44,0,5.01-.33,7.51-.33s5.02.28,7.52.32v-1.75c-3.76-.47-5.52-1.59-7.71-4.91l-13.93-20.85.39-.16c6.26-2.46,10.9-6.75,10.91-13.79,0-11.11-8.64-13.69-18.7-13.73-4.23,0-8.07.32-12.89.32s-9.45-.29-12.07-.32v1.7h1.1c2.49,0,6.03.42,6.03,6.44v40.69c0,3.22-3.02,4.68-6.03,4.69h-1.1v1.69c3.85-.01,7.5-.32,11.26-.32,4.48,0,8.99.31,13.43.32v-1.69h-1.09c-3.65,0-6.91-.46-6.91-6.78v-17.48h.35Zm0-2.2h-.35v-24.52l.3-.03c1.09-.08,2.18-.31,4.6-.31,7.3,0,12.04,4.74,12.05,12.04-.02,9.56-4.61,12.81-12.68,12.82h-3.92Zm3.92-.69h0c7.93-.07,11.92-2.82,12-12.13-.04-7-4.39-11.34-11.37-11.37-2.17,0-3.18.2-4.2.29v23.2h3.57Z"/>
    <path class="cls-3" d="m695.07,618.89l.14-.16v-30.03c0-6.57-4.56-7.53-6.96-7.53h-1.75v-2.4c3.76,0,7.44.32,11.21.32,3.29,0,6.56-.32,9.86-.32v2.4h-1.2c-3.36,0-7.13.64-7.13,10.17v36.45c0,2.8.08,5.6.47,8.08h-3.04l-41.23-45.97v33c0,6.97,1.36,9.36,7.52,9.36h1.36v2.42c-3.44,0-6.89-.32-10.32-.32-3.62,0-7.3.32-10.89.32v-2.42h1.11c5.53,0,7.21-3.75,7.21-10.16v-33.73c0-4.48-3.68-7.2-7.28-7.2h-1.04v-2.4c3.03,0,6.17.32,9.21.32,2.39,0,4.72-.32,7.12-.32l35.64,40.12h0Z"/>
    <path class="cls-3" d="m699.71,636.21l-3.3-.11-40.64-45.3v32.09c.09,6.97,1.15,8.94,7.19,9.02h1.69v3.1h-.35c-3.46,0-6.9-.33-10.33-.33s-7.27.33-10.88.33h-.36v-3.1h1.47c5.29-.02,6.8-3.43,6.85-9.83v-33.71c0-4.27-3.5-6.85-6.92-6.86h-1.41v-3.1h.36c3.05,0,6.19.32,9.21.32,2.35,0,4.68-.32,7.36-.21l35.2,39.64v-29.46c-.02-6.36-4.29-7.15-6.61-7.18h-2.12v-3.1h.35c3.79,0,7.47.32,11.22.32,3.27,0,6.55-.32,9.84-.32h.35v3.1h-1.54c-3.3.09-6.71.38-6.79,9.83v36.44c0,2.8.07,5.57.48,8.04l.04.39h-.38Zm-3.04-.7h2.63c-.35-2.4-.43-5.07-.43-7.73v-36.44c0-9.61,4.06-10.5,7.49-10.53h.84v-1.69c-3.14.02-6.31.31-9.5.31-3.68,0-7.25-.29-10.87-.31v1.69h1.42c2.46.03,7.32,1.1,7.32,7.88l-.11,30.27-.16.17-.24.26-35.64-40.27c-2.38,0-4.7.31-7.12.31-2.97,0-5.96-.29-8.87-.31v1.69h.71c3.76.03,7.62,2.87,7.62,7.56v33.71c0,6.43-1.81,10.52-7.55,10.54h-.78s0,1.69,0,1.69c3.46-.02,7.03-.31,10.54-.31s6.69.29,9.99.31v-1.69h-1.01c-6.31,0-7.88-2.76-7.9-9.73v-33.88l41.6,46.5h0Zm-1.6-16.63h0l.24-.23-.24.23Zm-.2-.15h0v-.03l-.06-.06.06.09Z"/>
    <path class="cls-3" d="m720.44,623.22c-.81,2.72-1.78,4.81-1.78,6.24,0,2.41,3.37,2.8,6,2.8h.89v2.42c-3.21-.17-6.48-.32-9.71-.32-2.88,0-5.75.14-8.63.32v-2.42h.48c3.12,0,5.77-1.84,6.95-5.21l12.83-36.75c1.03-2.97,2.49-6.97,2.97-9.94,2.55-.87,5.76-2.47,7.27-3.44.25-.08.39-.17.64-.17s.39,0,.57.25c.23.63.47,1.36.72,2l14.73,41.89c.96,2.8,1.91,5.76,2.95,8.17.97,2.24,2.65,3.19,5.3,3.19h.47v2.42c-3.6-.17-7.21-.32-11.04-.32s-7.94.14-12.02.32v-2.42h.89c1.83,0,4.96-.31,4.96-2.32,0-1.04-.72-3.2-1.62-5.77l-3.12-9.29h-18.17l-2.56,8.33h0Zm11.68-35.48h-.16l-7.45,22.67h14.97l-7.36-22.67Z"/>
    <path class="cls-3" d="m763.09,635.01c-3.6-.16-7.21-.33-11.02-.33s-7.91.17-12.01.33l-.36.02v-3.13h1.23c1.85,0,4.61-.42,4.61-1.96.02-.91-.7-3.11-1.58-5.66l-3.05-9.06h-17.66l-2.49,8.09c-.81,2.73-1.77,4.85-1.77,6.15.03,1.96,3.02,2.43,5.67,2.43h1.23v3.13l-.36-.02c-3.2-.16-6.47-.33-9.67-.33-2.87,0-5.76.17-8.63.33l-.37.02v-3.13h.83c2.98-.01,5.47-1.7,6.62-4.96l12.82-36.75c1.05-2.97,2.49-6.96,3.19-10.16,2.51-.85,5.72-2.46,7.27-3.44.22-.07.44-.18.77-.18.19,0,.63.04.88.47.23.66.48,1.37.72,2.02l14.75,41.88c.94,2.81,1.9,5.77,2.94,8.13.93,2.14,2.4,2.98,4.97,2.99h.82v3.13l-.37-.02h0Zm-22.69-.72h0c3.97-.14,7.85-.29,11.67-.29s7.2.16,10.68.29v-1.67h-.11c-2.74.02-4.64-1.06-5.62-3.42-1.04-2.43-2.02-5.4-2.96-8.21l-14.74-41.88c-.24-.64-.48-1.37-.69-1.93-.07-.08-.05-.08-.12-.08h-.15c-.17,0-.26.05-.47.11-1.54,1.01-4.76,2.58-7.13,3.2-.49,3.03-1.93,7.03-2.98,9.99l-12.82,36.76c-1.22,3.48-4.03,5.46-7.28,5.45h-.13v1.67c2.74-.14,5.52-.29,8.3-.29,3.09,0,6.26.16,9.31.29v-1.67h-.52c-2.6-.03-6.25-.33-6.35-3.15,0-1.6.99-3.65,1.77-6.35l.35.1-.35-.12,2.64-8.56h18.67l3.21,9.52c.9,2.57,1.63,4.7,1.63,5.88-.11,2.46-3.49,2.63-5.31,2.68h-.53v1.67h0Zm-16.37-23.55h0l7.67-23.36h.43v.35l-.09.02.09-.02v-.35h.24l7.6,23.36h-15.94Zm.96-.69h14.02l-6.97-21.46-7.05,21.46Zm6.79-22.22h0l.18-.06-.18.06Z"/>
    <path class="cls-3" d="m766.63,582.77c-6.01,0-6.25,1.44-7.45,7.29h-2.4c.32-2.24.72-4.48.97-6.81.32-2.24.47-4.48.47-6.8h1.93c.64,2.4,2.65,2.32,4.8,2.32h41.33c2.15,0,4.15-.08,4.31-2.49l1.92.32c-.31,2.16-.62,4.33-.87,6.49-.17,2.16-.17,4.33-.17,6.48l-2.4.89c-.15-2.96-.55-7.7-5.92-7.7h-13.13v42.61c0,6.17,2.81,6.88,6.64,6.88h1.52v2.42c-3.12,0-8.72-.32-13.05-.32-4.8,0-10.41.32-13.53.32v-2.42h1.52c4.41,0,6.66-.39,6.66-6.71v-42.78h-13.14Z"/>
    <path class="cls-3" d="m798.18,635.01c-3.14,0-8.75-.32-13.05-.32-4.79,0-10.4.32-13.53.32h-.35v-3.1h1.87c4.41-.11,6.19-.16,6.3-6.37v-42.43h-12.78v-.71h13.47v43.13c0,6.42-2.59,7.06-6.99,7.07h-1.18v1.71c3.17-.03,8.55-.32,13.19-.32,4.18,0,9.53.29,12.7.32v-1.71h-1.18c-3.85-.02-6.97-.94-6.98-7.24v-42.97h13.48c5.38.02,6.08,4.59,6.23,7.56l1.75-.64c0-2.09,0-4.18.16-6.28.22-2.06.52-4.11.82-6.16l-1.21-.21c-.37,2.33-2.63,2.46-4.62,2.43h-41.73c-1.89.02-3.93-.09-4.66-2.34h-1.31c-.02,2.22-.17,4.38-.49,6.51-.21,2.2-.61,4.33-.9,6.43h1.72c1.06-5.58,1.75-7.39,7.74-7.31v.71c-5.94.1-5.8,1.1-7.11,7.02l-.06.27h-3.09l.05-.4c.33-2.26.73-4.49.97-6.81.33-2.24.48-4.46.48-6.76v-.35h2.53l.07.25c.56,2.02,2.02,2.03,4.07,2.07h.4s41.33.01,41.33.01c2.21-.04,3.83-.08,3.96-2.16l.02-.38.38.08,2.27.36-.06.35c-.33,2.14-.63,4.31-.88,6.46-.16,2.13-.16,4.3-.16,6.46v.25l-.23.09-2.84,1.03-.02-.47c-.21-3.01-.52-7.36-5.58-7.36h-12.79v42.26c.08,6.04,2.48,6.46,6.29,6.54h1.88v3.1h-.34Z"/>
    <path class="cls-3" d="m815.46,632.26h1.12c2.89,0,5.92-.39,5.92-4.56v-41.96c0-4.18-3.03-4.57-5.92-4.57h-1.12v-2.4c3.13,0,7.92.32,11.84.32s8.82-.32,12.59-.32v2.4h-1.12c-2.88,0-5.94.39-5.94,4.57v41.96c0,4.17,3.05,4.56,5.94,4.56h1.12v2.42c-3.85,0-8.66-.32-12.65-.32s-8.65.32-11.78.32v-2.42h0Z"/>
    <path class="cls-3" d="m839.89,635.01c-3.87,0-8.66-.33-12.65-.33s-8.65.33-11.77.33h-.35v-3.1h1.47c2.89-.04,5.55-.29,5.56-4.21v-41.96c-.01-3.91-2.67-4.18-5.56-4.23h-1.47v-3.09h.35c3.13,0,7.94.31,11.84.31s8.8-.31,12.59-.31h.34v3.09h-1.46c-2.93.06-5.55.32-5.59,4.23v41.96c.04,3.92,2.67,4.17,5.59,4.21h1.46v3.1h-.34Zm-.36-.7h0v-1.69h-.76c-2.87,0-6.27-.5-6.27-4.92v-41.96c0-4.43,3.4-4.93,6.27-4.93h.76v-1.7c-3.7.02-8.32.31-12.23.31s-8.38-.29-11.49-.31v1.7h.77c2.85,0,6.26.5,6.27,4.93v41.96c-.01,4.41-3.42,4.92-6.27,4.92h-.77v1.69c3.09-.03,7.62-.31,11.42-.31s8.52.29,12.29.31h0Z"/>
    <path class="cls-3" d="m871.82,577.57c17.07,0,30.67,10.58,30.67,27.64,0,18.42-13.21,30.67-30.26,30.67s-29.95-11.53-29.95-28.75,12.88-29.55,29.53-29.55h0Zm1.21,54.78h0c15.54,0,18.24-13.7,18.24-25.38s-6.31-25.88-19.61-25.88c-14.02,0-18.17,12.49-18.17,23.22,0,14.34,6.56,28.04,19.54,28.04h0Z"/>
    <path class="cls-3" d="m841.93,607.12c.03-16.85,13.07-29.88,29.89-29.9v.69c-16.46,0-29.2,12.73-29.21,29.21.04,17.02,12.82,28.39,29.63,28.39,16.88,0,29.9-12.08,29.93-30.32-.02-16.84-13.42-27.26-30.34-27.28v-.69c17.2.01,30.99,10.7,31.02,27.97-.02,18.62-13.4,30.99-30.61,31.02-17.13-.03-30.27-11.68-30.31-29.09h0Zm11.22-2.81h0c.02-10.77,4.23-23.58,18.52-23.58,13.59.03,19.94,14.47,19.96,26.24-.02,11.68-2.77,25.72-18.59,25.72v-.68c15.23-.02,17.86-13.36,17.9-25.04,0-11.61-6.25-25.51-19.27-25.53-13.74.02-17.8,12.2-17.83,22.87.01,14.26,6.51,27.66,19.2,27.7v.68c-13.29-.02-19.87-13.95-19.89-28.37h0Z"/>
    <path class="cls-3" d="m956.46,618.89l.16-.16v-30.03c0-6.57-4.58-7.53-6.98-7.53h-1.73v-2.4c3.75,0,7.44.32,11.19.32,3.29,0,6.57-.32,9.86-.32v2.4h-1.21c-3.35,0-7.12.64-7.12,10.17v36.45c0,2.8.08,5.6.48,8.08h-3.04l-41.25-45.97v33c0,6.97,1.36,9.36,7.52,9.36h1.37v2.42c-3.45,0-6.88-.32-10.33-.32s-7.3.32-10.9.32v-2.42h1.13c5.54,0,7.2-3.75,7.2-10.16v-33.73c0-4.48-3.67-7.2-7.28-7.2h-1.04v-2.4c3.04,0,6.17.32,9.21.32,2.4,0,4.72-.32,7.13-.32l35.64,40.12h0Z"/>
    <path class="cls-3" d="m961.11,636.21l-3.31-.12-40.63-45.29v32.1c.09,6.96,1.15,8.93,7.16,9.01h1.73v3.11h-.35c-3.47,0-6.91-.32-10.33-.32-3.59,0-7.27.32-10.91.32h-.33v-3.11h1.47c5.28-.02,6.8-3.41,6.86-9.8v-33.73c-.01-4.26-3.5-6.85-6.95-6.86h-1.38v-3.09h.33c3.07,0,6.19.31,9.21.31,2.38,0,4.69-.31,7.4-.19l35.18,39.62v-29.45c-.02-6.37-4.29-7.14-6.63-7.2h-2.1v-3.09h.36c3.77,0,7.46.31,11.19.31,3.29,0,6.55-.31,9.87-.31h.34v3.09h-1.56c-3.29.09-6.7.39-6.77,9.83v36.44c0,2.8.06,5.59.45,8.04l.07.39h-.38Zm-3.04-.7h2.62c-.35-2.4-.41-5.07-.41-7.73v-36.44c0-9.63,4.04-10.5,7.47-10.53h.87v-1.69c-3.16.02-6.32.31-9.53.31-3.64,0-7.23-.29-10.85-.31v1.69h1.4c2.48.03,7.31,1.12,7.31,7.9l-.09,30.26-.15.17-.25.25-35.64-40.27c-2.36,0-4.7.31-7.13.31-2.95,0-5.95-.29-8.87-.31v1.69h.71c3.76.03,7.63,2.87,7.63,7.56v33.73c0,6.4-1.79,10.5-7.55,10.52h-.79s0,1.69,0,1.69c3.48-.02,7.04-.31,10.56-.31,3.34,0,6.65.29,9.98.31v-1.69h-1.03c-6.28,0-7.86-2.77-7.86-9.73v-33.9l41.59,46.51h0Zm-1.61-16.63h0l.25-.23-.25.23Zm-.19-.15h0v-.03l-.07-.06.07.09Z"/>
    <path class="cls-3" d="m981.82,623.22c-.78,2.72-1.75,4.81-1.75,6.24,0,2.41,3.37,2.8,6,2.8h.89v2.42c-3.2-.17-6.49-.32-9.69-.32-2.89,0-5.76.14-8.64.32v-2.42h.46c3.14,0,5.79-1.84,6.97-5.21l12.83-36.75c1.03-2.97,2.48-6.97,2.95-9.94,2.56-.87,5.76-2.47,7.3-3.44.23-.08.39-.17.63-.17s.39,0,.55.25c.24.63.49,1.36.73,2l14.73,41.89c.96,2.8,1.92,5.76,2.97,8.17.96,2.24,2.65,3.19,5.28,3.19h.49v2.42c-3.61-.17-7.21-.32-11.06-.32s-7.92.14-12.01.32v-2.42h.89c1.83,0,4.97-.31,4.97-2.32,0-1.04-.73-3.2-1.62-5.77l-3.11-9.29h-18.18l-2.57,8.33h0Zm11.71-35.48h-.16l-7.46,22.67h14.99l-7.37-22.67Z"/>
    <path class="cls-3" d="m1024.48,635.01c-3.6-.14-7.2-.32-11.03-.32s-7.91.18-12,.32l-.35.02v-3.12h1.22c1.87,0,4.63-.43,4.63-1.97.02-.91-.71-3.09-1.6-5.66l-3.04-9.06h-17.67l-2.48,8.09c-.8,2.74-1.75,4.85-1.74,6.14,0,1.97,3,2.45,5.65,2.45h1.22v3.12l-.35-.02c-3.2-.14-6.48-.32-9.67-.32-2.87,0-5.75.18-8.64.32l-.35.02v-3.12h.81c2.99-.01,5.49-1.73,6.65-4.98l12.82-36.75c1.02-2.97,2.46-6.96,3.18-10.14,2.52-.87,5.73-2.47,7.29-3.45.21-.07.43-.17.75-.17.21-.02.62.03.88.47.24.63.47,1.35.74,2l14.73,41.88c.96,2.81,1.92,5.77,2.95,8.15.94,2.12,2.4,2.96,4.95,2.98h.83v3.12l-.37-.02h0Zm-22.69-.71h0c3.96-.15,7.86-.31,11.67-.31s7.22.16,10.71.29v-1.67h-.14c-2.71,0-4.6-1.06-5.6-3.42-1.06-2.43-2.01-5.4-2.97-8.2l-14.74-41.89c-.24-.64-.48-1.37-.68-1.91-.07-.1-.06-.1-.12-.1h-.15c-.17,0-.26.06-.45.11-1.56.98-4.77,2.58-7.14,3.2-.49,3.03-1.95,7.02-2.98,9.99l-12.82,36.76c-1.22,3.48-4.01,5.46-7.29,5.45h-.12v1.67c2.75-.14,5.51-.29,8.3-.29,3.1,0,6.26.16,9.35.29v-1.67h-.54c-2.6-.03-6.26-.32-6.35-3.16.02-1.59,1.01-3.63,1.78-6.34l.33.1-.33-.12,2.64-8.56h18.67l3.21,9.52c.88,2.58,1.61,4.7,1.61,5.88-.12,2.46-3.48,2.63-5.31,2.68h-.53v1.68h0Zm-16.36-23.57h0l7.68-23.36h.42v.35l-.08.02.08-.02v-.35h.25l7.57,23.36h-15.91Zm.96-.69h14l-6.96-21.45-7.04,21.45h0Zm6.8-22.22h0l.16-.06-.16.06Z"/>
    <path class="cls-3" d="m1044.7,626.82c0,3.2,2.22,4.16,4.79,4.49,3.28.24,6.89.24,10.58-.16,3.35-.4,6.24-2.33,7.67-4.33,1.28-1.77,2-4.01,2.48-5.77h2.32c-.88,4.56-2,9.06-2.97,13.62-7.03,0-14.09-.32-21.13-.32s-14.09.32-21.14.32v-2.42h1.1c2.9,0,6.03-.39,6.03-5.36v-41.16c0-4.18-3.13-4.57-6.03-4.57h-1.1v-2.4c4.23,0,8.4.32,12.64.32s8.1-.32,12.18-.32v2.4h-2.02c-3.03,0-5.42.09-5.42,4.32v41.33h0Z"/>
    <path class="cls-3" d="m1069.58,635.01c-7.06,0-14.1-.32-21.13-.32s-14.1.32-21.16.32h-.34v-3.1h1.46c2.9-.07,5.65-.27,5.68-5.01v-41.17c-.03-3.89-2.76-4.16-5.68-4.22h-1.46v-3.09h.34c4.26,0,8.43.31,12.66.31s8.06-.31,12.18-.31h.33v3.09h-2.34c-3.1.09-5.04-.06-5.1,3.98v41.33c.02,2.98,1.98,3.79,4.48,4.14,1.42.1,2.9.16,4.44.16,1.96,0,4-.09,6.06-.32,3.26-.38,6.07-2.27,7.45-4.18,1.23-1.71,1.94-3.91,2.42-5.66l.07-.27h3.02l-.07.42c-.9,4.58-2,9.06-2.98,13.62l-.07.27h-.27Zm-.29-.7h0c.93-4.34,1.98-8.59,2.84-12.92h-1.64c-.5,1.74-1.21,3.89-2.47,5.64-1.49,2.08-4.46,4.03-7.93,4.46-2.1.22-4.18.33-6.14.33-1.55,0-3.05-.07-4.5-.17-2.6-.29-5.13-1.4-5.12-4.82v-41.33c0-4.45,2.81-4.68,5.8-4.68h1.65v-1.7c-3.95.02-7.83.32-11.82.32s-8.2-.29-12.31-.32v1.7h.77c2.86,0,6.36.5,6.36,4.91v41.17c0,5.18-3.48,5.72-6.36,5.72h-.77v1.69c6.92,0,13.85-.31,20.81-.31s13.91.3,20.84.31h0Z"/>
    <path class="cls-3" d="m1071.57,576.49c4.82,0,8.43,3.71,8.43,8.46s-3.6,8.41-8.43,8.41-8.44-3.68-8.44-8.41c0-4.75,3.61-8.46,8.44-8.46Zm0,15.3h0c3.77,0,6.67-3.22,6.67-6.84s-2.85-6.89-6.67-6.89-6.69,3.25-6.69,6.89,2.9,6.84,6.69,6.84Zm-4.2-2.39h0v-.42c1.04-.14,1.23-.11,1.23-.76v-6.24c0-.88-.09-1.18-1.19-1.13v-.43h4.31c1.49,0,2.85.71,2.85,2.24,0,1.25-.83,2.18-1.99,2.54l1.38,1.93c.65.88,1.38,1.7,1.86,1.99v.27h-1.64c-.79,0-1.48-1.66-3.03-3.89h-.93v2.8c0,.56.19.52,1.23.67v.42h-4.08Zm2.84-4.44h.99c1.09,0,1.6-.83,1.6-2.15s-.79-1.82-1.65-1.82h-.94v3.97Z"/>
  </g>
</svg>