<?xml version="1.0" encoding="UTF-8"?>
<svg id="Capa_1" data-name="Capa 1" xmlns="http://www.w3.org/2000/svg" viewBox="0 0 1080 1080">
  <defs>
    <style>
      .cls-1 {
        fill: #009fe3;
      }

      .cls-2 {
        fill: #fff;
      }

      .cls-3 {
        fill: #283480;
      }
    </style>
  </defs>
  <path class="cls-3" d="m395.5,528.64c0-71.25-88.53-129.34-197.74-129.34S.02,457.39.02,528.64c0,1.84-.02,6.93-.02,7.57,0,75.59,77.38,136.81,197.73,136.81s197.77-61.21,197.77-136.8v-7.59h0Z"/>
  <path class="cls-1" d="m387.93,528.58c0,67.18-85.12,121.63-190.13,121.63S7.67,595.76,7.67,528.58s85.12-121.64,190.13-121.64,190.13,54.46,190.13,121.64h0Z"/>
  <path class="cls-2" d="m134.66,490.21c-.1.19-2,2.15-.77,3.73,3,3.83,12.27,6.03,21.64,3.93,5.58-1.25,12.73-6.94,19.66-12.44,7.51-5.97,14.96-11.94,22.45-14.31,7.93-2.52,13.01-1.44,16.37-.43,3.68,1.1,8.01,3.52,14.92,8.71,13.01,9.78,65.32,55.44,74.36,63.34,7.28-3.29,39.63-17.22,83.6-26.9-3.82-23.44-18.08-44.88-39.7-62.44-30.14,12.66-66.96,19.26-102.98,1.67-.18-.07-19.68-9.3-38.9-8.85-28.58.66-40.95,13.03-54.05,26.12l-16.59,17.88h0Z"/>
  <path class="cls-2" d="m301.16,547.69c-.61-.55-61.51-53.83-75.3-64.2-7.98-5.99-12.43-7.51-17.09-8.11-2.43-.32-5.78.14-8.13.78-6.42,1.75-14.81,7.36-22.26,13.27-7.71,6.14-14.99,11.93-21.73,13.44-8.63,1.93-19.15-.35-23.96-3.59-1.95-1.31-3.32-2.82-3.97-4.36-1.77-4.11,1.5-7.4,2.04-7.96l16.8-18.18c1.95-1.95,3.92-3.9,5.93-5.82-5.42.71-10.43,2.09-15.31,3.45-6.09,1.71-11.94,3.34-17.87,3.34-2.47,0-15.73-2.17-18.24-2.86-15.21-4.16-28.55-8.21-48.49-17.52-23.89,17.78-39.87,40.02-44.48,64.51,3.43.91,8.96,2.56,11.29,3.07,54.06,12.02,70.9,24.4,73.96,26.99,3.31-3.68,8.08-6.01,13.4-6.01,5.98,0,11.37,3.01,14.65,7.66,3.1-2.44,7.37-4.53,12.89-4.53,2.51,0,5.11.46,7.73,1.36,6.1,2.09,9.25,6.15,10.88,9.83,2.05-.92,4.56-1.6,7.53-1.6,2.91,0,5.94.66,8.99,1.98,9.97,4.28,11.52,14.07,10.61,21.45.71-.08,1.42-.12,2.15-.12,11.82,0,21.43,9.61,21.43,21.44,0,3.66-.93,7.1-2.56,10.12,3.22,1.81,11.41,5.9,18.61,4.99,5.75-.72,7.94-2.69,8.72-3.79.54-.76,1.1-1.65.58-2.28l-15.25-16.95s-2.51-2.38-1.68-3.29c.86-.94,2.41.41,3.51,1.33,7.77,6.48,17.25,16.27,17.25,16.27.16.11.79,1.35,4.29,1.97,3.02.54,8.35.23,12.06-2.81.93-.77,1.87-1.73,2.65-2.71-.06.05-.11.11-.17.14,3.9-4.99-.43-10.04-.43-10.04l-17.81-20s-2.55-2.35-1.68-3.3c.78-.82,2.42.42,3.53,1.34,5.64,4.71,13.6,12.71,21.24,20.19,1.49,1.09,8.2,5.24,17.09-.6,5.39-3.54,6.47-7.88,6.32-11.16-.38-4.34-3.76-7.43-3.76-7.43l-24.33-24.46s-2.57-2.2-1.66-3.3c.74-.93,2.41.41,3.5,1.32,7.75,6.49,28.73,25.72,28.73,25.72.3.21,7.55,5.37,16.5-.33,3.2-2.05,5.25-5.14,5.43-8.72.3-6.22-4.09-9.92-4.09-9.92h0Z"/>
  <path class="cls-2" d="m183.17,578.7c-3.77-.04-7.9,2.2-8.44,1.87-.3-.2.23-1.71.58-2.59.36-.87,5.33-15.81-6.78-21.01-9.27-3.98-14.93.5-16.88,2.52-.51.53-.74.49-.8-.19-.19-2.69-1.39-9.97-9.39-12.41-11.43-3.5-18.78,4.48-20.65,7.36-.83-6.51-6.34-11.57-13.09-11.58-7.33,0-13.27,5.93-13.28,13.26,0,7.33,5.94,13.27,13.27,13.27,3.56,0,6.79-1.42,9.18-3.7.07.07.11.19.07.45-.56,3.28-1.59,15.21,10.9,20.06,5.01,1.94,9.27.5,12.8-1.98,1.05-.74,1.22-.43,1.07.56-.45,3.07.12,9.63,9.33,13.37,7,2.85,11.15-.07,13.86-2.58,1.18-1.08,1.5-.91,1.57.76.33,8.88,7.71,15.92,16.66,15.93,9.23,0,16.7-7.45,16.7-16.67,0-9.23-7.46-16.6-16.68-16.7h0Z"/>
  <path class="cls-3" d="m183.17,610.88c-8.36,0-15.15-6.5-15.46-14.78-.02-.71-.09-2.6-1.69-2.6-.66,0-1.23.39-1.88.99-1.84,1.7-4.18,3.44-7.6,3.44-1.55,0-3.23-.36-5.01-1.09-8.83-3.57-8.95-9.64-8.59-12.08.1-.65.13-1.33-.32-1.85l-.54-.49h-.55c-.45,0-.91.18-1.54.62-2.55,1.79-5,2.66-7.49,2.66-1.37,0-2.77-.27-4.18-.82-11.62-4.52-10.7-15.49-10.14-18.79.08-.67-.08-1.19-.51-1.54l-.82-.68-.77.74c-2.26,2.18-5.23,3.38-8.34,3.38-6.66,0-12.08-5.42-12.07-12.07,0-6.66,5.43-12.06,12.09-12.06,6.01,0,11.14,4.52,11.9,10.53l.42,3.24,1.78-2.74c.2-.32,5.08-7.69,14.04-7.69,1.71,0,3.47.27,5.24.82,7.15,2.18,8.36,8.66,8.55,11.36.13,1.58,1.25,1.65,1.47,1.65.62,0,1.07-.39,1.39-.73,1.35-1.41,4.29-3.75,8.88-3.75,2.11,0,4.34.51,6.65,1.5,11.36,4.87,6.21,19.31,6.15,19.46-.98,2.39-1.02,3.45-.1,4.06l.45.21h.33c.51,0,1.15-.22,2.2-.58,1.55-.53,3.88-1.34,6.06-1.33h0c8.55.09,15.51,7.05,15.5,15.51,0,8.54-6.97,15.48-15.51,15.48h0Zm120.35-69.57c-18.76-16.37-62.11-54.06-73.86-62.87-6.71-5.04-11.28-7.71-15.3-8.91-1.8-.54-4.3-1.17-7.51-1.17-2.99,0-6.19.54-9.54,1.6-7.59,2.4-15.15,8.41-22.46,14.22l-.38.3c-6.81,5.42-13.85,11.02-19.18,12.21-2.32.52-4.72.79-7.1.79-5.97,0-11.33-1.73-13.34-4.29-.33-.42-.12-1.11.66-2.1l.1-.13,16.5-17.79c12.92-12.92,25.13-25.13,53.23-25.77.46-.01.94-.02,1.4-.02,17.49.01,34.98,7.84,36.94,8.75,16.4,8,33.33,12.06,50.35,12.08,17.74,0,36.03-4.38,55.27-13.24-2.15-1.81-4.38-3.57-6.68-5.29-16.9,7.33-33.01,11.03-48.54,11.03-15.87-.01-31.72-3.83-47.12-11.34-.81-.39-20.12-9.49-40.21-9.5-.52,0-1.06,0-1.58.02-23.6.55-36.9,8.94-45.84,16.28-8.7.21-16.2,2.31-22.87,4.17-5.96,1.66-11.1,3.09-16.12,3.09-2.07,0-5.79-.19-6.12-.2-5.77-.17-34.84-7.3-57.96-16.06-2.36,1.67-4.63,3.4-6.84,5.15,24.16,9.9,53.55,17.56,62.83,18.16,2.58.17,5.33.46,8.08.47,6.14,0,12.26-1.72,18.19-3.38,3.5-.99,7.36-2.05,11.43-2.83-1.09,1.07-2.17,2.14-3.25,3.23l-16.77,18.14c-1.32,1.33-4.18,4.89-2.3,9.27.75,1.77,2.28,3.46,4.41,4.89,3.99,2.69,11.15,4.51,17.8,4.52,2.52,0,4.91-.25,7.1-.74,7.03-1.58,14.4-7.45,22.21-13.66,6.22-4.94,15.06-11.22,21.83-13.06,1.89-.52,4.22-.83,6.08-.83.56,0,1.09.02,1.58.09,4.47.57,8.8,2.09,16.52,7.88,13.76,10.34,74.66,63.62,75.26,64.14.04.03,3.93,3.38,3.66,8.95-.15,3.1-1.87,5.86-4.87,7.77-2.6,1.65-5.28,2.49-8,2.49-4.07,0-6.87-1.91-7.06-2.05-.23-.18-21.09-19.32-28.76-25.74-1.22-1.01-2.41-1.93-3.61-1.93-.64,0-1.21.27-1.59.75-1.21,1.49.14,3.55,1.74,4.91l24.38,24.5s3.04,2.84,3.36,6.6c.19,4.06-1.75,7.46-5.79,10.1-2.88,1.89-5.79,2.86-8.64,2.86-3.74,0-6.37-1.71-6.95-2.11l-3.5-3.45c-6.39-6.29-12.99-12.79-17.82-16.82-1.18-.98-2.44-1.88-3.63-1.88-.59,0-1.13.22-1.54.65-.55.61-.94,1.71.44,3.54.57.75,1.23,1.37,1.23,1.37l17.79,19.98c.15.18,3.67,4.36.4,8.52l-.63.8c-.53.59-1.11,1.13-1.65,1.6-3.03,2.49-7.09,2.76-8.69,2.76-.86,0-1.69-.08-2.4-.21-1.75-.31-2.93-.8-3.51-1.48l-.21-.23c-.97-1.01-9.94-10.16-17.36-16.35-.98-.82-2.2-1.85-3.46-1.85-.62,0-1.18.24-1.61.72-1.47,1.61.73,4.01,1.67,4.89l15.17,16.73c-.02.15-.21.49-.58,1.02-.54.75-2.38,2.59-7.88,3.28-.66.09-1.34.12-2.01.12-5.68,0-11.73-2.75-14.85-4.41,1.42-3,2.15-6.3,2.15-9.61,0-12.49-10.13-22.65-22.62-22.65-.27,0-.55,0-.82.02.41-5.7-.4-16.5-11.48-21.25-3.19-1.38-6.37-2.08-9.46-2.08-2.42,0-4.75.41-6.93,1.25-2.3-4.46-6.11-7.71-11.08-9.4-2.75-.95-5.48-1.43-8.12-1.43-4.61,0-8.86,1.36-12.65,4.05-3.63-4.51-9.11-7.19-14.89-7.19-5.05,0-9.91,2.02-13.52,5.59-4.72-3.61-23.45-15.5-73.59-26.89-2.43-.55-8-2.14-11.41-3.14-.57,2.71-1,5.46-1.28,8.23,0,0,9.25,2.21,11.07,2.62,51.22,11.37,68.14,23.2,71,25.44-.97,2.33-1.47,4.84-1.48,7.37,0,10.58,8.6,19.2,19.19,19.21,1.19,0,2.36-.1,3.52-.32,1.6,7.79,6.69,13.69,14.48,16.72,2.28.87,4.58,1.32,6.84,1.32,1.46,0,2.93-.18,4.37-.55,1.44,3.65,4.67,8.21,11.9,11.14,2.54,1.02,5.08,1.56,7.54,1.56,2.01,0,3.98-.35,5.86-1.05,3.47,8.44,11.72,14.04,20.91,14.04,6.1,0,11.95-2.48,16.22-6.87,3.65,2.03,11.37,5.71,19.16,5.72,1.01,0,1.96-.07,2.9-.19,7.74-.98,11.34-4.01,13-6.36.3-.41.57-.85.8-1.3,1.83.53,3.83.95,6.14.96,4.23,0,8.28-1.44,12.39-4.43,4.03-2.9,6.89-7.07,7.3-10.62,0-.05.02-.1.02-.15,1.36.28,2.75.42,4.14.42,4.35,0,8.63-1.36,12.72-4.04,7.89-5.17,9.26-11.93,9.13-16.35,1.38.29,2.79.44,4.19.44,4.08,0,8.09-1.23,11.92-3.67,4.89-3.12,7.83-7.91,8.28-13.48.31-3.79-.63-7.61-2.63-10.89,13.22-5.69,43.43-16.72,79.01-24.73-.21-2.76-.61-5.48-1.11-8.2-43.04,9.55-75.17,23.46-83.21,27.03h0Z"/>
  <path class="cls-3" d="m1051.61,497.54c-3.46,4.6-8.42,6.9-14.9,6.9s-11.44-2.3-14.93-6.9c-3.5-4.59-5.23-11.13-5.23-19.61s1.74-14.98,5.23-19.56c3.49-4.57,8.47-6.86,14.93-6.86s11.43,2.29,14.9,6.86c3.46,4.57,5.2,11.09,5.2,19.56s-1.74,15.01-5.2,19.61h0Zm17.68-51.3c-7.14-8.94-17.97-13.41-32.51-13.41s-25.36,4.47-32.49,13.41c-7.14,8.94-10.72,19.5-10.72,31.69s3.57,23.01,10.72,31.84c7.13,8.8,17.97,13.21,32.49,13.21s25.38-4.42,32.51-13.21c7.14-8.83,10.71-19.43,10.71-31.84s-3.56-22.75-10.71-31.69h0Z"/>
  <path class="cls-3" d="m875.64,487.1c-.15,7.42-2.28,12.53-6.36,15.33-4.08,2.8-8.55,4.21-13.39,4.21-3.07,0-5.66-.85-7.79-2.54-2.13-1.69-3.19-4.43-3.19-8.22,0-4.25,1.74-7.39,5.23-9.41,2.08-1.19,5.47-2.21,10.2-3.02l5.06-.94c2.52-.48,4.5-.99,5.94-1.54,1.46-.53,2.88-1.24,4.3-2.13v8.25h0Zm11.24-48.34c-7.24-3.67-15.52-5.52-24.84-5.52-14.33,0-24.45,3.74-30.33,11.2-3.7,4.78-5.78,10.87-6.26,18.29h21.41c.53-3.27,1.58-5.87,3.16-7.78,2.21-2.59,5.96-3.89,11.27-3.89,4.74,0,8.33.65,10.78,1.99,2.44,1.32,3.67,3.72,3.67,7.19,0,2.86-1.59,4.95-4.79,6.31-1.78.78-4.73,1.43-8.87,1.95l-7.59.93c-8.62,1.09-15.17,2.91-19.6,5.45-8.11,4.67-12.15,12.21-12.15,22.64,0,8.04,2.51,14.25,7.55,18.64,5.02,4.38,11.42,6.22,19.14,6.58,48.42,2.16,47.87-25.51,48.31-31.27v-31.86c0-10.22-3.63-17.18-10.86-20.86h0Z"/>
  <path class="cls-3" d="m776.48,452.21c5.54,0,9.6,1.71,12.23,5.12,1.8,2.53,2.93,5.38,3.36,8.54h23.88c-1.31-12.05-5.53-20.46-12.64-25.23-7.14-4.74-16.29-7.14-27.47-7.14-13.15,0-23.49,4.04-30.95,12.11-7.48,8.08-11.22,19.36-11.22,33.87,0,12.85,3.38,23.32,10.15,31.39,6.77,8.06,17.33,12.1,31.67,12.1s25.21-4.84,32.51-14.51c4.58-5.99,7.15-12.36,7.69-19.09h-23.8c-.48,4.45-1.87,8.08-4.18,10.87-2.3,2.78-6.16,4.19-11.64,4.19-7.71,0-12.96-3.51-15.75-10.56-1.52-3.76-2.3-8.73-2.3-14.93s.77-11.7,2.3-15.64c2.9-7.39,8.29-11.1,16.15-11.1h0Z"/>
  <path class="cls-3" d="m727.27,433.51c-49.06,0-46.16,43.44-46.16,43.44v44.12h22.26v-41.38c0-6.78.86-11.8,2.56-15.07,3.06-5.78,9.02-8.69,17.93-8.69.67,0,1.55.04,2.64.09,1.08.05,2.31.15,3.73.31v-22.65c-.99-.07-1.63-.09-1.91-.12-.28-.03-.64-.04-1.05-.04h0Z"/>
  <path class="cls-3" d="m615.57,456.57c3.14-3.22,7.53-4.83,13.2-4.83,5.22,0,9.59,1.51,13.12,4.56,3.52,3.03,5.48,7.5,5.88,13.36h-38.09c.79-5.51,2.77-9.86,5.89-13.09h0Zm29.93,41.45c-.93,1.33-1.94,2.48-3.05,3.37-3.14,2.59-7.41,3.38-12.44,3.38-4.76,0-8.48-.72-11.85-2.85-5.55-3.41-8.68-9.19-9.01-17.67h61.6c.09-7.3-.15-12.89-.74-16.78-1.03-6.63-3.28-12.46-6.73-17.49-3.84-5.7-8.73-9.87-14.62-12.52-5.89-2.63-12.52-3.95-19.87-3.95-12.41,0-22.48,3.91-30.24,11.72-7.77,7.83-11.66,19.05-11.66,33.7,0,15.64,4.31,26.92,12.92,33.86,8.6,6.93,18.54,10.41,29.79,10.41,13.63,0,24.24-4.11,31.81-12.34,4.09-4.33,6.65-8.61,7.73-12.84h-23.61Z"/>
  <path class="cls-3" d="m577.92,521.06h-20.33v-51.21c0-4.68-1.54-15.81-14.96-15.81-8.94,0-15.42,6.45-15.42,15.81v51.21h-20.35v-51.21c0-4.68-1.39-15.81-14.79-15.81-9.1,0-15.42,6.45-15.42,15.81v51.21h-20.35v-50.72c0-21.14,14.02-37.13,35.77-37.13,10.79,0,19.57,4.53,25.28,11.79,6-7.26,14.94-11.79,25.28-11.79,22.2,0,35.29,15.34,35.29,37.13v50.72h0Z"/>
  <path class="cls-3" d="m960.25,497.72c-3.25,4.66-8.02,6.98-14.27,6.98s-10.93-2.35-14-7.02c-3.07-4.69-4.61-11.51-4.61-19.31,0-7.24,1.5-13.31,4.53-18.2,3.02-4.88,7.76-7.34,14.23-7.34,4.24,0,7.96,1.35,11.18,4.03,5.22,4.45,7.83,12.43,7.83,22.77,0,7.4-1.63,13.42-4.89,18.08h0Zm26.7-90.95s-22.42-2.4-22.42,15.62l-.02,23.85c-2.48-3.98-5.71-7.1-9.69-9.35-3.97-2.25-8.52-3.38-13.66-3.38-11.12,0-19.99,4.14-26.64,12.41-6.65,8.28-9.96,20.21-9.96,34.64,0,12.52,3.37,22.78,10.12,30.78,6.75,7.98,19.99,11.49,31.74,11.49,40.99,0,40.52-35.15,40.52-35.15l.02-80.9h0Z"/>
  <path class="cls-1" d="m656.17,602.13c0-8.39-1.63-14.85-4.92-19.38-3.27-4.5-7.96-6.79-14.07-6.79s-10.47,2.28-13.76,6.79c-3.04,4.1-4.56,10.57-4.56,19.38,0,8.21,1.63,14.31,4.91,18.41,3.26,4.53,7.96,6.79,14.07,6.79,5.67,0,10.14-2.26,13.41-6.79,3.29-4.52,4.92-10.64,4.92-18.41m-37.31,60.24c0,3.01-1.09,5.6-3.29,7.75-2.17,2.16-4.79,3.23-7.85,3.23h-11.12v-77.36c0-15.05,5.07-24.47,13.41-30.83,5.51-4.21,13.73-8.23,29.12-8.23,10.39,0,22.57,4.03,29.14,12.05,7.38,9.02,10.45,19.06,10.45,32.18s-3.27,24.52-9.81,32.94c-6.54,8.19-14.95,12.27-25.21,12.27-5.45,0-10.25-.97-14.39-2.89-4.38-2.16-7.85-5.49-10.47-10.02v28.91h0Z"/>
  <path class="cls-1" d="m789.6,602.14c0,14.84,4.29,23.06,12.86,24.69,8.56,1.59,14.89-.4,18.96-5.98,1.93-2.35,3.32-6.08,4.18-11.12.85-5.05.92-10.06.16-15-.74-4.96-2.52-9.37-5.31-13.24-2.78-3.87-6.85-5.81-12.21-5.81-7.29,0-12.2,2.7-14.78,8.06-2.59,5.39-3.86,11.52-3.86,18.41m36.65,37.09v-5.47c-3.85,6.04-9.06,9.77-15.59,11.29-6.54,1.5-13.02.96-19.44-1.63-6.44-2.57-11.96-7.36-16.57-14.34-4.6-7.01-6.9-16.21-6.9-27.61,0-13.32,3.05-24.14,9.15-32.42,6.11-8.28,15.92-12.06,29.42-12.43,13.3-.35,21.03,2.66,28.61,8.39,8.28,6.28,13.17,15.92,13.17,30.97v45.51c.03,14.48-10.06,41.32-41.78,39.05-19.65-1.42-30.56-9.49-36.64-27.75h23.46c1.71,3,4.33,5.32,7.89,6.92,3.52,1.64,7.07,2.05,10.58,1.3,3.54-.75,6.75-2.86,9.67-6.28,2.88-3.44,4.53-8.61,4.97-15.5"/>
  <path class="cls-1" d="m737.46,611.11c-.14,7.43-2.27,12.53-6.35,15.33-4.08,2.8-8.54,4.2-13.38,4.2-3.07,0-5.66-.85-7.79-2.53-2.14-1.68-3.21-4.43-3.21-8.22,0-4.24,1.75-7.39,5.24-9.41,2.08-1.19,5.46-2.21,10.2-3.02l5.05-.94c2.53-.48,4.51-.98,5.93-1.53,1.47-.53,2.89-1.24,4.3-2.13v8.25h0Zm11.25-48.33c-7.24-3.66-15.53-5.52-24.84-5.52-14.34,0-24.44,3.74-30.34,11.2-3.69,4.77-5.78,10.87-6.26,18.29h21.42c.52-3.28,1.57-5.87,3.15-7.78,2.21-2.59,5.96-3.89,11.26-3.89,4.75,0,8.34.65,10.78,1.99,2.44,1.32,3.67,3.72,3.67,7.2,0,2.85-1.59,4.96-4.78,6.31-1.77.78-4.73,1.42-8.87,1.95l-7.59.93c-8.62,1.09-15.17,2.92-19.59,5.46-8.12,4.67-12.16,12.21-12.16,22.64,0,8.04,2.51,14.26,7.55,18.64,5.02,4.38,11.42,6.23,19.14,6.59,48.4,2.16,47.86-25.52,48.3-31.27v-31.86c0-10.22-3.61-17.17-10.85-20.86"/>
  <path class="cls-1" d="m914.62,621.08c-3.46,4.6-8.42,6.9-14.89,6.9s-11.45-2.3-14.93-6.9c-3.51-4.59-5.24-11.12-5.24-19.59s1.73-14.99,5.24-19.55c3.48-4.58,8.46-6.85,14.93-6.85s11.43,2.28,14.89,6.85c3.47,4.57,5.2,11.09,5.2,19.55s-1.73,15.01-5.2,19.59m17.69-51.29c-7.14-8.95-17.98-13.41-32.53-13.41s-25.35,4.46-32.49,13.41c-7.14,8.94-10.71,19.5-10.71,31.69s3.57,23.01,10.71,31.83c7.14,8.79,17.98,13.21,32.49,13.21s25.38-4.42,32.53-13.21c7.13-8.82,10.69-19.42,10.69-31.83s-3.56-22.76-10.69-31.69"/>
</svg>