<svg id="Capa_1" data-name="Capa 1" xmlns="http://www.w3.org/2000/svg" viewBox="0 0 187.72 169.94"><defs><style>.cls-1{fill:#fff;}</style></defs><path class="cls-1" d="M67,128.32h99.36a5.51,5.51,0,0,0,5.29-4.11l22-79.3a5.82,5.82,0,0,0-.9-5,5.46,5.46,0,0,0-4.39-2.25h-134L50.38,19.47A5.54,5.54,0,0,0,45,15H11.64a5.67,5.67,0,0,0,0,11.33h29l19.86,92.05A17,17,0,0,0,50.5,134,16.77,16.77,0,0,0,67,151h99.36a5.67,5.67,0,0,0,0-11.33H67a5.67,5.67,0,0,1,0-11.33Zm0,0" transform="translate(-6.14 -15.03)"/><path class="cls-1" d="M61.5,168A16.51,16.51,0,1,0,78,151a16.77,16.77,0,0,0-16.5,17Zm0,0" transform="translate(-6.14 -15.03)"/><path class="cls-1" d="M138.86,168a16.51,16.51,0,1,0,16.5-17,16.77,16.77,0,0,0-16.5,17Zm0,0" transform="translate(-6.14 -15.03)"/></svg>