<svg id="Capa_1" data-name="Capa 1" xmlns="http://www.w3.org/2000/svg" viewBox="0 0 187.72 169.94"><defs><style>.cls-1{fill:#f08;}</style></defs><path class="cls-1" d="M60.86,113.29h99.36a5.51,5.51,0,0,0,5.29-4.11l22-79.3a5.82,5.82,0,0,0-.9-5,5.45,5.45,0,0,0-4.39-2.25h-134l-4-18.19A5.54,5.54,0,0,0,38.86,0H5.5a5.67,5.67,0,0,0,0,11.33h29l19.86,92.05a17,17,0,0,0-10,15.62,16.77,16.77,0,0,0,16.5,17h99.36a5.67,5.67,0,0,0,0-11.33H60.86a5.67,5.67,0,0,1,0-11.33Z"/><path class="cls-1" d="M55.36,153a16.51,16.51,0,1,0,16.5-17A16.77,16.77,0,0,0,55.36,153Z"/><path class="cls-1" d="M132.72,153a16.51,16.51,0,1,0,16.5-17A16.77,16.77,0,0,0,132.72,153Z"/><path class="cls-1" d="M60.86,113.29h99.36a5.51,5.51,0,0,0,5.29-4.11l22-79.3a5.82,5.82,0,0,0-.9-5,5.45,5.45,0,0,0-4.39-2.25h-134l-4-18.19A5.54,5.54,0,0,0,38.86,0H5.5a5.67,5.67,0,0,0,0,11.33h29l19.86,92.05a17,17,0,0,0-10,15.62,16.77,16.77,0,0,0,16.5,17h99.36a5.67,5.67,0,0,0,0-11.33H60.86a5.67,5.67,0,0,1,0-11.33Z"/><path class="cls-1" d="M55.36,153a16.51,16.51,0,1,0,16.5-17A16.77,16.77,0,0,0,55.36,153Z"/><path class="cls-1" d="M132.72,153a16.51,16.51,0,1,0,16.5-17A16.77,16.77,0,0,0,132.72,153Z"/></svg>