<svg width="20" height="14" fill="none" xmlns="http://www.w3.org/2000/svg"><path d="M20 12.0759C19.9843 12.1182 19.9687 12.1604 19.953 12.2027 19.7861 12.8156 19.2958 13.2435 18.6698 13.3175 18.5812 13.328 18.4873 13.3333 18.3986 13.3333 12.7963 13.3333 7.19405 13.3333 1.58655 13.3333.93452 13.3333.433758 13.0797.146863 12.4722.0581859 12.282.00602323 12.0548.00602323 11.8435-.00440931 10.2743.00080696 8.70525.00602323 7.13086.0112395 6.29612.637192 5.65157 1.46136 5.62515 1.53439 5.62515 1.6022 5.62515 1.67523 5.62515 7.17318 5.62515 12.6711 5.62515 18.1743 5.62515 19.2541 5.62515 19.614 5.87346 20 6.88783 20 8.61543 20 10.3483 20 12.0759zM17.5275 12.3823C17.8405 12.3823 18.1221 12.3823 18.409 12.3823 18.8628 12.3823 19.0611 12.1816 19.0611 11.7167 19.0611 10.2321 19.0611 8.74223 19.0611 7.25765 19.0611 6.78217 18.8628 6.57612 18.3986 6.57612 12.7963 6.57612 7.18883 6.57612 1.58655 6.57612 1.14317 6.57612.939736 6.77689.939736 7.22596.939736 8.11881.939736 9.01167.939736 9.89924.939736 10.5332.939736 11.1672.939736 11.8012.939736 12.097 1.10144 12.3348 1.36225 12.3559 1.72218 12.3823 2.08732 12.3612 2.4681 12.3612 2.4681 12.282 2.4681 12.2133 2.4681 12.1393 2.4681 11.7536 2.46289 11.3733 2.47332 10.9876 2.48375 10.7023 2.68719 10.5121 2.948 10.5121 3.20881 10.5174 3.3966 10.7129 3.40703 10.9981 3.41225 11.2359 3.40703 11.4736 3.40703 11.7114 3.40703 11.928 3.40703 12.1393 3.40703 12.3454 3.44876 12.3612 3.4592 12.3718 3.47484 12.3718 3.77217 12.3718 4.07472 12.3771 4.37204 12.3771 4.83108 12.3771 4.83108 12.3771 4.83108 11.9121 4.83108 11.2465 4.83108 10.5755 4.83108 9.90981 4.83108 9.5981 4.99278 9.41847 5.25881 9.39206 5.55092 9.36564 5.76479 9.58225 5.76479 9.93094 5.77 10.6653 5.76479 11.3997 5.76479 12.1287 5.76479 12.2027 5.77 12.282 5.77522 12.3559 6.2499 12.3559 6.6985 12.3559 7.15753 12.3559 7.16275 12.282 7.16796 12.2238 7.16796 12.1657 7.16796 11.7748 7.16275 11.3838 7.17318 10.9981 7.1784 10.7076 7.3714 10.5121 7.63221 10.5121 7.89824 10.5068 8.08603 10.6917 8.10689 10.9876 8.11211 11.088 8.11211 11.1831 8.11211 11.2834 8.11211 11.6374 8.11211 11.9967 8.11211 12.3559 8.59722 12.3559 9.05626 12.3559 9.53094 12.3559 9.53094 12.2661 9.53094 12.1921 9.53094 12.1182 9.53094 11.3785 9.53094 10.6389 9.53094 9.89924 9.53094 9.64565 9.65091 9.47659 9.85435 9.41319 10.183 9.31281 10.4646 9.53999 10.4699 9.92038 10.4751 10.66 10.4699 11.3997 10.4699 12.1393 10.4699 12.208 10.4699 12.282 10.4699 12.3612 10.9498 12.3612 11.4088 12.3612 11.8835 12.3612 11.8835 12.2767 11.8835 12.2027 11.8835 12.134 11.8835 11.7642 11.8783 11.3944 11.8835 11.0246 11.8887 10.7129 12.0817 10.5068 12.3582 10.5121 12.6294 10.5174 12.812 10.7181 12.8172 11.0193 12.8224 11.3151 12.8172 11.6163 12.8172 11.9121 12.8172 12.0601 12.8172 12.208 12.8172 12.3559 13.3023 12.3559 13.7613 12.3559 14.236 12.3559 14.236 12.0284 14.236 11.7219 14.236 11.4102 14.236 10.9136 14.236 10.417 14.236 9.92566 14.236 9.6615 14.3456 9.49244 14.5386 9.41847 14.862 9.29696 15.1645 9.51885 15.1697 9.89396 15.1749 10.6389 15.1697 11.3891 15.1749 12.134 15.1749 12.208 15.1802 12.2872 15.1854 12.3506 15.6705 12.3506 16.1295 12.3506 16.599 12.3506 16.599 12.245 16.599 12.1604 16.599 12.0759 16.599 11.7008 16.5938 11.3204 16.6042 10.9453 16.6094 10.7393 16.7242 10.5966 16.912 10.5332 17.0893 10.4698 17.2771 10.4962 17.3919 10.6547 17.4701 10.771 17.5223 10.9295 17.5275 11.0721 17.5431 11.5053 17.5275 11.928 17.5275 12.3823zM16.3643 3.24245C12.1026 3.24245 7.89825 3.24245 3.64177 3.24245 3.9391 3.43792 4.1947 3.60699 4.44508 3.77605 4.66938 3.92926 4.74241 4.1353 4.65895 4.35191 4.54419 4.65834 4.23121 4.75343 3.93388 4.56324 3.32358 4.17229 2.71849 3.77605 2.10819 3.37981 1.99343 3.30584 1.87346 3.23188 1.76391 3.15263 1.46659 2.93602 1.46659 2.54507 1.77435 2.34431 2.49419 1.86882 3.21404 1.39862 3.9391.928414 4.18426.769919 4.46073.822751 4.60678 1.04993 4.75805 1.2771 4.69546 1.54655 4.44508 1.72089 4.1947 1.89524 3.93388 2.0643 3.6835 2.23336 3.67829 2.23864 3.67829 2.24393 3.67307 2.26506 7.88782 2.26506 12.0973 2.26506 16.3695 2.26506 16.0721 2.07486 15.8113 1.92165 15.5714 1.73674 15.4618 1.65221 15.3575 1.52013 15.3158 1.38805 15.2584 1.20842 15.3314 1.03408 15.4984.923131 15.6809.801618 15.8687.806901 16.0461.928414 16.4895 1.21899 16.9328 1.50956 17.3762 1.79486 17.6475 1.97448 17.9239 2.14883 18.1952 2.33374 18.5342 2.56092 18.5342 2.95187 18.1952 3.17376 17.4858 3.63868 16.7763 4.1036 16.0669 4.56852 15.8844 4.69004 15.6914 4.71645 15.4984 4.58437 15.3367 4.47343 15.2584 4.29908 15.3158 4.11945 15.3575 3.98737 15.4566 3.85001 15.5662 3.76548 15.8061 3.58585 16.0669 3.43792 16.3643 3.24245z" fill="#000"/></svg>